<svg width="214" height="89" viewBox="0 0 214 89" fill="none" xmlns="http://www.w3.org/2000/svg">
<path d="M29.3787 84.2965C28.9467 84.2965 28.5867 84.1885 28.3347 84.1165C27.6148 83.8285 26.3548 83.0006 26.1388 80.5169L25.3108 71.5539C25.2388 70.906 25.7068 70.366 26.3188 70.294C26.9668 70.258 27.5068 70.69 27.5788 71.3379L28.4067 80.3009C28.5147 81.3448 28.8387 81.8488 29.1627 81.9567C29.4507 82.1007 30.0267 81.9567 30.8187 81.2368L43.4905 69.5381C43.9585 69.1062 44.6785 69.1062 45.1105 69.5741C45.5425 70.0421 45.5065 70.762 45.0385 71.1939L32.3667 82.8926C31.1787 84.0085 30.1347 84.2965 29.3787 84.2965Z" fill="#FFF5B6"/>
<path d="M75.854 71.8058C75.446 71.8058 74.978 71.7458 74.45 71.6258L63.0742 69.0701C62.4622 68.9261 62.0662 68.3142 62.2102 67.7022C62.3542 67.0903 62.9662 66.6944 63.5781 66.8383L74.954 69.3941C75.998 69.646 76.5739 69.4661 76.7899 69.2141C76.9699 68.9621 77.042 68.3502 76.574 67.3783L66.6021 45.7446C66.1341 44.7008 66.2061 43.2609 66.7821 42.289L78.9859 21.7713C79.5259 20.8354 79.5259 20.2234 79.3459 19.9715C79.1659 19.7195 78.6259 19.4675 77.5459 19.6115L53.8943 22.3832C52.7783 22.5272 51.3743 21.9872 50.6543 21.1593L34.9225 3.23329C34.2026 2.44137 33.6266 2.2254 33.3386 2.29739C33.0146 2.40538 32.6186 2.83733 32.4026 3.88122L27.7587 27.2787C27.5067 28.3945 26.6067 29.5104 25.5627 29.9784L3.675 39.4093C2.66701 39.8053 2.30702 40.3092 2.30702 40.6332C2.27102 40.9212 2.59502 41.4611 3.531 42.0011L12.6389 47.0765C13.1789 47.4005 13.3589 48.0844 13.0709 48.6603C12.7469 49.2003 12.0629 49.3802 11.5229 49.0923L2.41502 43.9808C0.219048 42.757 -0.0329477 41.2811 0.00305179 40.4892C0.0390513 39.7333 0.471044 38.2935 2.77501 37.2856L24.6627 27.8906C25.0227 27.7466 25.4187 27.2067 25.4907 26.8467L30.1706 3.44927C30.6386 1.00153 31.9706 0.317607 32.7266 0.101631C33.4826 -0.114346 34.9945 -0.150342 36.6505 1.72145L52.3463 19.6475C52.5983 19.9355 53.2463 20.1514 53.6063 20.1154L77.2939 17.3437C79.7779 17.0558 80.8579 18.0637 81.2539 18.7116C81.6859 19.3595 82.2259 20.7994 80.9299 22.9231L68.7621 43.4409C68.5461 43.7649 68.5101 44.4488 68.6901 44.7727L78.6619 66.4424C79.7059 68.7101 79.0219 70.042 78.5539 70.6539C78.1579 71.1219 77.3659 71.8058 75.854 71.8058Z" fill="#FFF5B6"/>
<path fill-rule="evenodd" clip-rule="evenodd" d="M29.5225 34.3339C30.8545 34.6219 32.0785 35.0538 33.1585 35.5938C34.3465 36.1697 35.2825 36.8896 36.0384 37.7176C36.9744 38.7614 37.4424 39.9493 37.4424 41.2092C37.4424 42.577 36.9024 43.8369 35.8944 44.8448C34.8865 45.8167 33.5545 46.3206 32.0425 46.3206C31.1065 46.3206 30.3505 46.1766 29.7385 45.8167C29.4745 45.6727 29.1745 45.4927 28.8385 45.2767L28.3705 45.0247C28.3466 45.0008 28.3345 44.9887 28.3345 44.9887C27.9026 44.7248 27.4706 44.5208 27.0386 44.3768C26.6066 44.2568 26.1266 44.1968 25.5986 44.1968C24.8786 44.1968 24.2306 44.3048 23.8346 44.4848C23.4386 44.6288 23.1506 44.8448 22.9706 45.1327C22.7306 45.4207 22.5506 45.8167 22.4306 46.3206C22.2866 46.9685 22.2146 47.7124 22.2146 48.5524V57.9113C22.2146 58.7512 22.2866 59.4952 22.4306 60.1431C22.5506 60.647 22.7306 61.043 22.9706 61.331C23.1626 61.5949 23.4506 61.8109 23.8346 61.9789C24.2306 62.1589 24.8786 62.2669 25.5986 62.2669C26.1266 62.2669 26.6066 62.1949 27.0386 62.0509C27.4706 61.9309 27.9026 61.7389 28.3345 61.475C28.3345 61.475 28.3466 61.463 28.3705 61.439L28.8385 61.151C29.1745 60.959 29.4745 60.791 29.7385 60.647C30.3505 60.2871 31.1065 60.1431 32.0425 60.1431C33.5545 60.1431 34.8865 60.647 35.8944 61.6189C36.9024 62.6268 37.4424 63.8867 37.4424 65.2545C37.4424 66.5144 36.9744 67.7023 36.0384 68.7462C35.2825 69.5741 34.3105 70.294 33.1585 70.8699C32.0785 71.4099 30.8545 71.8418 29.5225 72.1298C28.1906 72.4537 26.7866 72.5977 25.3826 72.5977C23.0066 72.5977 20.9187 72.2378 19.1547 71.5539C17.3187 70.8699 15.7707 69.826 14.5107 68.4582C13.3228 67.1263 12.3868 65.5065 11.8468 63.6707C11.3068 61.9429 11.0188 59.9991 11.0188 57.9113V48.5524C11.0188 46.4646 11.3068 44.5208 11.8468 42.793C12.3868 40.9212 13.3228 39.3014 14.5107 37.9695C15.7707 36.6377 17.3187 35.5938 19.1547 34.8739C20.9187 34.1899 23.0066 33.866 25.3826 33.866C26.7866 33.866 28.1906 34.0099 29.5225 34.3339ZM19.9827 37.0336C18.4707 37.6096 17.2107 38.4375 16.2027 39.5174C15.2187 40.6212 14.4867 41.9291 14.0068 43.4409C13.5268 44.9768 13.2868 46.6806 13.2868 48.5524V57.9113C13.2868 59.7831 13.5268 61.4749 14.0068 62.9868C14.4867 64.5226 15.2187 65.8425 16.2027 66.9464C17.2107 68.0262 18.4707 68.8541 19.9827 69.4301C21.4946 70.03 23.2946 70.33 25.3826 70.33C26.6306 70.33 27.8426 70.186 29.0185 69.898C30.1945 69.6341 31.2385 69.2741 32.1505 68.8182C33.0625 68.3622 33.7945 67.8223 34.3465 67.1983C34.8985 66.5984 35.1745 65.9505 35.1745 65.2545C35.1745 64.4866 34.8865 63.8267 34.3105 63.2748C33.7105 62.6988 32.9545 62.4108 32.0425 62.4108C31.5145 62.4108 31.1185 62.4828 30.8545 62.6268C30.6145 62.7708 30.3385 62.9388 30.0265 63.1308L29.5225 63.4187C28.9225 63.7787 28.3105 64.0547 27.6866 64.2466C27.0626 64.4386 26.3666 64.5346 25.5986 64.5346C24.5426 64.5346 23.6426 64.3786 22.8986 64.0667C22.1786 63.7547 21.6026 63.3108 21.1707 62.7348C20.7147 62.1589 20.3907 61.4629 20.1987 60.647C20.0067 59.8311 19.9107 58.9192 19.9107 57.9113V48.5524C19.9107 47.5445 20.0067 46.6206 20.1987 45.7807C20.3907 44.9648 20.7147 44.2808 21.1707 43.7289C21.6026 43.153 22.1786 42.709 22.8986 42.397C23.6426 42.0851 24.5426 41.9291 25.5986 41.9291C26.3666 41.9291 27.0626 42.0131 27.6866 42.1811C28.3105 42.373 28.9225 42.661 29.5225 43.045L30.0265 43.3329C30.3385 43.5249 30.6145 43.6929 30.8545 43.8369C31.1185 43.9809 31.5145 44.0528 32.0425 44.0528C32.9545 44.0528 33.7105 43.7649 34.3105 43.1889C34.8865 42.613 35.1745 41.9531 35.1745 41.2092C35.1745 40.5132 34.8985 39.8533 34.3465 39.2294C33.7945 38.6294 33.0625 38.1015 32.1505 37.6456C31.2385 37.1896 30.1945 36.8176 29.0185 36.5297C27.8426 36.2657 26.6306 36.1337 25.3826 36.1337C23.2946 36.1337 21.4946 36.4337 19.9827 37.0336Z" fill="#FFF5B6"/>
<path fill-rule="evenodd" clip-rule="evenodd" d="M56.9183 34.3339C58.2503 34.6219 59.4743 35.0538 60.5542 35.5938C61.7062 36.1697 62.6782 36.8896 63.4342 37.7176C64.3702 38.7614 64.8382 39.9493 64.8382 41.2092C64.8382 42.577 64.2982 43.8369 63.2902 44.8448C62.2822 45.8167 60.9502 46.3206 59.4382 46.3206C58.5023 46.3206 57.7463 46.1766 57.1343 45.8167C56.8703 45.6727 56.5703 45.4927 56.2343 45.2767L55.7663 45.0247C55.7423 45.0008 55.7183 44.9887 55.6943 44.9887C55.2863 44.7248 54.8663 44.5208 54.4343 44.3768C54.0023 44.2568 53.5223 44.1968 52.9943 44.1968C52.2384 44.1968 51.6264 44.3048 51.1944 44.4848C50.8344 44.6528 50.5584 44.8568 50.3664 45.0967C50.1264 45.4087 49.9464 45.8167 49.8264 46.3206C49.6824 46.9685 49.6104 47.7124 49.6104 48.5524V57.9113C49.6104 58.7512 49.6824 59.4952 49.8264 60.1431C49.9464 60.647 50.1264 61.043 50.3664 61.331C50.5464 61.6189 50.8344 61.7989 51.1944 61.9789C51.6264 62.1589 52.2384 62.2669 52.9943 62.2669C53.5223 62.2669 54.0023 62.1949 54.4343 62.0509C54.8663 61.9309 55.2863 61.7389 55.6943 61.475C55.7183 61.475 55.7423 61.463 55.7663 61.439L56.2343 61.151C56.5703 60.959 56.8703 60.791 57.1343 60.647C57.7463 60.2871 58.5023 60.1431 59.4382 60.1431C60.9502 60.1431 62.2822 60.647 63.2902 61.6189C64.2982 62.6268 64.8382 63.8867 64.8382 65.2545C64.8382 66.5144 64.3702 67.7023 63.4342 68.7462C62.6782 69.5741 61.7062 70.294 60.5542 70.8699C59.4743 71.4099 58.2503 71.8418 56.9183 72.1298C55.5863 72.4537 54.1823 72.5977 52.7783 72.5977C50.4024 72.5977 48.3144 72.2378 46.5504 71.5539C44.7145 70.8699 43.1305 69.826 41.9065 68.4582C40.6825 67.1263 39.7825 65.5065 39.2065 63.6707C38.6665 61.9429 38.4146 59.9991 38.4146 57.9113V48.5524C38.4146 46.4646 38.6665 44.5208 39.2065 42.793C39.7825 40.9212 40.6825 39.3014 41.9065 37.9695C43.1305 36.6377 44.7145 35.5938 46.5504 34.8739C48.3144 34.1899 50.4024 33.866 52.7783 33.866C54.1823 33.866 55.5863 34.0099 56.9183 34.3339ZM47.3784 37.0336C45.8664 37.6096 44.6065 38.4375 43.5985 39.5174C42.6145 40.6212 41.8825 41.9291 41.4025 43.4409C40.9225 44.9768 40.6825 46.6806 40.6825 48.5524V57.9113C40.6825 59.7831 40.9225 61.4749 41.4025 62.9868C41.8825 64.5226 42.6145 65.8425 43.5985 66.9464C44.6065 68.0262 45.8664 68.8541 47.3784 69.4301C48.8904 70.03 50.6904 70.33 52.7783 70.33C54.0263 70.33 55.2383 70.186 56.4143 69.898C57.5663 69.6341 58.6103 69.2741 59.5462 68.8182C60.4582 68.3622 61.1902 67.8223 61.7422 67.1983C62.2942 66.5984 62.5702 65.9505 62.5702 65.2545C62.5702 64.4866 62.2702 63.8267 61.6702 63.2748C61.0942 62.6988 60.3502 62.4108 59.4382 62.4108C58.9103 62.4108 58.5143 62.4828 58.2503 62.6268C58.0103 62.7708 57.7223 62.9388 57.3863 63.1308L56.9183 63.4187C56.3183 63.7787 55.7063 64.0547 55.0823 64.2466C54.4583 64.4386 53.7623 64.5346 52.9943 64.5346C51.9144 64.5346 51.0144 64.3786 50.2944 64.0667C49.5744 63.7547 48.9984 63.3108 48.5664 62.7348C48.1104 62.1589 47.7864 61.4629 47.5944 60.647C47.4024 59.8311 47.3064 58.9192 47.3064 57.9113V48.5524C47.3064 47.5445 47.4024 46.6206 47.5944 45.7807C47.7864 44.9648 48.1104 44.2808 48.5664 43.7289C48.9984 43.153 49.5744 42.709 50.2944 42.397C51.0144 42.0851 51.9144 41.9291 52.9943 41.9291C53.7623 41.9291 54.4583 42.0131 55.0823 42.1811C55.7063 42.373 56.3183 42.661 56.9183 43.045L57.3863 43.3329C57.7223 43.5249 58.0103 43.6929 58.2503 43.8369C58.5143 43.9809 58.9103 44.0528 59.4382 44.0528C60.3502 44.0528 61.0942 43.7649 61.6702 43.1889C62.2702 42.613 62.5702 41.9531 62.5702 41.2092C62.5702 40.5132 62.2942 39.8533 61.7422 39.2294C61.1902 38.6294 60.4582 38.1015 59.5462 37.6456C58.6103 37.1896 57.5663 36.8176 56.4143 36.5297C55.2383 36.2657 54.0263 36.1337 52.7783 36.1337C50.6904 36.1337 48.8904 36.4337 47.3784 37.0336Z" fill="#FFF5B6"/>
<path fill-rule="evenodd" clip-rule="evenodd" d="M97.2017 34.0459C98.4257 34.1539 99.6137 34.4059 100.802 34.7659C102.062 35.1618 103.178 35.7018 104.114 36.4217C105.446 37.4296 106.13 38.7974 106.13 40.4173C106.13 41.7851 105.59 43.045 104.582 44.0888C103.898 44.8088 102.602 45.6727 100.514 45.6727C99.8297 45.6727 99.2177 45.5647 98.6417 45.3847C98.3057 45.2887 97.9337 45.1687 97.5257 45.0247C97.5017 45.0247 97.4777 45.0247 97.4537 45.0247C97.0457 44.8808 96.5897 44.7368 96.0857 44.5928C95.8337 44.5208 95.3657 44.4488 94.6098 44.4488C94.1778 44.4488 93.7698 44.4848 93.3858 44.5568C93.1218 44.6048 92.9178 44.6768 92.7738 44.7728C92.6658 44.8808 92.5578 44.9887 92.4858 45.1327C92.4858 45.1327 92.3778 45.3127 92.3778 45.7447C92.3778 46.1406 92.4498 46.3206 92.4498 46.3926C92.7738 46.7166 92.9898 46.8246 93.0618 46.8605C93.0858 46.8605 93.1098 46.8605 93.1338 46.8605C93.6618 47.1485 94.1538 47.3645 94.6098 47.5085C95.1377 47.7005 95.6537 47.8684 96.1577 48.0124C96.1817 48.0124 96.1937 48.0124 96.1937 48.0124C97.4177 48.4084 98.6057 48.8403 99.7577 49.2723C101.126 49.7762 102.386 50.4602 103.466 51.2881C104.654 52.224 105.626 53.3758 106.346 54.7797C107.102 56.1835 107.498 57.9473 107.498 59.9991C107.498 61.9429 107.102 63.7787 106.382 65.3625C105.626 66.9464 104.618 68.3142 103.322 69.3941C102.062 70.474 100.55 71.3019 98.8217 71.8418C97.1657 72.3818 95.3657 72.6337 93.4218 72.6337C92.4498 72.6337 91.2978 72.5617 90.0378 72.3818C88.7058 72.2018 87.4459 71.9138 86.2939 71.4819C84.9979 71.0499 83.8819 70.438 82.9459 69.7181C81.6859 68.6742 81.002 67.3423 81.002 65.8305C81.002 64.4626 81.5419 63.2028 82.5499 62.1589C83.5939 61.115 84.9259 60.5391 86.4019 60.5391C86.9779 60.5391 87.5539 60.623 88.1298 60.791C88.5618 60.911 89.0298 61.067 89.5338 61.259C90.0618 61.427 90.6858 61.6189 91.4058 61.8349C91.9818 61.9789 92.6658 62.0509 93.4578 62.0509C94.8978 62.0509 95.4737 61.7629 95.6897 61.5829C95.7977 61.475 96.1217 61.223 96.1217 60.2871C96.1217 59.8191 96.0497 59.6032 96.0137 59.4952C95.7977 59.2792 95.6177 59.2072 95.5457 59.1352C95.0897 58.9432 94.5978 58.7513 94.0698 58.5593L92.8458 58.1633L92.3058 57.9473C91.1178 57.5874 89.8938 57.1914 88.7418 56.7595C87.3739 56.2555 86.1139 55.5716 85.0339 54.7077C83.8459 53.8078 82.8739 52.6199 82.1539 51.2161C81.434 49.7762 81.074 48.0124 81.074 45.9246C81.074 44.1248 81.3979 42.433 82.0099 40.9572C82.6579 39.4454 83.5939 38.1135 84.7819 37.0336C85.9699 35.9897 87.4099 35.1618 89.0658 34.6219C90.6498 34.1179 92.4138 33.866 94.3218 33.866C95.0778 33.866 96.0497 33.902 97.2017 34.0459ZM89.7858 36.8176C88.4178 37.2496 87.2659 37.8975 86.3299 38.7614C85.3699 39.6013 84.6379 40.6332 84.1339 41.8571C83.6059 43.057 83.3419 44.4128 83.3419 45.9246C83.3419 47.6285 83.6299 49.0443 84.2059 50.1722C84.7579 51.3001 85.4899 52.212 86.4019 52.9079C87.3139 53.6278 88.3458 54.2037 89.4978 54.6357C90.6498 55.0437 91.8138 55.4276 92.9898 55.7876C93.6138 56.0035 94.2258 56.2195 94.8258 56.4355C95.4017 56.6275 95.9417 56.8315 96.4457 57.0474C96.9017 57.2394 97.3337 57.5634 97.7417 58.0193C98.1737 58.4513 98.3897 59.2072 98.3897 60.2871C98.3897 61.6069 97.9817 62.6148 97.1657 63.3107C96.3497 64.0067 95.1138 64.3546 93.4578 64.3546C92.4498 64.3546 91.5618 64.2466 90.7938 64.0307C90.0258 63.7907 89.3538 63.5867 88.7778 63.4187C88.3458 63.2508 87.9259 63.1068 87.5179 62.9868C87.1339 62.8908 86.7619 62.8428 86.4019 62.8428C85.5379 62.8428 84.8059 63.1428 84.2059 63.7427C83.6059 64.3666 83.3059 65.0626 83.3059 65.8305C83.3059 66.6464 83.6659 67.3423 84.3859 67.9182C85.1059 68.4942 85.9819 68.9741 87.0139 69.3581C88.0699 69.7181 89.1858 69.97 90.3618 70.114C91.5138 70.282 92.5338 70.366 93.4218 70.366C95.1258 70.366 96.6977 70.138 98.1377 69.6821C99.5777 69.2261 100.814 68.5542 101.846 67.6663C102.878 66.7784 103.694 65.6865 104.294 64.3906C104.894 63.0948 105.194 61.6309 105.194 59.9991C105.194 58.3193 104.906 56.9274 104.33 55.8236C103.754 54.7197 103.01 53.8198 102.098 53.1239C101.162 52.4039 100.118 51.828 98.9657 51.3961C97.8137 50.9641 96.6617 50.5681 95.5097 50.2082C94.9577 50.0402 94.4058 49.8602 93.8538 49.6682C93.3018 49.4763 92.7138 49.2243 92.0898 48.9123C91.6818 48.7203 91.2498 48.4084 90.7938 47.9764C90.3378 47.5445 90.1098 46.8006 90.1098 45.7447C90.1098 45.0487 90.2298 44.4728 90.4698 44.0169C90.7338 43.5609 91.0698 43.189 91.4778 42.901C91.8858 42.613 92.3658 42.421 92.9178 42.325C93.4698 42.2051 94.0338 42.1451 94.6098 42.1451C95.4257 42.1451 96.1217 42.2291 96.6977 42.397C97.2497 42.541 97.7537 42.697 98.2097 42.865C98.6177 42.985 98.9897 43.105 99.3257 43.2249C99.6857 43.3209 100.082 43.3689 100.514 43.3689C101.57 43.3689 102.386 43.069 102.962 42.469C103.538 41.8691 103.826 41.1852 103.826 40.4173C103.826 39.5294 103.466 38.8094 102.746 38.2575C102.026 37.7056 101.15 37.2736 100.118 36.9616C99.0857 36.6257 98.0417 36.4097 96.9857 36.3137C95.9057 36.1937 95.0178 36.1337 94.3218 36.1337C92.6418 36.1337 91.1298 36.3617 89.7858 36.8176Z" fill="#FFF5B6"/>
<path fill-rule="evenodd" clip-rule="evenodd" d="M136.153 35.3418C137.305 36.3857 137.917 37.7176 137.917 39.1574V67.2703C137.917 68.7462 137.341 70.042 136.225 71.0859C135.145 72.0938 133.813 72.6337 132.301 72.6337C130.861 72.6337 129.529 72.1298 128.449 71.1219C127.297 70.078 126.721 68.7462 126.721 67.2703V58.5233H121.213V67.2703C121.213 68.7462 120.637 70.042 119.521 71.0859C118.441 72.0938 117.109 72.6337 115.597 72.6337C114.121 72.6337 112.753 72.0938 111.673 71.0859C110.593 70.042 110.017 68.7462 110.017 67.2703V39.1574C110.017 37.7176 110.593 36.3857 111.709 35.3778C112.789 34.3699 114.121 33.866 115.597 33.866C117.073 33.866 118.441 34.3699 119.485 35.3778C120.601 36.3857 121.213 37.7176 121.213 39.1574V47.9044H126.721V39.1574C126.721 37.7176 127.333 36.3857 128.449 35.3418C129.529 34.3699 130.861 33.866 132.301 33.866C133.741 33.866 135.073 34.3699 136.153 35.3418ZM129.997 37.0336C129.325 37.6336 128.989 38.3415 128.989 39.1574V50.2082H118.909V39.1574C118.909 38.3415 118.585 37.6336 117.937 37.0336C117.289 36.4337 116.509 36.1337 115.597 36.1337C114.685 36.1337 113.905 36.4337 113.257 37.0336C112.609 37.6336 112.285 38.3415 112.285 39.1574V67.2703C112.285 68.1102 112.609 68.8301 113.257 69.4301C113.905 70.054 114.685 70.366 115.597 70.366C116.509 70.366 117.289 70.054 117.937 69.4301C118.585 68.8301 118.909 68.1102 118.909 67.2703V56.2555H128.989V67.2703C128.989 68.1102 129.325 68.8301 129.997 69.4301C130.669 70.054 131.437 70.366 132.301 70.366C133.213 70.366 133.993 70.054 134.641 69.4301C135.289 68.8301 135.613 68.1102 135.613 67.2703V39.1574C135.613 38.3415 135.289 37.6336 134.641 37.0336C133.969 36.4337 133.189 36.1337 132.301 36.1337C131.437 36.1337 130.669 36.4337 129.997 37.0336Z" fill="#FFF5B6"/>
<path fill-rule="evenodd" clip-rule="evenodd" d="M162.217 35.0178C164.125 35.8458 165.673 36.9616 166.861 38.3295C168.049 39.6973 168.949 41.3172 169.489 43.117C169.993 44.8448 170.281 46.6446 170.281 48.5524V57.9113C170.281 59.8911 169.957 61.7989 169.381 63.5267C168.733 65.3265 167.797 66.9464 166.573 68.2782C165.313 69.6461 163.765 70.7259 161.929 71.4819C160.129 72.2378 158.041 72.6337 155.665 72.6337C153.325 72.6337 151.237 72.2378 149.437 71.4819C147.601 70.7259 146.017 69.6461 144.793 68.2782C143.569 66.9464 142.633 65.3265 141.985 63.5267C141.409 61.7989 141.085 59.8911 141.085 57.9113V48.5524C141.085 46.6446 141.373 44.8088 141.877 43.117C142.417 41.3172 143.317 39.7333 144.469 38.3295C145.693 36.9616 147.241 35.8458 149.149 35.0178C150.985 34.2619 153.181 33.866 155.665 33.866C158.185 33.866 160.381 34.2619 162.217 35.0178ZM150.013 37.1416C148.453 37.7895 147.181 38.6894 146.197 39.8413C145.237 40.9692 144.529 42.289 144.073 43.8009C143.617 45.2887 143.389 46.8725 143.389 48.5524V57.9113C143.389 59.6391 143.641 61.259 144.145 62.7708C144.673 64.3066 145.453 65.6265 146.485 66.7304C147.493 67.8582 148.765 68.7462 150.301 69.3941C151.837 70.042 153.625 70.366 155.665 70.366C157.729 70.366 159.529 70.042 161.065 69.3941C162.577 68.7462 163.849 67.8582 164.881 66.7304C165.913 65.6265 166.693 64.3066 167.221 62.7708C167.725 61.259 167.977 59.6391 167.977 57.9113V48.5524C167.977 46.8725 167.749 45.2887 167.293 43.8009C166.837 42.289 166.117 40.9692 165.133 39.8413C164.173 38.6894 162.913 37.7895 161.353 37.1416C159.769 36.4697 157.873 36.1337 155.665 36.1337C153.457 36.1337 151.573 36.4697 150.013 37.1416ZM151.381 62.5548C150.469 61.355 150.013 59.8071 150.013 57.9113V48.5524C150.013 46.6086 150.433 45.0607 151.273 43.9089C152.137 42.733 153.601 42.1451 155.665 42.1451C157.753 42.1451 159.229 42.733 160.093 43.9089C160.933 45.0607 161.353 46.6086 161.353 48.5524V57.9113C161.353 59.8071 160.897 61.355 159.985 62.5548C159.073 63.7547 157.633 64.3546 155.665 64.3546C153.721 64.3546 152.293 63.7547 151.381 62.5548ZM158.185 61.151C158.797 60.3591 159.085 59.3152 159.085 57.9113V48.5524C159.085 47.1125 158.797 45.9966 158.257 45.2407C157.861 44.7008 156.997 44.4488 155.665 44.4488C154.369 44.4488 153.505 44.7008 153.109 45.2407C152.569 45.9966 152.281 47.1125 152.281 48.5524V57.9113C152.281 59.3152 152.569 60.3591 153.181 61.151C153.469 61.5469 154.045 62.0509 155.665 62.0509C157.285 62.0509 157.897 61.5469 158.185 61.151Z" fill="#FFF5B6"/>
<path fill-rule="evenodd" clip-rule="evenodd" d="M196.632 35.6298C197.424 36.5297 197.964 37.7175 198.288 39.0854L200.232 46.9325L202.428 38.1495C202.752 36.8896 203.4 35.8458 204.372 35.1258C205.344 34.3699 206.46 34.0099 207.684 34.0099C208.284 34.0099 208.896 34.0819 209.52 34.2259C210.192 34.4179 210.804 34.6939 211.356 35.0538C212.004 35.4618 212.532 35.9897 212.94 36.6377C213.408 37.3576 213.66 38.2215 213.66 39.1574V39.4094C213.66 39.7453 213.6 40.0933 213.48 40.4532L206.388 67.9542C206.388 68.0022 206.376 68.0382 206.352 68.0622C205.992 69.2141 205.38 70.222 204.516 71.0859C203.472 72.1298 202.068 72.6337 200.304 72.6337C198.54 72.6337 197.1 72.0938 196.056 71.0499C195.192 70.186 194.544 69.1421 194.184 68.0262C194.184 67.9782 194.172 67.9302 194.148 67.8823L192.312 60.1431L190.404 67.9542C190.404 67.9782 190.392 68.0022 190.368 68.0262C190.248 68.5542 190.044 69.0701 189.756 69.5741C189.468 70.126 189.084 70.6299 188.604 71.0859C188.076 71.5658 187.452 71.9498 186.732 72.2378C186.048 72.4897 185.22 72.6337 184.284 72.6337C182.772 72.6337 181.368 72.1298 180.252 71.1219C179.244 70.222 178.524 69.1781 178.2 68.0262C178.176 68.0022 178.164 67.9782 178.164 67.9542L171.216 40.5972C171.192 40.5492 171.18 40.5132 171.18 40.4892C171.156 40.3693 171.12 40.2133 171.072 40.0213C170.976 39.7333 170.928 39.4334 170.928 39.1214C170.928 38.2575 171.18 37.4296 171.612 36.7097C171.996 36.1337 172.464 35.6418 173.016 35.2338C173.568 34.8019 174.192 34.4899 174.888 34.2979C175.512 34.1059 176.136 34.0099 176.76 34.0099C177.912 34.0099 178.956 34.2979 179.892 34.8739C181.008 35.5578 181.728 36.6377 182.052 38.0055L184.32 46.7886L186.264 39.0854C186.624 37.6456 187.164 36.5297 187.848 35.6298C188.784 34.4419 190.296 33.866 192.312 33.866C194.184 33.866 195.66 34.4419 196.632 35.6298ZM189.612 37.0696C189.132 37.6695 188.748 38.5215 188.46 39.6253L185.688 50.7481C185.352 52.02 185.112 53.3398 184.968 54.7077C184.8 56.0515 184.596 57.3594 184.356 58.6313C184.092 57.3114 183.888 55.9915 183.744 54.6717C183.576 53.3518 183.324 52.044 182.988 50.7481L179.856 38.5455C179.664 37.7535 179.28 37.1776 178.704 36.8176C178.104 36.4577 177.456 36.2777 176.76 36.2777C176.352 36.2777 175.944 36.3377 175.536 36.4577C175.104 36.6017 174.72 36.7936 174.384 37.0336C174.048 37.2976 173.772 37.5976 173.556 37.9335C173.34 38.2935 173.232 38.6894 173.232 39.1214C173.232 39.2174 173.244 39.3134 173.268 39.4094C173.34 39.6493 173.388 39.8533 173.412 40.0213L180.36 67.3783C180.6 68.0982 181.068 68.7821 181.764 69.4301C182.484 70.054 183.324 70.366 184.284 70.366C184.932 70.366 185.472 70.282 185.904 70.114C186.36 69.922 186.732 69.694 187.02 69.4301C187.332 69.1421 187.572 68.8182 187.74 68.4582C187.932 68.1222 188.076 67.7743 188.172 67.4143L191.016 55.7516C191.328 54.5037 191.568 53.2438 191.736 51.972C191.88 50.7001 192.072 49.4283 192.312 48.1564C192.528 49.4283 192.708 50.7001 192.852 51.972C193.02 53.2438 193.26 54.5037 193.572 55.7516L196.38 67.3423C196.62 68.1342 197.052 68.8301 197.676 69.4301C198.3 70.054 199.176 70.366 200.304 70.366C201.432 70.366 202.296 70.066 202.896 69.4661C203.496 68.8661 203.928 68.1702 204.192 67.3783L211.284 39.7693C211.356 39.6253 211.392 39.5053 211.392 39.4094C211.392 39.3134 211.392 39.2294 211.392 39.1574C211.392 38.6534 211.272 38.2215 211.032 37.8615C210.792 37.5016 210.492 37.2016 210.132 36.9616C209.772 36.7217 209.376 36.5537 208.944 36.4577C208.512 36.3377 208.092 36.2777 207.684 36.2777C206.964 36.2777 206.328 36.4937 205.776 36.9256C205.224 37.3576 204.852 37.9455 204.66 38.6894L201.636 50.7481C201.276 52.092 201.012 53.4118 200.844 54.7077C200.676 56.0275 200.46 57.3474 200.196 58.6673C199.956 57.3474 199.752 56.0275 199.584 54.7077C199.44 53.4118 199.188 52.092 198.828 50.7481L196.092 39.6253C195.828 38.5695 195.432 37.7175 194.904 37.0696C194.376 36.4457 193.512 36.1337 192.312 36.1337C191.016 36.1337 190.116 36.4457 189.612 37.0696Z" fill="#FFF5B6"/>
<path d="M144.289 21.6272L144.325 22.0951C144.469 21.9032 144.661 21.7232 144.901 21.5552C145.141 21.4112 145.417 21.3392 145.729 21.3392C146.113 21.3392 146.425 21.4352 146.665 21.6272C146.905 21.8432 147.097 22.0831 147.241 22.3471C147.385 22.0591 147.601 21.8192 147.889 21.6272C148.177 21.4112 148.501 21.3032 148.861 21.3032C149.173 21.3032 149.437 21.3632 149.653 21.4832C149.869 21.6032 150.049 21.7472 150.193 21.9152C150.361 22.1071 150.481 22.3351 150.553 22.5991C150.649 22.8391 150.697 23.103 150.697 23.391V26.0907C150.697 26.1627 150.673 26.2227 150.625 26.2707C150.577 26.3187 150.517 26.3427 150.445 26.3427H150.049C149.881 26.3427 149.797 26.2587 149.797 26.0907V23.391C149.797 23.055 149.713 22.7671 149.545 22.5271C149.377 22.2871 149.113 22.1671 148.753 22.1671C148.609 22.1671 148.453 22.2031 148.285 22.2751C148.141 22.3231 148.009 22.4071 147.889 22.5271C147.769 22.6231 147.673 22.7431 147.601 22.887C147.529 23.055 147.493 23.223 147.493 23.391V26.0907C147.493 26.2587 147.409 26.3427 147.241 26.3427H146.845C146.773 26.3427 146.713 26.3187 146.665 26.2707C146.641 26.2227 146.629 26.1627 146.629 26.0907V23.391C146.629 23.031 146.545 22.7431 146.377 22.5271C146.209 22.2871 145.945 22.1671 145.585 22.1671C145.417 22.1671 145.261 22.2031 145.117 22.2751C144.949 22.3231 144.805 22.4071 144.685 22.5271C144.589 22.6231 144.505 22.7431 144.433 22.887C144.361 23.031 144.325 23.187 144.325 23.355V26.1267C144.325 26.2707 144.253 26.3427 144.109 26.3427H143.677C143.533 26.3427 143.461 26.2707 143.461 26.1267V21.6632C143.461 21.4952 143.533 21.4112 143.677 21.4112H144.073C144.217 21.4112 144.289 21.4832 144.289 21.6272Z" fill="#FFF5B6"/>
<path d="M152.029 20.0074C152.029 19.8395 152.089 19.6955 152.209 19.5755C152.329 19.4555 152.485 19.3955 152.677 19.3955C152.845 19.3955 152.989 19.4555 153.109 19.5755C153.229 19.6955 153.289 19.8395 153.289 20.0074C153.289 20.1994 153.229 20.3554 153.109 20.4754C152.989 20.5954 152.845 20.6554 152.677 20.6554C152.485 20.6554 152.329 20.5954 152.209 20.4754C152.089 20.3554 152.029 20.1994 152.029 20.0074ZM153.109 21.6273V26.1268C153.109 26.2708 153.025 26.3427 152.857 26.3427H152.461C152.317 26.3427 152.245 26.2708 152.245 26.1268V21.6273C152.245 21.4833 152.317 21.4113 152.461 21.4113H152.857C153.025 21.4113 153.109 21.4833 153.109 21.6273Z" fill="#FFF5B6"/>
<path d="M156.781 23.7511L158.401 26.1269C158.425 26.1989 158.437 26.2468 158.437 26.2708C158.437 26.3188 158.389 26.3428 158.293 26.3428H157.681C157.585 26.3428 157.489 26.2828 157.393 26.1629L156.277 24.3991L155.125 26.1269C155.053 26.2708 154.957 26.3428 154.837 26.3428H154.261C154.141 26.3428 154.081 26.3188 154.081 26.2708C154.081 26.2468 154.093 26.2229 154.117 26.1989C154.117 26.1509 154.129 26.1149 154.153 26.0909L155.773 23.7511L154.261 21.5554C154.261 21.5314 154.261 21.4954 154.261 21.4474C154.261 21.4234 154.297 21.4114 154.369 21.4114H154.981C155.077 21.4114 155.137 21.4234 155.161 21.4474C155.209 21.4714 155.269 21.5314 155.341 21.6274L156.277 23.0672L157.213 21.5914C157.261 21.5194 157.309 21.4714 157.357 21.4474C157.381 21.4234 157.441 21.4114 157.537 21.4114H158.149C158.197 21.4114 158.233 21.4234 158.257 21.4474C158.257 21.4954 158.245 21.5434 158.221 21.5914L156.781 23.7511Z" fill="#FFF5B6"/>
<path fill-rule="evenodd" clip-rule="evenodd" d="M166.105 26.0908V25.6229C165.961 25.8389 165.769 26.0308 165.529 26.1988C165.313 26.3668 165.001 26.4508 164.593 26.4508C164.233 26.4508 163.909 26.3788 163.621 26.2348C163.333 26.1148 163.081 25.9349 162.865 25.6949C162.649 25.4549 162.481 25.1789 162.361 24.867C162.241 24.579 162.181 24.255 162.181 23.8951C162.181 23.5351 162.241 23.1992 162.361 22.8872C162.481 22.5752 162.649 22.2993 162.865 22.0593C163.057 21.8433 163.309 21.6633 163.621 21.5193C163.909 21.3993 164.233 21.3394 164.593 21.3394C164.785 21.3394 164.965 21.3634 165.133 21.4113C165.277 21.4593 165.409 21.5193 165.529 21.5913C165.649 21.6633 165.757 21.7473 165.853 21.8433C165.949 21.9633 166.033 22.0713 166.105 22.1673L166.141 21.6633C166.141 21.5673 166.165 21.5073 166.213 21.4833C166.237 21.4353 166.297 21.4113 166.393 21.4113H166.681C166.753 21.4113 166.813 21.4353 166.861 21.4833C166.909 21.5073 166.933 21.5673 166.933 21.6633V26.1268C166.933 26.1748 166.909 26.2228 166.861 26.2708C166.813 26.3188 166.753 26.3428 166.681 26.3428H166.357C166.189 26.3428 166.105 26.2588 166.105 26.0908ZM163.009 23.8951C163.009 24.1351 163.045 24.351 163.117 24.543C163.189 24.759 163.297 24.939 163.441 25.0829C163.585 25.2509 163.753 25.3829 163.945 25.4789C164.137 25.5509 164.353 25.5869 164.593 25.5869C164.833 25.5869 165.037 25.5509 165.205 25.4789C165.397 25.3829 165.565 25.2629 165.709 25.1189C165.829 24.975 165.925 24.795 165.997 24.579C166.069 24.363 166.105 24.1351 166.105 23.8951C166.105 23.6791 166.069 23.4631 165.997 23.2471C165.925 23.0312 165.829 22.8512 165.709 22.7072C165.589 22.5392 165.433 22.4072 165.241 22.3112C165.049 22.2153 164.833 22.1673 164.593 22.1673C164.353 22.1673 164.125 22.2153 163.909 22.3112C163.717 22.4072 163.561 22.5272 163.441 22.6712C163.297 22.8392 163.189 23.0192 163.117 23.2111C163.045 23.4271 163.009 23.6551 163.009 23.8951Z" fill="#FFF5B6"/>
<path d="M169.381 21.6272L169.417 22.0951C169.489 21.9991 169.597 21.9032 169.741 21.8072C169.861 21.7112 169.993 21.6272 170.137 21.5552C170.305 21.4832 170.473 21.4232 170.641 21.3752C170.809 21.3272 170.965 21.3032 171.109 21.3032C171.397 21.3032 171.661 21.3632 171.901 21.4832C172.141 21.6032 172.345 21.7472 172.513 21.9152C172.657 22.1071 172.777 22.3351 172.873 22.5991C172.969 22.8391 173.017 23.115 173.017 23.427V26.0907C173.017 26.1627 172.993 26.2227 172.945 26.2707C172.897 26.3187 172.837 26.3427 172.765 26.3427H172.333C172.237 26.3427 172.177 26.3187 172.153 26.2707C172.129 26.2227 172.117 26.1627 172.117 26.0907V23.391C172.117 23.223 172.093 23.067 172.045 22.923C171.973 22.7791 171.889 22.6471 171.793 22.5271C171.673 22.4311 171.541 22.3471 171.397 22.2751C171.253 22.2031 171.085 22.1671 170.893 22.1671C170.725 22.1671 170.557 22.2031 170.389 22.2751C170.197 22.3231 170.029 22.3951 169.885 22.4911C169.765 22.5871 169.657 22.7071 169.561 22.851C169.465 22.971 169.417 23.103 169.417 23.247V26.1267C169.417 26.2707 169.345 26.3427 169.201 26.3427H168.805C168.637 26.3427 168.553 26.2707 168.553 26.1267V21.6272C168.553 21.5552 168.577 21.5072 168.625 21.4832C168.673 21.4352 168.721 21.4112 168.769 21.4112H169.165C169.309 21.4112 169.381 21.4832 169.381 21.6272Z" fill="#FFF5B6"/>
<path fill-rule="evenodd" clip-rule="evenodd" d="M178.74 19.1076V26.0908C178.74 26.2588 178.644 26.3428 178.452 26.3428H178.164C177.972 26.3428 177.876 26.2588 177.876 26.0908V25.6589C177.708 25.8988 177.516 26.0908 177.301 26.2348C177.061 26.3788 176.749 26.4508 176.365 26.4508C176.029 26.4508 175.717 26.3788 175.429 26.2348C175.141 26.1148 174.901 25.9348 174.709 25.6949C174.493 25.4549 174.337 25.1789 174.241 24.867C174.121 24.579 174.061 24.255 174.061 23.8951C174.061 23.5351 174.121 23.1991 174.241 22.8872C174.337 22.5752 174.493 22.2992 174.709 22.0593C174.901 21.8433 175.141 21.6633 175.429 21.5193C175.717 21.3993 176.029 21.3393 176.365 21.3393C176.749 21.3393 177.061 21.4113 177.301 21.5553C177.54 21.6993 177.732 21.8913 177.876 22.1312V19.1436C177.876 18.9756 177.972 18.8916 178.164 18.8916H178.452C178.548 18.8916 178.62 18.9156 178.668 18.9636C178.716 18.9876 178.74 19.0356 178.74 19.1076ZM177.948 23.8951C177.948 23.6551 177.912 23.4391 177.84 23.2471C177.768 23.0312 177.672 22.8392 177.553 22.6712C177.433 22.5272 177.277 22.4072 177.085 22.3112C176.893 22.2152 176.677 22.1672 176.437 22.1672C176.197 22.1672 175.981 22.2152 175.789 22.3112C175.597 22.4072 175.441 22.5272 175.321 22.6712C175.201 22.8392 175.105 23.0312 175.033 23.2471C174.985 23.4391 174.961 23.6551 174.961 23.8951C174.961 24.135 174.985 24.351 175.033 24.543C175.105 24.759 175.201 24.9509 175.321 25.1189C175.441 25.2629 175.597 25.3829 175.789 25.4789C175.981 25.5749 176.197 25.6229 176.437 25.6229C176.677 25.6229 176.893 25.5749 177.085 25.4789C177.253 25.3829 177.409 25.2629 177.553 25.1189C177.672 24.9509 177.768 24.759 177.84 24.543C177.912 24.351 177.948 24.135 177.948 23.8951Z" fill="#FFF5B6"/>
<path d="M184.285 21.6272L184.321 22.0951C184.441 21.9032 184.633 21.7232 184.897 21.5552C185.137 21.4112 185.413 21.3392 185.725 21.3392C186.109 21.3392 186.421 21.4352 186.661 21.6272C186.901 21.8432 187.092 22.0831 187.236 22.3471C187.38 22.0591 187.597 21.8192 187.884 21.6272C188.172 21.4112 188.496 21.3032 188.856 21.3032C189.144 21.3032 189.408 21.3632 189.648 21.4832C189.864 21.6032 190.044 21.7472 190.188 21.9152C190.356 22.1071 190.476 22.3351 190.548 22.5991C190.62 22.8391 190.656 23.103 190.656 23.391V26.0907C190.656 26.1627 190.632 26.2227 190.584 26.2707C190.536 26.3187 190.476 26.3427 190.404 26.3427H190.044C189.876 26.3427 189.792 26.2587 189.792 26.0907V23.391C189.792 23.055 189.708 22.7671 189.54 22.5271C189.372 22.2871 189.096 22.1671 188.712 22.1671C188.568 22.1671 188.424 22.2031 188.28 22.2751C188.136 22.3231 188.004 22.4071 187.884 22.5271C187.764 22.6231 187.668 22.7431 187.596 22.887C187.524 23.055 187.488 23.223 187.488 23.391V26.0907C187.488 26.2587 187.404 26.3427 187.236 26.3427H186.841C186.745 26.3427 186.685 26.3187 186.661 26.2707C186.637 26.2227 186.625 26.1627 186.625 26.0907V23.391C186.625 23.031 186.541 22.7431 186.373 22.5271C186.205 22.2871 185.929 22.1671 185.545 22.1671C185.401 22.1671 185.245 22.2031 185.077 22.2751C184.933 22.3231 184.801 22.4071 184.681 22.5271C184.561 22.6231 184.477 22.7431 184.429 22.887C184.357 23.031 184.321 23.187 184.321 23.355V26.1267C184.321 26.2707 184.249 26.3427 184.105 26.3427H183.673C183.529 26.3427 183.457 26.2707 183.457 26.1267V21.6632C183.457 21.4952 183.529 21.4112 183.673 21.4112H184.069C184.189 21.4112 184.261 21.4832 184.285 21.6272Z" fill="#FFF5B6"/>
<path fill-rule="evenodd" clip-rule="evenodd" d="M195.732 26.0908V25.6229C195.588 25.8389 195.396 26.0308 195.156 26.1988C194.94 26.3668 194.628 26.4508 194.22 26.4508C193.86 26.4508 193.536 26.3788 193.248 26.2348C192.936 26.1148 192.684 25.9349 192.492 25.6949C192.276 25.4549 192.108 25.1789 191.988 24.867C191.868 24.579 191.808 24.255 191.808 23.8951C191.808 23.5351 191.868 23.1992 191.988 22.8872C192.108 22.5752 192.264 22.2993 192.456 22.0593C192.672 21.8433 192.924 21.6633 193.212 21.5193C193.524 21.3993 193.86 21.3394 194.22 21.3394C194.412 21.3394 194.592 21.3634 194.76 21.4113C194.904 21.4593 195.036 21.5193 195.156 21.5913C195.276 21.6633 195.384 21.7473 195.48 21.8433C195.576 21.9633 195.66 22.0713 195.732 22.1673L195.768 21.6633C195.768 21.5673 195.78 21.5073 195.804 21.4833C195.852 21.4353 195.912 21.4113 195.984 21.4113H196.308C196.38 21.4113 196.44 21.4353 196.488 21.4833C196.536 21.5073 196.56 21.5673 196.56 21.6633V26.1268C196.56 26.1748 196.536 26.2228 196.488 26.2708C196.44 26.3188 196.38 26.3428 196.308 26.3428H195.984C195.816 26.3428 195.732 26.2588 195.732 26.0908ZM192.636 23.8951C192.636 24.1351 192.672 24.351 192.744 24.543C192.816 24.759 192.924 24.939 193.068 25.0829C193.212 25.2509 193.38 25.3829 193.572 25.4789C193.764 25.5509 193.98 25.5869 194.22 25.5869C194.46 25.5869 194.664 25.5509 194.832 25.4789C195.024 25.3829 195.192 25.2629 195.336 25.1189C195.456 24.975 195.552 24.795 195.624 24.579C195.696 24.363 195.732 24.1351 195.732 23.8951C195.732 23.6791 195.696 23.4631 195.624 23.2471C195.552 23.0312 195.456 22.8512 195.336 22.7072C195.192 22.5392 195.036 22.4072 194.868 22.3112C194.676 22.2153 194.46 22.1673 194.22 22.1673C193.956 22.1673 193.728 22.2153 193.536 22.3112C193.344 22.4072 193.188 22.5272 193.068 22.6712C192.924 22.8392 192.816 23.0192 192.744 23.2111C192.672 23.4271 192.636 23.6551 192.636 23.8951Z" fill="#FFF5B6"/>
<path d="M199.908 26.4148C199.884 26.4148 199.86 26.4148 199.836 26.4148C199.812 26.4148 199.776 26.4148 199.728 26.4148C199.584 26.4148 199.428 26.4028 199.26 26.3788C199.116 26.3548 198.984 26.3068 198.864 26.2348C198.744 26.1388 198.648 26.0188 198.576 25.8748C198.504 25.7068 198.468 25.4909 198.468 25.2269V22.2032H197.892C197.796 22.2032 197.724 22.1912 197.676 22.1672C197.652 22.1432 197.64 22.0832 197.64 21.9872V21.6273C197.64 21.5313 197.652 21.4713 197.676 21.4473C197.724 21.4233 197.796 21.4113 197.892 21.4113H198.468V19.9715C198.468 19.8755 198.528 19.8155 198.648 19.7915L199.188 19.7195C199.26 19.7195 199.308 19.7435 199.332 19.7915C199.356 19.8395 199.368 19.8995 199.368 19.9715V21.4113H200.124C200.268 21.4113 200.34 21.4833 200.34 21.6273V21.9512C200.34 22.1192 200.268 22.2032 200.124 22.2032H199.368V24.9029C199.368 25.0709 199.38 25.2029 199.404 25.2989C199.404 25.3949 199.428 25.4669 199.476 25.5149C199.524 25.5628 199.584 25.5868 199.656 25.5868C199.728 25.5868 199.812 25.5868 199.908 25.5868C200.076 25.5868 200.16 25.6708 200.16 25.8388V26.1628C200.16 26.3068 200.076 26.3908 199.908 26.4148Z" fill="#FFF5B6"/>
<path d="M203.436 25.6587C203.628 25.6587 203.832 25.6108 204.048 25.5148C204.24 25.4428 204.42 25.3348 204.588 25.1908C204.636 25.1428 204.696 25.1188 204.768 25.1188C204.816 25.1188 204.852 25.1428 204.876 25.1908L205.164 25.5868C205.188 25.6347 205.2 25.6707 205.2 25.6947C205.2 25.7427 205.176 25.7787 205.128 25.8027C205.08 25.8507 205.044 25.8747 205.02 25.8747C204.804 26.0427 204.564 26.1867 204.3 26.3067C204.012 26.4027 203.724 26.4507 203.436 26.4507C203.076 26.4507 202.74 26.3907 202.428 26.2707C202.116 26.1267 201.84 25.9347 201.6 25.6947C201.36 25.4788 201.18 25.2148 201.06 24.9028C200.916 24.5909 200.844 24.2549 200.844 23.8949C200.844 23.535 200.916 23.199 201.06 22.887C201.18 22.5751 201.36 22.2991 201.6 22.0591C201.84 21.8192 202.116 21.6392 202.428 21.5192C202.74 21.3752 203.076 21.3032 203.436 21.3032C203.7 21.3032 203.952 21.3392 204.192 21.4112C204.456 21.5072 204.72 21.6512 204.984 21.8432C205.08 21.9152 205.128 21.9751 205.128 22.0231C205.128 22.0471 205.128 22.0711 205.128 22.0951C205.128 22.1191 205.116 22.1311 205.092 22.1311L204.84 22.5631C204.816 22.6111 204.768 22.6351 204.696 22.6351C204.648 22.6351 204.6 22.5991 204.552 22.5271C204.384 22.4071 204.204 22.3111 204.012 22.2391C203.844 22.1431 203.652 22.0951 203.436 22.0951C203.196 22.0951 202.968 22.1431 202.752 22.2391C202.536 22.3351 202.344 22.4671 202.176 22.6351C202.008 22.8031 201.876 22.995 201.78 23.211C201.708 23.427 201.672 23.655 201.672 23.8949C201.672 24.1349 201.708 24.3629 201.78 24.5789C201.876 24.7948 202.008 24.9748 202.176 25.1188C202.344 25.2868 202.536 25.4188 202.752 25.5148C202.968 25.6108 203.196 25.6587 203.436 25.6587Z" fill="#FFF5B6"/>
<path d="M207.252 19.1076V22.0953C207.348 21.9993 207.456 21.9033 207.576 21.8073C207.696 21.7113 207.84 21.6273 208.008 21.5553C208.152 21.4833 208.308 21.4233 208.476 21.3753C208.644 21.3273 208.8 21.3033 208.944 21.3033C209.232 21.3033 209.496 21.3633 209.736 21.4833C209.976 21.6033 210.18 21.7473 210.348 21.9153C210.516 22.1073 210.636 22.3352 210.708 22.5992C210.804 22.8392 210.852 23.1151 210.852 23.4271V26.0908C210.852 26.1628 210.828 26.2228 210.78 26.2708C210.732 26.3188 210.672 26.3428 210.6 26.3428H210.204C210.108 26.3428 210.048 26.3188 210.024 26.2708C209.976 26.2228 209.952 26.1628 209.952 26.0908V23.3911C209.952 23.2231 209.94 23.0671 209.916 22.9232C209.868 22.7792 209.796 22.6472 209.7 22.5272C209.604 22.4312 209.484 22.3472 209.34 22.2752C209.172 22.2032 208.992 22.1672 208.8 22.1672C208.632 22.1672 208.464 22.2032 208.296 22.2752C208.104 22.3232 207.936 22.4072 207.792 22.5272C207.648 22.6232 207.528 22.7432 207.432 22.8872C207.336 23.0312 207.276 23.1871 207.252 23.3551V26.1268C207.252 26.2708 207.18 26.3428 207.036 26.3428H206.64C206.472 26.3428 206.388 26.2708 206.388 26.1268V19.1076C206.388 18.9636 206.472 18.8916 206.64 18.8916H207.036C207.108 18.8916 207.168 18.9036 207.216 18.9276C207.24 18.9756 207.252 19.0356 207.252 19.1076Z" fill="#FFF5B6"/>
<path d="M124.453 81.5607C124.549 81.8247 124.657 82.1006 124.777 82.3886C124.897 82.7006 125.005 83.0005 125.101 83.2885C125.221 83.5765 125.341 83.8645 125.461 84.1524C125.581 84.4404 125.689 84.6924 125.785 84.9083C125.905 84.5964 126.049 84.2484 126.217 83.8645C126.361 83.4805 126.517 83.0845 126.685 82.6766L127.117 81.5247C127.165 81.4047 127.261 81.3447 127.405 81.3447H127.801C127.969 81.3447 128.053 81.4047 128.053 81.5247C128.053 81.5247 128.053 81.5487 128.053 81.5967C128.029 81.6207 128.017 81.6327 128.017 81.6327C127.945 81.8007 127.873 81.9687 127.801 82.1366C127.753 82.3046 127.693 82.4606 127.621 82.6046C127.693 82.8686 127.777 83.1205 127.873 83.3605C127.993 83.6005 128.089 83.8405 128.161 84.0804L128.521 84.9083C128.617 84.6924 128.725 84.4404 128.845 84.1524C128.965 83.8645 129.073 83.5765 129.169 83.2885C129.289 83.0005 129.409 82.7006 129.529 82.3886C129.649 82.0766 129.769 81.7887 129.889 81.5247C129.889 81.4767 129.913 81.4287 129.961 81.3807C130.009 81.3567 130.069 81.3447 130.141 81.3447H130.573C130.741 81.3447 130.825 81.4047 130.825 81.5247C130.825 81.5247 130.813 81.5487 130.789 81.5967C130.789 81.6207 130.789 81.6327 130.789 81.6327L128.953 86.0962C128.953 86.0722 128.929 86.0962 128.881 86.1682C128.857 86.2402 128.785 86.2762 128.665 86.2762H128.377C128.305 86.2762 128.245 86.2522 128.197 86.2042C128.173 86.1562 128.149 86.1202 128.125 86.0962L127.153 83.7205L126.181 86.0962C126.181 86.0962 126.169 86.1202 126.145 86.1682C126.121 86.2402 126.061 86.2762 125.965 86.2762H125.929H125.641C125.545 86.2762 125.485 86.2522 125.461 86.2042C125.413 86.1562 125.389 86.1202 125.389 86.0962L123.553 81.6327C123.553 81.6327 123.541 81.6207 123.517 81.5967C123.517 81.5727 123.517 81.5367 123.517 81.4887C123.517 81.3927 123.589 81.3447 123.733 81.3447H124.165C124.237 81.3447 124.297 81.3687 124.345 81.4167C124.393 81.4407 124.429 81.4887 124.453 81.5607Z" fill="#FFF5B6"/>
<path fill-rule="evenodd" clip-rule="evenodd" d="M133.345 86.3842C133.009 86.3842 132.697 86.3243 132.409 86.2043C132.121 86.0603 131.869 85.8683 131.653 85.6283C131.437 85.4124 131.269 85.1484 131.149 84.8364C131.029 84.5245 130.969 84.1885 130.969 83.8285C130.969 83.4686 131.029 83.1326 131.149 82.8206C131.269 82.5087 131.437 82.2327 131.653 81.9927C131.869 81.7528 132.121 81.5728 132.409 81.4528C132.697 81.3088 133.009 81.2368 133.345 81.2368C133.633 81.2368 133.921 81.2968 134.209 81.4168C134.473 81.5608 134.701 81.7288 134.893 81.9207C135.109 82.1367 135.277 82.3887 135.397 82.6767C135.517 82.9646 135.577 83.2766 135.577 83.6126V83.7205C135.577 83.9365 135.517 84.0685 135.397 84.1165C135.253 84.1645 135.097 84.1885 134.929 84.1885H131.833C131.905 84.5964 132.073 84.9204 132.337 85.1604C132.625 85.4244 132.961 85.5563 133.345 85.5563C133.537 85.5563 133.729 85.5203 133.921 85.4483C134.137 85.3524 134.329 85.2444 134.497 85.1244C134.545 85.0764 134.605 85.0524 134.677 85.0524C134.725 85.0524 134.761 85.0764 134.785 85.1244L135.073 85.5203C135.097 85.5443 135.109 85.5803 135.109 85.6283C135.085 85.6763 135.061 85.7123 135.037 85.7363C134.989 85.7843 134.953 85.8083 134.929 85.8083C134.689 85.9763 134.449 86.1203 134.209 86.2403C133.945 86.3363 133.657 86.3842 133.345 86.3842ZM131.869 83.4686H134.713C134.689 83.2766 134.629 83.0966 134.533 82.9286C134.461 82.7606 134.353 82.6167 134.209 82.4967C134.089 82.3767 133.957 82.2807 133.813 82.2087C133.645 82.1367 133.477 82.1007 133.309 82.1007C133.141 82.1007 132.973 82.1367 132.805 82.2087C132.661 82.2807 132.529 82.3767 132.409 82.4967C132.289 82.6167 132.181 82.7606 132.085 82.9286C131.989 83.0966 131.917 83.2766 131.869 83.4686Z" fill="#FFF5B6"/>
<path d="M140.653 81.5968L140.689 82.0287C140.809 81.8367 140.989 81.6568 141.229 81.4888C141.493 81.3448 141.781 81.2728 142.093 81.2728C142.477 81.2728 142.789 81.3808 143.029 81.5968C143.269 81.7888 143.461 82.0167 143.605 82.2807C143.749 81.9927 143.965 81.7528 144.253 81.5608C144.541 81.3448 144.865 81.2368 145.225 81.2368C145.513 81.2368 145.765 81.2968 145.981 81.4168C146.221 81.5368 146.413 81.6928 146.557 81.8847C146.725 82.0767 146.845 82.2927 146.917 82.5327C146.989 82.7727 147.025 83.0366 147.025 83.3246V86.0243C147.025 86.0963 147.001 86.1563 146.953 86.2043C146.905 86.2523 146.845 86.2763 146.773 86.2763H146.413C146.245 86.2763 146.161 86.1923 146.161 86.0243V83.3246C146.161 82.9886 146.077 82.7007 145.909 82.4607C145.741 82.2207 145.465 82.1007 145.081 82.1007C144.937 82.1007 144.793 82.1367 144.649 82.2087C144.505 82.2567 144.373 82.3407 144.253 82.4607C144.133 82.5567 144.037 82.6887 143.965 82.8566C143.893 83.0006 143.857 83.1566 143.857 83.3246V86.0243C143.857 86.1923 143.773 86.2763 143.605 86.2763H143.209C143.113 86.2763 143.053 86.2523 143.029 86.2043C143.005 86.1803 142.993 86.1203 142.993 86.0243V83.3246C142.993 82.9646 142.909 82.6767 142.741 82.4607C142.573 82.2207 142.297 82.1007 141.913 82.1007C141.769 82.1007 141.613 82.1367 141.445 82.2087C141.301 82.2567 141.169 82.3407 141.049 82.4607C140.929 82.5567 140.845 82.6767 140.797 82.8206C140.725 82.9646 140.689 83.1206 140.689 83.2886V86.0603C140.689 86.2043 140.617 86.2763 140.473 86.2763H140.041C139.897 86.2763 139.825 86.2043 139.825 86.0603V81.5968C139.825 81.4528 139.897 81.3808 140.041 81.3808H140.401C140.545 81.3808 140.629 81.4528 140.653 81.5968Z" fill="#FFF5B6"/>
<path fill-rule="evenodd" clip-rule="evenodd" d="M152.101 86.0242V85.5562C151.933 85.7722 151.741 85.9642 151.525 86.1322C151.309 86.3002 150.985 86.3841 150.553 86.3841C150.217 86.3841 149.905 86.3121 149.617 86.1682C149.305 86.0482 149.053 85.8682 148.861 85.6282C148.645 85.4122 148.477 85.1483 148.357 84.8363C148.237 84.5243 148.177 84.1884 148.177 83.8284C148.177 83.4685 148.237 83.1325 148.357 82.8205C148.477 82.5086 148.633 82.2446 148.825 82.0286C149.041 81.7886 149.293 81.5967 149.581 81.4527C149.893 81.3327 150.217 81.2727 150.553 81.2727C150.769 81.2727 150.961 81.2967 151.129 81.3447C151.273 81.3927 151.405 81.4527 151.525 81.5247C151.645 81.5967 151.753 81.6807 151.849 81.7766C151.945 81.8966 152.029 82.0046 152.101 82.1006L152.137 81.5967C152.137 81.5247 152.149 81.4647 152.173 81.4167C152.221 81.3687 152.281 81.3447 152.353 81.3447H152.677C152.749 81.3447 152.809 81.3687 152.857 81.4167C152.905 81.4647 152.929 81.5247 152.929 81.5967V86.0602C152.929 86.1322 152.905 86.1802 152.857 86.2042C152.809 86.2522 152.749 86.2762 152.677 86.2762H152.353C152.185 86.2762 152.101 86.1922 152.101 86.0242ZM149.005 83.8284C149.005 84.0684 149.041 84.2844 149.113 84.4764C149.185 84.6923 149.293 84.8843 149.437 85.0523C149.581 85.1963 149.749 85.3163 149.941 85.4123C150.133 85.5082 150.337 85.5562 150.553 85.5562C150.817 85.5562 151.033 85.5082 151.201 85.4123C151.393 85.3163 151.561 85.1963 151.705 85.0523C151.825 84.9083 151.921 84.7283 151.993 84.5124C152.065 84.3204 152.101 84.1044 152.101 83.8644C152.101 83.6244 152.065 83.3965 151.993 83.1805C151.921 82.9645 151.825 82.7845 151.705 82.6406C151.561 82.4726 151.405 82.3406 151.237 82.2446C151.045 82.1486 150.817 82.1006 150.553 82.1006C150.313 82.1006 150.097 82.1486 149.905 82.2446C149.713 82.3406 149.557 82.4606 149.437 82.6046C149.293 82.7725 149.185 82.9645 149.113 83.1805C149.041 83.3725 149.005 83.5884 149.005 83.8284Z" fill="#FFF5B6"/>
<path d="M154.549 86.0602V79.0409C154.549 78.9929 154.573 78.9449 154.621 78.8969C154.645 78.849 154.693 78.825 154.765 78.825H155.197C155.245 78.825 155.293 78.849 155.341 78.8969C155.389 78.9209 155.413 78.9689 155.413 79.0409V83.2885L157.141 81.4887C157.189 81.4407 157.225 81.4047 157.249 81.3807C157.297 81.3567 157.357 81.3447 157.429 81.3447H158.113C158.209 81.3447 158.257 81.3807 158.257 81.4527C158.257 81.5007 158.257 81.5247 158.257 81.5247C158.257 81.5487 158.233 81.5847 158.185 81.6327L156.673 83.1805L158.977 85.9882C159.025 86.0602 159.049 86.1202 159.049 86.1681C159.049 86.2401 158.989 86.2761 158.869 86.2761H158.185C158.137 86.2761 158.089 86.2641 158.041 86.2401C157.993 86.2161 157.945 86.1682 157.897 86.0962L156.061 83.7924L155.413 84.4763V86.0602C155.413 86.2041 155.341 86.2761 155.197 86.2761H154.765C154.621 86.2761 154.549 86.2041 154.549 86.0602Z" fill="#FFF5B6"/>
<path fill-rule="evenodd" clip-rule="evenodd" d="M161.893 86.3842C161.557 86.3842 161.245 86.3243 160.957 86.2043C160.669 86.0603 160.417 85.8683 160.201 85.6283C159.985 85.4124 159.817 85.1484 159.697 84.8364C159.577 84.5245 159.517 84.1885 159.517 83.8285C159.517 83.4686 159.577 83.1326 159.697 82.8206C159.817 82.5087 159.985 82.2327 160.201 81.9927C160.417 81.7528 160.669 81.5728 160.957 81.4528C161.245 81.3088 161.557 81.2368 161.893 81.2368C162.181 81.2368 162.469 81.2968 162.757 81.4168C163.021 81.5608 163.261 81.7288 163.477 81.9207C163.669 82.1367 163.825 82.3887 163.945 82.6767C164.065 82.9646 164.125 83.2766 164.125 83.6126V83.7205C164.125 83.9365 164.065 84.0685 163.945 84.1165C163.801 84.1645 163.645 84.1885 163.477 84.1885H160.381C160.453 84.5964 160.621 84.9204 160.885 85.1604C161.173 85.4244 161.509 85.5563 161.893 85.5563C162.085 85.5563 162.277 85.5203 162.469 85.4483C162.685 85.3524 162.877 85.2444 163.045 85.1244C163.093 85.0764 163.153 85.0524 163.225 85.0524C163.273 85.0524 163.309 85.0764 163.333 85.1244L163.621 85.5203C163.645 85.5443 163.657 85.5803 163.657 85.6283C163.633 85.6763 163.609 85.7123 163.585 85.7363C163.537 85.7843 163.501 85.8083 163.477 85.8083C163.237 85.9763 162.997 86.1203 162.757 86.2403C162.493 86.3363 162.205 86.3842 161.893 86.3842ZM160.417 83.4686H163.261C163.237 83.2766 163.177 83.0966 163.081 82.9286C163.009 82.7606 162.901 82.6167 162.757 82.4967C162.637 82.3767 162.505 82.2807 162.361 82.2087C162.193 82.1367 162.025 82.1007 161.857 82.1007C161.689 82.1007 161.521 82.1367 161.353 82.2087C161.209 82.2807 161.077 82.3767 160.957 82.4967C160.837 82.6167 160.729 82.7606 160.633 82.9286C160.537 83.0966 160.465 83.2766 160.417 83.4686Z" fill="#FFF5B6"/>
<path d="M168.157 79.9768C168.157 79.7848 168.217 79.6288 168.337 79.5088C168.481 79.3889 168.637 79.3289 168.805 79.3289C168.973 79.3289 169.117 79.3889 169.237 79.5088C169.357 79.6288 169.417 79.7848 169.417 79.9768C169.417 80.1448 169.357 80.2888 169.237 80.4087C169.117 80.5287 168.973 80.5887 168.805 80.5887C168.637 80.5887 168.481 80.5287 168.337 80.4087C168.217 80.2888 168.157 80.1448 168.157 79.9768ZM169.237 81.5606V86.0601C169.237 86.2041 169.165 86.2761 169.021 86.2761H168.589C168.445 86.2761 168.373 86.2041 168.373 86.0601V81.5606C168.373 81.4166 168.445 81.3446 168.589 81.3446H169.021C169.165 81.3446 169.237 81.4166 169.237 81.5606Z" fill="#FFF5B6"/>
<path d="M172.585 86.3483C172.561 86.3483 172.537 86.3483 172.513 86.3483C172.489 86.3483 172.453 86.3483 172.405 86.3483C172.261 86.3483 172.105 86.3363 171.937 86.3123C171.793 86.3123 171.661 86.2643 171.541 86.1684C171.421 86.0964 171.325 85.9764 171.253 85.8084C171.181 85.6404 171.145 85.4244 171.145 85.1605V82.1368H170.569C170.473 82.1368 170.401 82.1248 170.353 82.1008C170.329 82.0768 170.317 82.0168 170.317 81.9208V81.5609C170.317 81.4649 170.329 81.4049 170.353 81.3809C170.401 81.3569 170.473 81.3449 170.569 81.3449H171.145V79.941C171.145 79.8211 171.205 79.7491 171.325 79.7251L171.865 79.6531C171.937 79.6531 171.985 79.6771 172.009 79.7251C172.033 79.7971 172.045 79.857 172.045 79.905V81.3449H172.801C172.945 81.3449 173.017 81.4169 173.017 81.5609V81.9208C173.017 82.0648 172.945 82.1368 172.801 82.1368H172.045V84.8365C172.045 85.0045 172.057 85.1365 172.081 85.2325C172.081 85.3285 172.105 85.4004 172.153 85.4484C172.201 85.4964 172.261 85.5204 172.333 85.5204C172.381 85.5444 172.465 85.5564 172.585 85.5564C172.753 85.5564 172.837 85.6404 172.837 85.8084V86.0964C172.837 86.2644 172.753 86.3483 172.585 86.3483Z" fill="#FFF5B6"/>
<path d="M178.165 79.0409V82.0286C178.237 81.9326 178.333 81.8366 178.453 81.7406C178.597 81.6446 178.741 81.5606 178.885 81.4887C179.053 81.4167 179.221 81.3567 179.389 81.3087C179.557 81.2607 179.712 81.2367 179.856 81.2367C180.144 81.2367 180.408 81.2967 180.648 81.4167C180.864 81.5367 181.056 81.6806 181.224 81.8486C181.392 82.0406 181.524 82.2686 181.62 82.5326C181.692 82.7725 181.728 83.0485 181.728 83.3605V86.0242C181.728 86.0962 181.704 86.1561 181.656 86.2041C181.608 86.2521 181.56 86.2761 181.512 86.2761H181.08C180.984 86.2761 180.924 86.2521 180.9 86.2041C180.876 86.1801 180.864 86.1202 180.864 86.0242V83.3605C180.864 83.1925 180.84 83.0245 180.792 82.8565C180.744 82.7125 180.672 82.5805 180.576 82.4606C180.48 82.3646 180.36 82.2806 180.216 82.2086C180.072 82.1366 179.892 82.1006 179.676 82.1006C179.508 82.1006 179.341 82.1366 179.173 82.2086C179.005 82.2566 178.849 82.3406 178.705 82.4606C178.561 82.5565 178.429 82.6765 178.309 82.8205C178.213 82.9645 178.165 83.1205 178.165 83.2885V86.0602C178.165 86.2041 178.093 86.2761 177.949 86.2761H177.517C177.373 86.2761 177.301 86.2041 177.301 86.0602V79.0409C177.301 78.8969 177.373 78.825 177.517 78.825H177.913C177.985 78.825 178.045 78.849 178.093 78.8969C178.141 78.9209 178.165 78.9689 178.165 79.0409Z" fill="#FFF5B6"/>
<path fill-rule="evenodd" clip-rule="evenodd" d="M186.732 86.0242V85.5562C186.588 85.7722 186.396 85.9642 186.156 86.1322C185.94 86.3002 185.628 86.3841 185.22 86.3841C184.86 86.3841 184.536 86.3121 184.248 86.1682C183.96 86.0482 183.708 85.8682 183.492 85.6282C183.276 85.4122 183.108 85.1483 182.988 84.8363C182.868 84.5243 182.808 84.1884 182.808 83.8284C182.808 83.4685 182.868 83.1325 182.988 82.8205C183.108 82.5086 183.276 82.2446 183.492 82.0286C183.708 81.7886 183.96 81.5967 184.248 81.4527C184.536 81.3327 184.86 81.2727 185.22 81.2727C185.436 81.2727 185.616 81.2967 185.76 81.3447C185.904 81.3927 186.036 81.4527 186.156 81.5247C186.276 81.5967 186.384 81.6807 186.48 81.7766C186.576 81.8966 186.66 82.0046 186.732 82.1006L186.768 81.5967C186.768 81.5247 186.792 81.4647 186.84 81.4167C186.864 81.3687 186.924 81.3447 187.02 81.3447H187.308C187.38 81.3447 187.44 81.3687 187.488 81.4167C187.536 81.4647 187.56 81.5247 187.56 81.5967V86.0602C187.56 86.1322 187.536 86.1802 187.488 86.2042C187.44 86.2522 187.38 86.2762 187.308 86.2762H186.984C186.816 86.2762 186.732 86.1922 186.732 86.0242ZM183.636 83.8284C183.636 84.0684 183.672 84.2844 183.744 84.4764C183.816 84.6923 183.924 84.8843 184.068 85.0523C184.212 85.1963 184.38 85.3163 184.572 85.4123C184.764 85.5082 184.98 85.5562 185.22 85.5562C185.46 85.5562 185.676 85.5082 185.868 85.4123C186.06 85.3163 186.216 85.1963 186.336 85.0523C186.456 84.9083 186.552 84.7283 186.624 84.5124C186.696 84.3204 186.732 84.1044 186.732 83.8644C186.732 83.6244 186.696 83.3965 186.624 83.1805C186.552 82.9645 186.456 82.7845 186.336 82.6406C186.216 82.4726 186.06 82.3406 185.868 82.2446C185.676 82.1486 185.46 82.1006 185.22 82.1006C184.98 82.1006 184.764 82.1486 184.572 82.2446C184.38 82.3406 184.212 82.4606 184.068 82.6046C183.924 82.7725 183.816 82.9645 183.744 83.1805C183.672 83.3725 183.636 83.5884 183.636 83.8284Z" fill="#FFF5B6"/>
<path fill-rule="evenodd" clip-rule="evenodd" d="M189.18 87.9681V81.5968C189.18 81.4288 189.276 81.3448 189.468 81.3448H189.72C189.912 81.3448 190.008 81.4288 190.008 81.5968L190.08 82.0287C190.224 81.8127 190.428 81.6328 190.692 81.4888C190.956 81.3208 191.244 81.2368 191.556 81.2368C191.868 81.2368 192.168 81.3088 192.456 81.4528C192.744 81.5728 192.984 81.7528 193.176 81.9927C193.392 82.2327 193.56 82.5087 193.68 82.8206C193.8 83.1326 193.86 83.4566 193.86 83.7925C193.86 84.1525 193.8 84.4885 193.68 84.8004C193.56 85.1124 193.392 85.3884 193.176 85.6283C192.984 85.8443 192.744 86.0243 192.456 86.1683C192.168 86.2883 191.868 86.3483 191.556 86.3483C191.22 86.3483 190.932 86.2763 190.692 86.1323C190.428 86.0123 190.224 85.8323 190.08 85.5923V87.9681C190.08 88.1361 189.984 88.2201 189.792 88.2201H189.504C189.408 88.2201 189.336 88.196 189.288 88.1481C189.216 88.1001 189.18 88.0401 189.18 87.9681ZM190.08 83.8285C190.08 84.0685 190.116 84.2845 190.188 84.4765C190.26 84.6924 190.356 84.8724 190.476 85.0164C190.62 85.1844 190.776 85.3164 190.944 85.4124C191.136 85.4844 191.328 85.5203 191.52 85.5203C191.712 85.5203 191.904 85.4844 192.096 85.4124C192.264 85.3164 192.408 85.1844 192.528 85.0164C192.672 84.8724 192.78 84.6924 192.852 84.4765C192.924 84.2845 192.96 84.0685 192.96 83.8285C192.96 83.5886 192.924 83.3606 192.852 83.1446C192.78 82.9526 192.672 82.7726 192.528 82.6047C192.408 82.4367 192.264 82.3167 192.096 82.2447C191.904 82.1487 191.712 82.1007 191.52 82.1007C191.328 82.1007 191.136 82.1487 190.944 82.2447C190.776 82.3167 190.62 82.4367 190.476 82.6047C190.356 82.7726 190.26 82.9526 190.188 83.1446C190.116 83.3606 190.08 83.5766 190.08 83.7925V83.8285Z" fill="#FFF5B6"/>
<path fill-rule="evenodd" clip-rule="evenodd" d="M195.12 87.9681V81.5968C195.12 81.4288 195.216 81.3448 195.408 81.3448H195.66C195.852 81.3448 195.948 81.4288 195.948 81.5968L195.984 82.0287C196.152 81.8127 196.368 81.6328 196.632 81.4888C196.896 81.3208 197.184 81.2368 197.496 81.2368C197.808 81.2368 198.108 81.3088 198.396 81.4528C198.684 81.5728 198.924 81.7528 199.116 81.9927C199.332 82.2327 199.5 82.5087 199.62 82.8206C199.74 83.1326 199.8 83.4566 199.8 83.7925C199.8 84.1525 199.74 84.4885 199.62 84.8004C199.5 85.1124 199.332 85.3884 199.116 85.6283C198.924 85.8443 198.684 86.0243 198.396 86.1683C198.108 86.2883 197.808 86.3483 197.496 86.3483C197.16 86.3483 196.86 86.2763 196.596 86.1323C196.356 86.0123 196.164 85.8323 196.02 85.5923V87.9681C196.02 88.1361 195.924 88.2201 195.732 88.2201H195.408C195.336 88.2201 195.264 88.196 195.192 88.1481C195.144 88.1001 195.12 88.0401 195.12 87.9681ZM195.984 83.8285C195.984 84.0685 196.032 84.2845 196.128 84.4765C196.2 84.6924 196.296 84.8724 196.416 85.0164C196.56 85.1844 196.716 85.3164 196.884 85.4124C197.052 85.4844 197.244 85.5203 197.46 85.5203C197.652 85.5203 197.832 85.4844 198 85.4124C198.192 85.3164 198.348 85.1844 198.468 85.0164C198.612 84.8724 198.72 84.6924 198.792 84.4765C198.864 84.2845 198.9 84.0685 198.9 83.8285C198.9 83.5886 198.864 83.3606 198.792 83.1446C198.72 82.9526 198.612 82.7726 198.468 82.6047C198.348 82.4367 198.192 82.3167 198 82.2447C197.832 82.1487 197.652 82.1007 197.46 82.1007C197.244 82.1007 197.052 82.1487 196.884 82.2447C196.716 82.3167 196.56 82.4367 196.416 82.6047C196.296 82.7726 196.2 82.9526 196.128 83.1446C196.032 83.3606 195.984 83.5766 195.984 83.7925V83.8285Z" fill="#FFF5B6"/>
<path fill-rule="evenodd" clip-rule="evenodd" d="M203.076 86.3842C202.74 86.3842 202.428 86.3243 202.14 86.2043C201.852 86.0603 201.6 85.8683 201.384 85.6283C201.168 85.4124 201 85.1484 200.88 84.8364C200.76 84.5245 200.7 84.1885 200.7 83.8285C200.7 83.4686 200.76 83.1326 200.88 82.8206C201 82.5087 201.168 82.2327 201.384 81.9927C201.6 81.7528 201.852 81.5728 202.14 81.4528C202.428 81.3088 202.74 81.2368 203.076 81.2368C203.364 81.2368 203.652 81.2968 203.94 81.4168C204.204 81.5608 204.432 81.7288 204.624 81.9207C204.84 82.1367 205.008 82.3887 205.128 82.6767C205.248 82.9646 205.308 83.2766 205.308 83.6126V83.7205C205.308 83.9365 205.248 84.0685 205.128 84.1165C204.984 84.1645 204.828 84.1885 204.66 84.1885H201.564C201.636 84.5964 201.804 84.9204 202.068 85.1604C202.356 85.4244 202.692 85.5563 203.076 85.5563C203.268 85.5563 203.46 85.5203 203.652 85.4483C203.868 85.3524 204.06 85.2444 204.228 85.1244C204.276 85.0764 204.336 85.0524 204.408 85.0524C204.456 85.0524 204.492 85.0764 204.516 85.1244L204.804 85.5203C204.828 85.5443 204.84 85.5803 204.84 85.6283C204.816 85.6763 204.792 85.7123 204.768 85.7363C204.72 85.7843 204.684 85.8083 204.66 85.8083C204.42 85.9763 204.18 86.1203 203.94 86.2403C203.676 86.3363 203.388 86.3842 203.076 86.3842ZM201.6 83.4686H204.444C204.42 83.2766 204.36 83.0966 204.264 82.9286C204.192 82.7606 204.084 82.6167 203.94 82.4967C203.82 82.3767 203.688 82.2807 203.544 82.2087C203.376 82.1367 203.208 82.1007 203.04 82.1007C202.872 82.1007 202.704 82.1367 202.536 82.2087C202.392 82.2807 202.26 82.3767 202.14 82.4967C202.02 82.6167 201.912 82.7606 201.816 82.9286C201.72 83.0966 201.648 83.2766 201.6 83.4686Z" fill="#FFF5B6"/>
<path d="M207.252 81.5608V82.0287C207.348 81.9327 207.456 81.8367 207.576 81.7408C207.696 81.6448 207.84 81.5608 208.008 81.4888C208.152 81.4168 208.308 81.3568 208.476 81.3088C208.644 81.2608 208.8 81.2368 208.944 81.2368C209.232 81.2368 209.496 81.2968 209.736 81.4168C209.976 81.5368 210.18 81.6808 210.348 81.8487C210.516 82.0407 210.636 82.2687 210.708 82.5327C210.804 82.7727 210.852 83.0486 210.852 83.3606V86.0243C210.852 86.0963 210.828 86.1563 210.78 86.2043C210.732 86.2523 210.672 86.2763 210.6 86.2763H210.204C210.108 86.2763 210.048 86.2523 210.024 86.2043C209.976 86.1803 209.952 86.1203 209.952 86.0243V83.3606C209.952 83.1926 209.928 83.0246 209.88 82.8566C209.832 82.7127 209.748 82.5807 209.628 82.4607C209.532 82.3647 209.412 82.2807 209.268 82.2087C209.1 82.1367 208.92 82.1007 208.728 82.1007C208.56 82.1007 208.392 82.1367 208.224 82.2087C208.056 82.2567 207.9 82.3287 207.756 82.4247C207.612 82.5447 207.492 82.6647 207.396 82.7846C207.3 82.9046 207.252 83.0366 207.252 83.1806V86.0603C207.252 86.2043 207.18 86.2763 207.036 86.2763H206.64C206.472 86.2763 206.388 86.2043 206.388 86.0603V81.5608C206.388 81.4888 206.412 81.4408 206.46 81.4168C206.508 81.3688 206.568 81.3448 206.64 81.3448H207C207.144 81.3448 207.228 81.4168 207.252 81.5608Z" fill="#FFF5B6"/>
</svg>
