<svg width="60" height="24" viewBox="0 0 60 24" fill="none" xmlns="http://www.w3.org/2000/svg">
<path d="M8.26193 22.9333C8.11505 22.9333 8.04164 22.8978 7.9682 22.8978C7.74788 22.7911 7.38065 22.5777 7.34393 21.9021L7.08691 19.4486C7.08691 19.3064 7.23377 19.1286 7.38064 19.1286C7.56424 19.1286 7.71112 19.2352 7.74784 19.413L7.9682 21.831C8.00492 22.151 8.11507 22.2577 8.18851 22.2933C8.26194 22.3288 8.44552 22.2933 8.66583 22.0799L12.2277 18.9152C12.3378 18.8085 12.5581 18.8085 12.6683 18.9152C12.7784 19.0574 12.7785 19.2708 12.6316 19.3775L9.1065 22.5422C8.7393 22.8622 8.44553 22.9333 8.26193 22.9333Z" fill="#FFF5B6"/>
<path d="M21.2974 19.5196C21.175 19.5196 21.0404 19.5078 20.8935 19.484L17.6989 18.7729C17.552 18.7373 17.4418 18.5951 17.4786 18.4173C17.5153 18.2395 17.6622 18.1328 17.8458 18.1684L21.0404 18.8796C21.3342 18.9507 21.5178 18.8796 21.5545 18.844C21.6279 18.7729 21.6279 18.5951 21.5177 18.3462L18.6903 12.4435C18.5802 12.1591 18.5802 11.7679 18.7638 11.519L22.1787 5.93634C22.3256 5.68743 22.3256 5.50963 22.2889 5.43851C22.2522 5.3674 22.0686 5.29631 21.7748 5.33186L15.1285 6.07858C14.8348 6.1497 14.4309 5.9719 14.2106 5.75855L9.80419 0.887074C9.62059 0.673725 9.43696 0.602582 9.36352 0.63814C9.25336 0.63814 9.14322 0.7804 9.1065 1.06487L7.7846 7.42981C7.71116 7.71428 7.4541 8.0343 7.16034 8.17653L1.02817 10.7367C0.734412 10.8434 0.660982 10.9501 0.624262 11.0567C0.624262 11.1279 0.734421 11.2701 0.991459 11.4123L3.52508 12.7991C3.70868 12.9058 3.74541 13.0836 3.67197 13.2258C3.56181 13.368 3.37823 13.4392 3.23135 13.368L0.660973 11.9813C0.0734573 11.6257 0 11.2345 0 11.0212C0 10.8078 0.11015 10.4167 0.771105 10.1322L6.94003 7.57201C7.01347 7.53645 7.12362 7.39425 7.16034 7.28757L8.48224 0.958174C8.5924 0.282566 8.99633 0.104783 9.17993 0.0336661C9.40024 -0.0374505 9.80416 -0.0374679 10.2815 0.460349L14.6879 5.33186C14.7613 5.43854 14.9449 5.47411 15.0551 5.47411L21.7013 4.72735C22.399 4.65623 22.6928 4.9407 22.8029 5.08293C22.9498 5.26072 23.0967 5.65188 22.7295 6.25637L19.3146 11.8035C19.2411 11.9101 19.2411 12.0879 19.2778 12.1946L22.0685 18.0617C22.3623 18.7018 22.1787 19.0574 22.0685 19.2352C21.9584 19.3418 21.7381 19.5196 21.2974 19.5196Z" fill="#FFF5B6"/>
<path fill-rule="evenodd" clip-rule="evenodd" d="M8.29865 9.34996C8.66585 9.42108 9.00858 9.52776 9.32682 9.67C9.64506 9.83593 9.91432 10.0375 10.1346 10.2745C10.3917 10.559 10.5018 10.879 10.5018 11.199C10.5018 11.5902 10.355 11.9102 10.0612 12.1946C9.80418 12.4791 9.40025 12.6214 8.99634 12.6214C8.72706 12.6214 8.50677 12.5739 8.33541 12.4791C8.26197 12.4317 8.17626 12.3843 8.07834 12.3369L7.96821 12.2302C7.96821 12.2302 7.95594 12.2302 7.93146 12.2302C7.83354 12.1591 7.72341 12.1117 7.60101 12.088C7.47861 12.0406 7.34394 12.0168 7.19706 12.0168C6.97674 12.0168 6.80542 12.0406 6.68302 12.088C6.5851 12.1354 6.4994 12.1947 6.42596 12.2658C6.377 12.3606 6.32803 12.4673 6.27907 12.5858C6.25459 12.7754 6.24236 12.9769 6.24236 13.1903V15.7505C6.24236 15.9875 6.25459 16.189 6.27907 16.355C6.32803 16.4972 6.38923 16.6039 6.46267 16.675C6.51163 16.7461 6.5851 16.8054 6.68302 16.8528C6.80542 16.9002 6.97674 16.9239 7.19706 16.9239C7.34394 16.9239 7.47861 16.9121 7.60101 16.8884C7.72341 16.8409 7.83354 16.7817 7.93146 16.7106C7.95594 16.7106 7.96821 16.7106 7.96821 16.7106L8.07834 16.6394C8.17626 16.592 8.26197 16.5446 8.33541 16.4972C8.50677 16.4024 8.72706 16.355 8.99634 16.355C9.40025 16.355 9.80418 16.4972 10.0612 16.7817C10.355 17.0306 10.5018 17.3862 10.5018 17.7418C10.5018 18.0973 10.3917 18.4174 10.1346 18.7018C9.91432 18.9152 9.64506 19.1048 9.32682 19.2707C9.00858 19.413 8.66585 19.5315 8.29865 19.6263C7.90698 19.6974 7.51532 19.733 7.12364 19.733C6.46269 19.733 5.87515 19.65 5.36108 19.4841C4.847 19.2707 4.4186 18.9863 4.07589 18.6307C3.73317 18.2751 3.47614 17.8366 3.30478 17.315C3.1579 16.8409 3.08447 16.3194 3.08447 15.7505V13.1903C3.08447 12.6213 3.1579 12.0998 3.30478 11.6257C3.47614 11.1279 3.73317 10.7012 4.07589 10.3456C4.4186 9.96632 4.847 9.68185 5.36108 9.4922C5.87515 9.30256 6.46269 9.20776 7.12364 9.20776C7.51532 9.20776 7.90698 9.25514 8.29865 9.34996ZM5.61814 10.0611C5.1775 10.2271 4.82254 10.4641 4.55326 10.7723C4.2595 11.0568 4.05144 11.4123 3.92904 11.839C3.80664 12.242 3.74545 12.6925 3.74545 13.1903V15.7505C3.74545 16.272 3.80664 16.7342 3.92904 17.1372C4.05144 17.5639 4.2595 17.9195 4.55326 18.204C4.82254 18.5122 5.1775 18.7374 5.61814 18.8796C6.0343 19.0455 6.53612 19.1285 7.12364 19.1285C7.46636 19.1285 7.80909 19.093 8.15181 19.0219C8.47005 18.9507 8.76377 18.8559 9.03305 18.7374C9.27784 18.5951 9.48595 18.4411 9.65731 18.2751C9.80419 18.1092 9.87762 17.9314 9.87762 17.7418C9.87762 17.5521 9.79196 17.3743 9.6206 17.2084C9.44924 17.0662 9.24113 16.995 8.99634 16.995C8.84946 16.995 8.73929 17.0069 8.66585 17.0306C8.59241 17.078 8.50675 17.1254 8.40883 17.1728L8.29865 17.2439C8.12729 17.3625 7.95597 17.4454 7.78461 17.4928C7.58877 17.5402 7.3929 17.564 7.19706 17.564C6.87882 17.564 6.62179 17.5165 6.42596 17.4217C6.23012 17.3506 6.07103 17.2321 5.94863 17.0661C5.82623 16.9239 5.72829 16.7343 5.65485 16.4972C5.60589 16.2839 5.58143 16.0349 5.58143 15.7505V13.1903C5.58143 12.9295 5.60589 12.6806 5.65485 12.4436C5.72829 12.2302 5.82623 12.0524 5.94863 11.9102C6.07103 11.7442 6.23012 11.6139 6.42596 11.5191C6.62179 11.4479 6.87882 11.4124 7.19706 11.4124C7.3929 11.4124 7.58877 11.4361 7.78461 11.4835C7.95597 11.5309 8.12729 11.602 8.29865 11.6968L8.40883 11.8035C8.50675 11.8509 8.59241 11.8865 8.66585 11.9102C8.73929 11.9576 8.84946 11.9813 8.99634 11.9813C9.24113 11.9813 9.44924 11.9102 9.6206 11.7679C9.79196 11.602 9.87762 11.4124 9.87762 11.199C9.87762 11.0094 9.80419 10.8316 9.65731 10.6656C9.48595 10.4997 9.27784 10.3574 9.03305 10.2389C8.76377 10.1204 8.47005 10.0256 8.15181 9.95448C7.80909 9.88336 7.46636 9.84779 7.12364 9.84779C6.53612 9.84779 6.0343 9.9189 5.61814 10.0611Z" fill="#FFF5B6"/>
<path fill-rule="evenodd" clip-rule="evenodd" d="M15.9731 9.34996C16.3648 9.42108 16.7075 9.52776 17.0013 9.67C17.3195 9.83593 17.5888 10.0375 17.8091 10.2745C18.0661 10.559 18.213 10.879 18.213 11.199C18.213 11.5902 18.0662 11.9102 17.7724 12.1946C17.4786 12.4791 17.1114 12.6214 16.6708 12.6214C16.426 12.6214 16.2179 12.5739 16.0466 12.4791C15.9732 12.4317 15.8874 12.3843 15.7895 12.3369L15.6426 12.2302C15.5202 12.1591 15.3978 12.1117 15.2754 12.088C15.153 12.0406 15.0184 12.0168 14.8715 12.0168C14.6757 12.0168 14.5166 12.0406 14.3942 12.088C14.2718 12.1354 14.1861 12.1947 14.1371 12.2658C14.0637 12.3606 14.0147 12.4673 13.9903 12.5858C13.9413 12.7754 13.9168 12.9769 13.9168 13.1903V15.7505C13.9168 15.9875 13.9413 16.189 13.9903 16.355C14.0147 16.4972 14.0637 16.6039 14.1371 16.675C14.1861 16.7461 14.2718 16.8054 14.3942 16.8528C14.5166 16.9002 14.6757 16.9239 14.8715 16.9239C15.0184 16.9239 15.153 16.9121 15.2754 16.8884C15.3978 16.8409 15.5202 16.7817 15.6426 16.7106L15.7895 16.6394C15.8874 16.592 15.9732 16.5446 16.0466 16.4972C16.2179 16.4024 16.426 16.355 16.6708 16.355C17.1114 16.355 17.4786 16.4972 17.7724 16.7817C18.0662 17.0306 18.213 17.3862 18.213 17.7418C18.213 18.0973 18.0661 18.4174 17.8091 18.7018C17.5888 18.9152 17.3195 19.1048 17.0013 19.2707C16.7075 19.413 16.3648 19.5315 15.9731 19.6263C15.6059 19.6974 15.2143 19.733 14.7981 19.733C14.1372 19.733 13.5619 19.65 13.0723 19.4841C12.5582 19.2707 12.1176 18.9863 11.7504 18.6307C11.4076 18.2751 11.1628 17.8366 11.016 17.315C10.8691 16.8409 10.7957 16.3194 10.7957 15.7505V13.1903C10.7957 12.6213 10.8691 12.0998 11.016 11.6257C11.1628 11.1279 11.4076 10.7012 11.7504 10.3456C12.1176 9.96632 12.5582 9.68185 13.0723 9.4922C13.5619 9.30256 14.1372 9.20776 14.7981 9.20776C15.2143 9.20776 15.6059 9.25514 15.9731 9.34996ZM13.2926 10.0611C12.8765 10.2271 12.5215 10.4641 12.2277 10.7723C11.9585 11.0568 11.7626 11.4123 11.6402 11.839C11.4933 12.242 11.4199 12.6925 11.4199 13.1903V15.7505C11.4199 16.272 11.4933 16.7342 11.6402 17.1372C11.7626 17.5639 11.9585 17.9195 12.2277 18.204C12.5215 18.5122 12.8765 18.7374 13.2926 18.8796C13.7332 19.0455 14.2351 19.1285 14.7981 19.1285C15.1653 19.1285 15.508 19.093 15.8262 19.0219C16.169 18.9507 16.4627 18.8559 16.7075 18.7374C16.9768 18.5951 17.1849 18.4411 17.3318 18.2751C17.4787 18.1092 17.5521 17.9314 17.5521 17.7418C17.5521 17.5521 17.4787 17.3743 17.3318 17.2084C17.1604 17.0662 16.9401 16.995 16.6708 16.995C16.5239 16.995 16.4138 17.0069 16.3403 17.0306C16.2914 17.078 16.2179 17.1254 16.12 17.1728L15.9731 17.2439C15.8018 17.3625 15.6304 17.4454 15.459 17.4928C15.2877 17.5402 15.0919 17.564 14.8715 17.564C14.5778 17.564 14.333 17.5165 14.1371 17.4217C13.9168 17.3506 13.7455 17.2321 13.6231 17.0661C13.5007 16.9239 13.415 16.7343 13.366 16.4972C13.3171 16.2839 13.2926 16.0349 13.2926 15.7505V13.1903C13.2926 12.9295 13.3171 12.6806 13.366 12.4436C13.415 12.2302 13.5007 12.0524 13.6231 11.9102C13.7455 11.7442 13.9168 11.6139 14.1371 11.5191C14.333 11.4479 14.5778 11.4124 14.8715 11.4124C15.0919 11.4124 15.2877 11.4361 15.459 11.4835C15.6304 11.5309 15.8018 11.602 15.9731 11.6968L16.12 11.8035C16.2179 11.8509 16.2914 11.8865 16.3403 11.9102C16.4138 11.9576 16.5239 11.9813 16.6708 11.9813C16.9401 11.9813 17.1604 11.9102 17.3318 11.7679C17.4787 11.602 17.5521 11.4124 17.5521 11.199C17.5521 11.0094 17.4787 10.8316 17.3318 10.6656C17.1849 10.4997 16.9768 10.3574 16.7075 10.2389C16.4627 10.1204 16.169 10.0256 15.8262 9.95448C15.508 9.88336 15.1653 9.84779 14.7981 9.84779C14.2351 9.84779 13.7332 9.9189 13.2926 10.0611Z" fill="#FFF5B6"/>
<path fill-rule="evenodd" clip-rule="evenodd" d="M27.2827 9.27886C27.6255 9.30257 27.9682 9.36183 28.3109 9.45665C28.6536 9.57518 28.9596 9.72929 29.2289 9.91893C29.5961 10.1678 29.7797 10.559 29.7797 10.9857C29.7797 11.3768 29.6328 11.7324 29.3757 11.9813C29.1554 12.1946 28.825 12.408 28.2374 12.408C28.0416 12.408 27.858 12.3843 27.6867 12.3369C27.5887 12.3132 27.4908 12.2895 27.3929 12.2658C27.3684 12.2658 27.3562 12.2539 27.3562 12.2302C27.2582 12.2065 27.1358 12.1709 26.989 12.1235C26.9155 12.1235 26.7687 12.088 26.5484 12.088C26.4504 12.088 26.3403 12.0998 26.2179 12.1235C26.1444 12.1472 26.0832 12.1709 26.0343 12.1946C26.0098 12.2183 25.9853 12.2421 25.9608 12.2658C25.9608 12.2658 25.9608 12.3369 25.9608 12.4436C25.9608 12.5502 25.9608 12.6214 25.9608 12.6214C26.0343 12.6925 26.1077 12.728 26.1444 12.7636C26.2913 12.8347 26.4382 12.894 26.5851 12.9414C26.7319 12.9888 26.8666 13.0243 26.989 13.048C26.989 13.048 27.0012 13.0599 27.0257 13.0836C27.3684 13.1784 27.6989 13.2851 28.0171 13.4036C28.4088 13.5459 28.7515 13.7355 29.0453 13.9725C29.388 14.2096 29.6573 14.5178 29.8531 14.8971C30.0734 15.3001 30.1836 15.7742 30.1836 16.3194C30.1836 16.8647 30.0734 17.3506 29.8531 17.7773C29.6573 18.204 29.3757 18.5714 29.0086 18.8796C28.6414 19.1641 28.2252 19.3893 27.7601 19.5552C27.295 19.6975 26.7809 19.7686 26.2179 19.7686C25.9486 19.7686 25.6426 19.7449 25.2999 19.6975C24.9082 19.6501 24.5532 19.5671 24.235 19.4485C23.8678 19.33 23.5496 19.1641 23.2803 18.9507C22.9498 18.7018 22.7295 18.3107 22.7295 17.9196C22.7295 17.5284 22.9131 17.2084 23.1701 16.9239C23.4639 16.6394 23.8311 16.4616 24.2717 16.4616C24.4186 16.4616 24.5777 16.4854 24.7491 16.5328C24.8715 16.5802 25.0061 16.6276 25.153 16.675C25.2999 16.7224 25.4712 16.7698 25.6671 16.8172C25.8384 16.8646 26.0343 16.8884 26.2546 16.8884C26.6585 16.8884 26.8054 16.8172 26.8788 16.7461C26.9156 16.7106 26.989 16.6394 26.989 16.3905C26.989 16.2839 26.989 16.2127 26.9523 16.1772C26.9155 16.1416 26.8421 16.106 26.8421 16.106C26.6952 16.0349 26.5483 15.9757 26.4015 15.9283L26.071 15.8216L25.9241 15.7505C25.5814 15.6556 25.2387 15.549 24.896 15.4305C24.5288 15.3119 24.186 15.1342 23.8678 14.8971C23.5496 14.6363 23.2803 14.3163 23.06 13.937C22.8641 13.534 22.7662 13.0599 22.7662 12.5147C22.7662 12.0168 22.8519 11.5546 23.0233 11.1279C23.2191 10.7249 23.4761 10.3812 23.7944 10.0967C24.1371 9.78855 24.541 9.56334 25.0061 9.4211C25.4467 9.27887 25.9363 9.20776 26.4749 9.20776C26.6952 9.20776 26.9645 9.23145 27.2827 9.27886ZM25.2264 10.0256C24.8348 10.1441 24.5043 10.3219 24.235 10.559C23.9657 10.7723 23.7577 11.0449 23.6108 11.3768C23.4639 11.7087 23.3905 12.088 23.3905 12.5147C23.3905 12.9651 23.4761 13.3444 23.6475 13.6526C23.7944 13.9607 24.0024 14.2096 24.2717 14.3993C24.5165 14.5889 24.8103 14.743 25.153 14.8615C25.4712 14.98 25.7894 15.0867 26.1077 15.1815C26.279 15.2289 26.4504 15.2882 26.6218 15.3593C26.7931 15.4067 26.9523 15.466 27.0991 15.5371C27.2215 15.5845 27.3439 15.6675 27.4663 15.7861C27.5643 15.9046 27.6132 16.1061 27.6132 16.3905C27.6132 16.7461 27.5031 17.0187 27.2827 17.2084C27.0624 17.398 26.7197 17.4928 26.2546 17.4928C25.9608 17.4928 25.7038 17.4691 25.4835 17.4217C25.2632 17.3506 25.0796 17.2913 24.9327 17.2439C24.8103 17.1965 24.6879 17.1609 24.5655 17.1372C24.4676 17.1135 24.3696 17.1017 24.2717 17.1017C24.0269 17.1017 23.8188 17.1846 23.6475 17.3506C23.4761 17.5165 23.3905 17.7062 23.3905 17.9196C23.3905 18.1329 23.4884 18.3225 23.6842 18.4885C23.9045 18.6307 24.1615 18.7611 24.4553 18.8796C24.7246 18.9744 25.0306 19.0455 25.3733 19.093C25.6915 19.1167 25.9731 19.1285 26.2179 19.1285C26.7075 19.1285 27.1481 19.0692 27.5398 18.9507C27.9559 18.8322 28.3109 18.6544 28.6046 18.4173C28.8984 18.1803 29.131 17.884 29.3023 17.5284C29.4737 17.1728 29.5593 16.7698 29.5593 16.3194C29.5593 15.869 29.4737 15.4897 29.3023 15.1815C29.131 14.8971 28.9229 14.6482 28.6781 14.4348C28.4088 14.2452 28.1151 14.0911 27.7968 13.9725C27.4786 13.8777 27.1481 13.7711 26.8054 13.6526C26.6585 13.6051 26.5116 13.5577 26.3648 13.5103C26.1934 13.4629 26.022 13.3918 25.8507 13.297C25.7527 13.2496 25.6303 13.1666 25.4835 13.048C25.3611 12.9295 25.2999 12.728 25.2999 12.4436C25.2999 12.2539 25.3366 12.0998 25.41 11.9813C25.4835 11.8628 25.5814 11.7561 25.7038 11.6613C25.8017 11.5901 25.9363 11.5428 26.1077 11.5191C26.2546 11.4953 26.4015 11.4835 26.5484 11.4835C26.7931 11.4835 26.989 11.4953 27.1359 11.5191C27.3072 11.5665 27.4541 11.6138 27.5765 11.6613C27.6989 11.685 27.809 11.7205 27.907 11.7679C28.0049 11.7917 28.115 11.8035 28.2374 11.8035C28.5312 11.8035 28.7515 11.7205 28.8984 11.5546C29.0698 11.3887 29.1554 11.199 29.1554 10.9857C29.1554 10.7486 29.0575 10.5589 28.8617 10.4167C28.6413 10.2508 28.3965 10.1322 28.1273 10.0611C27.8335 9.96631 27.5398 9.90704 27.246 9.88334C26.9278 9.85963 26.6707 9.84779 26.4749 9.84779C26.0098 9.84779 25.5936 9.90705 25.2264 10.0256Z" fill="#FFF5B6"/>
<path fill-rule="evenodd" clip-rule="evenodd" d="M38.225 9.63445C38.5555 9.88335 38.7391 10.2745 38.7391 10.6656V18.3107C38.7391 18.7018 38.5556 19.0574 38.2618 19.3419C37.968 19.6264 37.5641 19.7686 37.1602 19.7686C36.7563 19.7686 36.3524 19.6264 36.0586 19.3419C35.7649 19.0574 35.5812 18.7018 35.5812 18.3107V15.9283H34.039V18.3107C34.039 18.7018 33.8554 19.0574 33.5617 19.3419C33.2679 19.6264 32.864 19.7686 32.4601 19.7686C32.0562 19.7686 31.6522 19.6264 31.3585 19.3419C31.0647 19.0574 30.8811 18.7018 30.8811 18.3107V10.6656C30.8811 10.2745 31.0647 9.91891 31.3585 9.63445C31.6522 9.34998 32.0562 9.20776 32.4601 9.20776C32.864 9.20776 33.2679 9.34998 33.5617 9.63445C33.8554 9.91891 34.039 10.2745 34.039 10.6656V13.048H35.5812V10.6656C35.5812 10.2745 35.7649 9.88335 36.0586 9.63445C36.3891 9.34998 36.7563 9.20776 37.1602 9.20776C37.5641 9.20776 37.9313 9.34998 38.225 9.63445ZM36.4992 10.0967C36.3279 10.239 36.2422 10.4286 36.2422 10.6656V13.6526H33.3781V10.6656C33.3781 10.4286 33.2924 10.239 33.121 10.0967C32.9497 9.93078 32.7293 9.84779 32.4601 9.84779C32.2153 9.84779 31.9949 9.93078 31.7991 10.0967C31.6277 10.239 31.5421 10.4286 31.5421 10.6656V18.3107C31.5421 18.524 31.6277 18.7137 31.7991 18.8796C31.9949 19.0455 32.2153 19.1285 32.4601 19.1285C32.7293 19.1285 32.9497 19.0455 33.121 18.8796C33.2924 18.7137 33.3781 18.524 33.3781 18.3107V15.2882H36.2422V18.3107C36.2422 18.524 36.3279 18.7137 36.4992 18.8796C36.6951 19.0455 36.9154 19.1285 37.1602 19.1285C37.405 19.1285 37.6253 19.0455 37.8211 18.8796C37.9925 18.7137 38.0782 18.524 38.0782 18.3107V10.6656C38.0782 10.4286 37.9925 10.239 37.8211 10.0967C37.6253 9.93078 37.405 9.84779 37.1602 9.84779C36.9154 9.84779 36.6951 9.93078 36.4992 10.0967Z" fill="#FFF5B6"/>
<path fill-rule="evenodd" clip-rule="evenodd" d="M45.5692 9.52775C46.0833 9.7411 46.5117 10.0374 46.8544 10.4167C47.1971 10.796 47.4419 11.2346 47.5888 11.7324C47.7356 12.2065 47.8091 12.6925 47.8091 13.1903V15.7505C47.8091 16.2957 47.7234 16.8054 47.5521 17.2795C47.3807 17.7773 47.1237 18.204 46.7809 18.5596C46.4138 18.9389 45.9731 19.2352 45.459 19.4485C44.9695 19.6619 44.3941 19.7686 43.7332 19.7686C43.0722 19.7686 42.4848 19.6619 41.9707 19.4485C41.4566 19.2352 41.016 18.9389 40.6488 18.5596C40.3061 18.204 40.049 17.7773 39.8776 17.2795C39.7063 16.8054 39.6206 16.2957 39.6206 15.7505V13.1903C39.6206 12.6925 39.694 12.2065 39.8409 11.7324C39.9878 11.2346 40.2326 10.796 40.5753 10.4167C40.918 10.0374 41.3464 9.7411 41.8605 9.52775C42.3991 9.3144 43.0233 9.20776 43.7332 9.20776C44.4186 9.20776 45.0306 9.3144 45.5692 9.52775ZM42.1176 10.0967C41.6769 10.2864 41.322 10.5353 41.0527 10.8434C40.7834 11.1516 40.5876 11.5072 40.4652 11.9102C40.3183 12.3132 40.2448 12.7399 40.2448 13.1903V15.7505C40.2448 16.2246 40.3183 16.6631 40.4652 17.0661C40.6121 17.4928 40.8323 17.8603 41.1261 18.1684C41.4199 18.4766 41.7748 18.7137 42.191 18.8796C42.6316 19.0455 43.1457 19.1285 43.7332 19.1285C44.2962 19.1285 44.7981 19.0455 45.2387 18.8796C45.6549 18.7137 46.0098 18.4766 46.3036 18.1684C46.5973 17.8603 46.8177 17.4928 46.9645 17.0661C47.1114 16.6631 47.1849 16.2246 47.1849 15.7505V13.1903C47.1849 12.7399 47.1114 12.3132 46.9645 11.9102C46.8421 11.5072 46.6463 11.1516 46.377 10.8434C46.1078 10.5353 45.7528 10.2864 45.3122 10.0967C44.8715 9.93078 44.3452 9.84779 43.7332 9.84779C43.0967 9.84779 42.5582 9.93078 42.1176 10.0967ZM42.5215 17.0306C42.2522 16.6987 42.1176 16.272 42.1176 15.7505V13.1903C42.1176 12.6688 42.24 12.2539 42.4848 11.9457C42.7296 11.6376 43.1457 11.4835 43.7332 11.4835C44.2962 11.4835 44.7002 11.6376 44.945 11.9457C45.1898 12.2539 45.3122 12.6688 45.3122 13.1903V15.7505C45.3122 16.272 45.1898 16.6987 44.945 17.0306C44.6757 17.3388 44.2717 17.4928 43.7332 17.4928C43.1702 17.4928 42.7663 17.3388 42.5215 17.0306ZM44.4309 16.6394C44.6022 16.4261 44.6879 16.1297 44.6879 15.7505V13.1903C44.6879 12.811 44.6022 12.5147 44.4309 12.3013C44.333 12.1591 44.1004 12.088 43.7332 12.088C43.366 12.088 43.1212 12.1591 42.9988 12.3013C42.8519 12.5147 42.7785 12.811 42.7785 13.1903V15.7505C42.7785 16.1297 42.8642 16.4261 43.0356 16.6394C43.109 16.7461 43.2558 16.8884 43.7332 16.8884C44.1738 16.8884 44.3207 16.7461 44.4309 16.6394Z" fill="#FFF5B6"/>
<path fill-rule="evenodd" clip-rule="evenodd" d="M55.2264 9.70555C55.4468 9.9426 55.6059 10.2508 55.7038 10.6301L56.2179 12.7636L56.8421 10.3812C56.94 10.0256 57.1236 9.75299 57.3929 9.56335C57.6622 9.35 57.9682 9.24331 58.3109 9.24331C58.4823 9.24331 58.6536 9.267 58.825 9.31441C59.0208 9.36182 59.2044 9.43293 59.3758 9.52775C59.5471 9.64628 59.6818 9.78854 59.7797 9.95448C59.9266 10.1678 60 10.4049 60 10.6656V10.7367C60 10.8079 59.9878 10.9027 59.9633 11.0212L57.9437 18.4885C57.9437 18.4885 57.9437 18.5003 57.9437 18.524C57.8458 18.8322 57.6744 19.1048 57.4296 19.3419C57.1359 19.6264 56.7442 19.7686 56.2546 19.7686C55.765 19.7686 55.3611 19.6264 55.0428 19.3419C54.798 19.1048 54.6267 18.8322 54.5288 18.524C54.5288 18.5003 54.5288 18.4766 54.5288 18.4529L54.0147 16.355L53.4639 18.4885C53.4639 18.4885 53.4639 18.5003 53.4639 18.524C53.4149 18.6426 53.3537 18.7729 53.2803 18.9152C53.2068 19.0811 53.0967 19.2234 52.9498 19.3419C52.803 19.4604 52.6316 19.5671 52.4358 19.6619C52.2399 19.733 52.0073 19.7686 51.7381 19.7686C51.3342 19.7686 50.9302 19.6264 50.6365 19.3419C50.3427 19.1048 50.1469 18.8322 50.049 18.524C50.049 18.5003 50.049 18.4885 50.049 18.4885L48.0661 11.0568C48.0661 11.0331 48.0661 11.0212 48.0661 11.0212C48.0661 10.9738 48.0539 10.9264 48.0294 10.879C48.0049 10.8079 47.9927 10.7249 47.9927 10.6301C47.9927 10.393 48.0661 10.1797 48.213 9.99003C48.3109 9.82409 48.4333 9.69372 48.5802 9.5989C48.7271 9.48037 48.8984 9.38553 49.0943 9.31441C49.2901 9.267 49.4737 9.24331 49.6451 9.24331C49.9633 9.24331 50.257 9.32627 50.5263 9.4922C50.8201 9.67 51.0404 9.99003 51.1139 10.3456L51.7748 12.728L52.2889 10.6301C52.4113 10.2508 52.5704 9.9426 52.7662 9.70555C53.011 9.37367 53.4272 9.20776 54.0147 9.20776C54.5287 9.20776 54.9327 9.37367 55.2264 9.70555ZM53.2436 10.0967C53.1212 10.2627 53.011 10.4878 52.9131 10.7723L52.142 13.7948C52.0441 14.1503 51.9829 14.5178 51.9584 14.8971C51.9094 15.2527 51.8482 15.6083 51.7748 15.9638C51.7013 15.5846 51.6401 15.2171 51.5912 14.8615C51.5422 14.5059 51.4688 14.1503 51.3709 13.7948L50.4896 10.4879C50.4406 10.2745 50.3427 10.1204 50.1959 10.0256C50.0245 9.93076 49.8409 9.88334 49.6451 9.88334C49.5227 9.88334 49.4003 9.89522 49.2779 9.91893C49.1555 9.96634 49.0575 10.0256 48.9841 10.0967C48.8862 10.1441 48.8005 10.2152 48.7271 10.3101C48.6781 10.4049 48.6536 10.5116 48.6536 10.6301C48.6536 10.6775 48.6536 10.713 48.6536 10.7367C48.6781 10.8079 48.6903 10.8553 48.6903 10.879L50.6365 18.3462C50.7099 18.5359 50.8445 18.7137 51.0404 18.8796C51.2362 19.0455 51.4688 19.1285 51.7381 19.1285C51.9339 19.1285 52.093 19.1048 52.2154 19.0574C52.3378 19.01 52.4357 18.9507 52.5092 18.8796C52.6071 18.8085 52.6805 18.7255 52.7295 18.6307C52.7784 18.5359 52.8152 18.4411 52.8397 18.3462L53.6475 15.1815C53.7209 14.826 53.7821 14.4822 53.8311 14.1503C53.88 13.7948 53.9412 13.4511 54.0147 13.1192C54.0636 13.4511 54.1126 13.7948 54.1616 14.1503C54.2105 14.4822 54.2717 14.826 54.3452 15.1815L55.153 18.3107C55.2265 18.524 55.3489 18.7137 55.5202 18.8796C55.6916 19.0455 55.9364 19.1285 56.2546 19.1285C56.5728 19.1285 56.8176 19.0455 56.989 18.8796C57.1604 18.7374 57.2828 18.5596 57.3562 18.3462L59.339 10.8434C59.3635 10.796 59.3758 10.7605 59.3758 10.7367C59.3758 10.713 59.3758 10.6894 59.3758 10.6656C59.3758 10.5234 59.339 10.4049 59.2656 10.3101C59.1922 10.2152 59.1065 10.1322 59.0086 10.0611C58.9107 9.99001 58.8005 9.94264 58.6781 9.91893C58.5557 9.89522 58.4333 9.88334 58.3109 9.88334C58.1151 9.88334 57.9437 9.9426 57.7968 10.0611C57.6255 10.156 57.5153 10.3101 57.4663 10.5234L56.6218 13.7948C56.5239 14.174 56.4504 14.5415 56.4015 14.8971C56.3525 15.2527 56.2913 15.6083 56.2179 15.9638C56.1444 15.6083 56.0832 15.2527 56.0343 14.8971C56.0098 14.5415 55.9486 14.174 55.8507 13.7948L55.0796 10.7723C55.0061 10.4878 54.8959 10.2627 54.7491 10.0967C54.5777 9.93078 54.3329 9.84779 54.0147 9.84779C53.6475 9.84779 53.3904 9.93078 53.2436 10.0967Z" fill="#FFF5B6"/>
<path d="M40.5018 5.90088L40.5385 6.00757C40.563 5.96016 40.612 5.91274 40.6854 5.86533C40.7588 5.81792 40.8323 5.79419 40.9057 5.79419C41.0281 5.79419 41.126 5.82977 41.1995 5.90088C41.2484 5.94829 41.2974 6.00756 41.3463 6.07867C41.3953 6.00756 41.4565 5.93645 41.5299 5.86533C41.6034 5.81792 41.7013 5.79419 41.8237 5.79419C41.8971 5.79419 41.9583 5.81792 42.0073 5.86533C42.0807 5.88904 42.1419 5.92457 42.1909 5.97198C42.2154 6.01939 42.2398 6.07866 42.2643 6.14977C42.2888 6.22089 42.3011 6.29204 42.3011 6.36316V7.10987C42.3011 7.13358 42.3011 7.14542 42.3011 7.14542C42.2766 7.16913 42.2521 7.18097 42.2276 7.18097H42.1542C42.1052 7.18097 42.0807 7.15728 42.0807 7.10987V6.36316C42.0807 6.26834 42.0563 6.18534 42.0073 6.11422C41.9583 6.06681 41.8849 6.04312 41.787 6.04312C41.738 6.04312 41.6891 6.04312 41.6401 6.04312C41.5911 6.06683 41.5544 6.09052 41.5299 6.11422C41.5054 6.16163 41.481 6.19721 41.4565 6.22092C41.432 6.26833 41.4198 6.31575 41.4198 6.36316V7.10987C41.4198 7.15728 41.3953 7.18097 41.3463 7.18097H41.2362C41.2117 7.18097 41.1995 7.16913 41.1995 7.14542C41.175 7.14542 41.1627 7.13358 41.1627 7.10987V6.36316C41.1627 6.26834 41.1383 6.18534 41.0893 6.11422C41.0404 6.06681 40.9669 6.04312 40.869 6.04312C40.82 6.04312 40.7833 6.04312 40.7588 6.04312C40.7099 6.06683 40.6732 6.09052 40.6487 6.11422C40.5997 6.16163 40.563 6.19721 40.5385 6.22092C40.5385 6.26833 40.5385 6.31575 40.5385 6.36316V7.10987C40.5385 7.15728 40.5141 7.18097 40.4651 7.18097H40.3549C40.306 7.18097 40.2815 7.15728 40.2815 7.10987V5.90088C40.2815 5.85347 40.306 5.82978 40.3549 5.82978H40.4651C40.4896 5.82978 40.5018 5.85347 40.5018 5.90088Z" fill="#FFF5B6"/>
<path d="M42.7051 5.43859C42.7051 5.39117 42.7173 5.35564 42.7418 5.33194C42.7663 5.30823 42.803 5.29639 42.852 5.29639C42.9254 5.29639 42.9743 5.30823 42.9988 5.33194C43.0233 5.35564 43.0356 5.39117 43.0356 5.43859C43.0356 5.486 43.0233 5.53342 42.9988 5.58083C42.9743 5.60453 42.9254 5.61638 42.852 5.61638C42.803 5.61638 42.7663 5.60453 42.7418 5.58083C42.7173 5.53342 42.7051 5.486 42.7051 5.43859ZM42.9988 5.90086V7.10985C42.9988 7.15726 42.9743 7.18095 42.9254 7.18095H42.8152C42.7663 7.18095 42.7418 7.15726 42.7418 7.10985V5.90086C42.7418 5.85345 42.7663 5.82976 42.8152 5.82976H42.9254C42.9743 5.82976 42.9988 5.85345 42.9988 5.90086Z" fill="#FFF5B6"/>
<path d="M44.027 6.46961L44.4676 7.10968C44.4921 7.13339 44.5043 7.14523 44.5043 7.14523C44.5043 7.16894 44.4921 7.18078 44.4676 7.18078H44.284C44.2595 7.18078 44.235 7.15709 44.2106 7.10968L43.8801 6.64741L43.5496 7.10968C43.5251 7.15709 43.5006 7.18078 43.4762 7.18078H43.3293C43.2803 7.18078 43.2559 7.16894 43.2559 7.14523C43.2559 7.14523 43.2559 7.13339 43.2559 7.10968C43.2803 7.10968 43.2926 7.10968 43.2926 7.10968L43.7332 6.46961L43.3293 5.86514C43.3293 5.86514 43.3293 5.8533 43.3293 5.82959C43.3293 5.82959 43.3415 5.82959 43.366 5.82959H43.5129C43.5374 5.82959 43.5619 5.82959 43.5863 5.82959C43.5863 5.8533 43.5986 5.87698 43.6231 5.90069L43.8801 6.29182L44.1371 5.86514C44.1616 5.86514 44.1739 5.8533 44.1739 5.82959C44.1983 5.82959 44.2228 5.82959 44.2473 5.82959H44.3942C44.4186 5.82959 44.4309 5.82959 44.4309 5.82959C44.4309 5.8533 44.4309 5.86514 44.4309 5.86514L44.027 6.46961Z" fill="#FFF5B6"/>
<path fill-rule="evenodd" clip-rule="evenodd" d="M46.6338 7.10987V6.96763C46.6093 7.03875 46.5604 7.09801 46.4869 7.14542C46.4135 7.16913 46.3278 7.18097 46.2299 7.18097C46.132 7.18097 46.0341 7.16913 45.9361 7.14542C45.8627 7.09801 45.7893 7.05059 45.7158 7.00318C45.6669 6.93206 45.6302 6.86096 45.6057 6.78984C45.5567 6.69502 45.5322 6.60018 45.5322 6.50536C45.5322 6.41053 45.5567 6.31574 45.6057 6.22092C45.6302 6.1498 45.6669 6.07869 45.7158 6.00757C45.7893 5.93646 45.8627 5.88904 45.9361 5.86533C46.0341 5.81792 46.132 5.79419 46.2299 5.79419C46.2789 5.79419 46.3278 5.80608 46.3768 5.82978C46.4258 5.82978 46.4625 5.84163 46.4869 5.86533C46.5114 5.88904 46.5359 5.91273 46.5604 5.93643C46.5849 5.98384 46.6093 6.01942 46.6338 6.04312L46.6705 5.90088C46.6705 5.87718 46.6705 5.85349 46.6705 5.82978C46.6705 5.82978 46.6828 5.82978 46.7073 5.82978H46.8174C46.8174 5.82978 46.8296 5.82978 46.8541 5.82978C46.8786 5.85349 46.8909 5.87718 46.8909 5.90088V7.10987C46.8909 7.13358 46.8786 7.14542 46.8541 7.14542C46.8296 7.16913 46.8174 7.18097 46.8174 7.18097H46.7073C46.6583 7.18097 46.6338 7.15728 46.6338 7.10987ZM45.7893 6.50536C45.7893 6.57647 45.7893 6.63574 45.7893 6.68315C45.8138 6.73056 45.8505 6.77798 45.8994 6.82539C45.9239 6.8728 45.9729 6.90838 46.0463 6.93208C46.0953 6.95579 46.1565 6.96763 46.2299 6.96763C46.2789 6.96763 46.3401 6.95579 46.4135 6.93208C46.4625 6.90838 46.4992 6.8728 46.5237 6.82539C46.5726 6.80168 46.5971 6.75426 46.5971 6.68315C46.6216 6.63574 46.6338 6.57647 46.6338 6.50536C46.6338 6.43424 46.6216 6.37498 46.5971 6.32756C46.5971 6.28015 46.5726 6.23278 46.5237 6.18537C46.4992 6.13795 46.4625 6.10238 46.4135 6.07867C46.3401 6.05497 46.2789 6.04312 46.2299 6.04312C46.1565 6.04312 46.0953 6.05497 46.0463 6.07867C45.9729 6.10238 45.9239 6.13795 45.8994 6.18537C45.8505 6.23278 45.8138 6.28015 45.7893 6.32756C45.7893 6.37498 45.7893 6.43424 45.7893 6.50536Z" fill="#FFF5B6"/>
<path d="M47.5519 5.90088L47.5886 6.00757C47.613 5.98387 47.6375 5.96014 47.662 5.93643C47.6865 5.91273 47.7232 5.88904 47.7722 5.86533C47.8211 5.84163 47.8701 5.82978 47.919 5.82978C47.968 5.80608 48.017 5.79419 48.0659 5.79419C48.1394 5.79419 48.2128 5.81792 48.2862 5.86533C48.3352 5.88904 48.3842 5.92457 48.4331 5.97198C48.4821 6.01939 48.5188 6.07866 48.5433 6.14977C48.5678 6.22089 48.58 6.29204 48.58 6.36316V7.10987C48.58 7.13358 48.58 7.14542 48.58 7.14542C48.5555 7.16913 48.531 7.18097 48.5066 7.18097H48.3964C48.3719 7.18097 48.3597 7.16913 48.3597 7.14542C48.3352 7.14542 48.323 7.13358 48.323 7.10987V6.36316C48.323 6.31575 48.323 6.28017 48.323 6.25647C48.2985 6.20905 48.274 6.17348 48.2495 6.14977C48.2251 6.10236 48.1883 6.07867 48.1394 6.07867C48.0904 6.05497 48.0415 6.04312 47.9925 6.04312C47.9436 6.04312 47.8946 6.04312 47.8456 6.04312C47.7967 6.06683 47.7477 6.09052 47.6987 6.11422C47.6743 6.13793 47.6498 6.1735 47.6253 6.22092C47.6008 6.24462 47.5886 6.28015 47.5886 6.32756V7.10987C47.5886 7.15728 47.5641 7.18097 47.5151 7.18097H47.405C47.356 7.18097 47.3315 7.15728 47.3315 7.10987V5.90088C47.3315 5.87718 47.3438 5.85349 47.3683 5.82978C47.3683 5.82978 47.3805 5.82978 47.405 5.82978H47.5151C47.5396 5.82978 47.5519 5.85347 47.5519 5.90088Z" fill="#FFF5B6"/>
<path fill-rule="evenodd" clip-rule="evenodd" d="M50.1957 5.1896V7.10976C50.1957 7.15717 50.1712 7.18086 50.1223 7.18086H50.0488C49.9754 7.18086 49.9387 7.15717 49.9387 7.10976V7.00307C49.8897 7.05048 49.8407 7.0979 49.7918 7.14531C49.7183 7.16902 49.6327 7.18086 49.5348 7.18086C49.4368 7.18086 49.3512 7.16902 49.2777 7.14531C49.1798 7.0979 49.1063 7.05048 49.0574 7.00307C49.0084 6.93195 48.9595 6.86084 48.9105 6.78973C48.8861 6.6949 48.8738 6.60007 48.8738 6.50524C48.8738 6.41042 48.8861 6.31562 48.9105 6.2208C48.9595 6.14969 49.0084 6.07858 49.0574 6.00746C49.1063 5.93634 49.1798 5.88892 49.2777 5.86522C49.3512 5.81781 49.4368 5.79408 49.5348 5.79408C49.6327 5.79408 49.7183 5.81781 49.7918 5.86522C49.8652 5.91263 49.9142 5.96005 49.9387 6.00746V5.1896C49.9387 5.1659 49.9754 5.15405 50.0488 5.15405H50.1223C50.1467 5.15405 50.159 5.15405 50.159 5.15405C50.1834 5.17776 50.1957 5.1896 50.1957 5.1896ZM49.9754 6.50524C49.9754 6.43413 49.9631 6.37486 49.9387 6.32745C49.9142 6.28004 49.8897 6.23266 49.8652 6.18525C49.8163 6.13784 49.7673 6.10227 49.7184 6.07856C49.6694 6.05485 49.6082 6.04301 49.5348 6.04301C49.4858 6.04301 49.4246 6.05485 49.3512 6.07856C49.3022 6.10227 49.2655 6.13784 49.241 6.18525C49.192 6.23266 49.1676 6.28004 49.1676 6.32745C49.1431 6.37486 49.1308 6.43413 49.1308 6.50524C49.1308 6.57636 49.1431 6.63562 49.1676 6.68303C49.1676 6.73045 49.192 6.77787 49.241 6.82528C49.2655 6.87269 49.3022 6.90826 49.3512 6.93197C49.4246 6.95567 49.4858 6.96752 49.5348 6.96752C49.6082 6.96752 49.6694 6.95567 49.7184 6.93197C49.7673 6.90826 49.8163 6.87269 49.8652 6.82528C49.8897 6.77787 49.9142 6.73045 49.9387 6.68303C49.9631 6.63562 49.9754 6.57636 49.9754 6.50524Z" fill="#FFF5B6"/>
<path d="M51.7381 5.90088L51.7748 6.00757C51.7993 5.96016 51.8483 5.91274 51.9217 5.86533C51.9952 5.81792 52.0686 5.79419 52.142 5.79419C52.2644 5.79419 52.3624 5.82977 52.4358 5.90088C52.4848 5.94829 52.5337 6.00756 52.5827 6.07867C52.6317 6.00756 52.6929 5.93645 52.7663 5.86533C52.8397 5.81792 52.9254 5.79419 53.0233 5.79419C53.1212 5.79419 53.1947 5.81792 53.2436 5.86533C53.3171 5.88904 53.3783 5.92457 53.4272 5.97198C53.4517 6.01939 53.4762 6.07866 53.5007 6.14977C53.5252 6.22089 53.5374 6.29204 53.5374 6.36316V7.10987C53.5374 7.13358 53.5374 7.14542 53.5374 7.14542C53.5129 7.16913 53.4884 7.18097 53.4639 7.18097H53.3538C53.3048 7.18097 53.2803 7.15728 53.2803 7.10987V6.36316C53.2803 6.26834 53.2681 6.18534 53.2436 6.11422C53.1947 6.06681 53.109 6.04312 52.9866 6.04312C52.9621 6.04312 52.9254 6.04312 52.8764 6.04312C52.8275 6.06683 52.7908 6.09052 52.7663 6.11422C52.7418 6.16163 52.7173 6.19721 52.6928 6.22092C52.6684 6.26833 52.6561 6.31575 52.6561 6.36316V7.10987C52.6561 7.15728 52.6317 7.18097 52.5827 7.18097H52.4725C52.448 7.18097 52.4358 7.16913 52.4358 7.14542C52.4113 7.14542 52.3991 7.13358 52.3991 7.10987V6.36316C52.3991 6.26834 52.3746 6.18534 52.3256 6.11422C52.2767 6.06681 52.2032 6.04312 52.1053 6.04312C52.0564 6.04312 52.0074 6.04312 51.9584 6.04312C51.934 6.06683 51.8973 6.09052 51.8483 6.11422C51.8238 6.16163 51.7993 6.19721 51.7748 6.22092C51.7748 6.26833 51.7748 6.31575 51.7748 6.36316V7.10987C51.7748 7.15728 51.7504 7.18097 51.7014 7.18097H51.5912C51.5423 7.18097 51.5178 7.15728 51.5178 7.10987V5.90088C51.5178 5.85347 51.5423 5.82978 51.5912 5.82978H51.7014C51.7259 5.82978 51.7381 5.85347 51.7381 5.90088Z" fill="#FFF5B6"/>
<path fill-rule="evenodd" clip-rule="evenodd" d="M54.9693 7.10987V6.96763C54.9203 7.03875 54.8591 7.09801 54.7857 7.14542C54.7367 7.16913 54.651 7.18097 54.5286 7.18097C54.4307 7.18097 54.345 7.16913 54.2716 7.14542C54.1737 7.09801 54.1002 7.05059 54.0513 7.00318C54.0023 6.93206 53.9533 6.86096 53.9044 6.78984C53.8799 6.69502 53.8677 6.60018 53.8677 6.50536C53.8677 6.41053 53.8799 6.31574 53.9044 6.22092C53.9533 6.1498 54.0023 6.07869 54.0513 6.00757C54.1002 5.93646 54.1737 5.88904 54.2716 5.86533C54.345 5.81792 54.4307 5.79419 54.5286 5.79419C54.602 5.79419 54.651 5.80608 54.6755 5.82978C54.7245 5.82978 54.7612 5.84163 54.7857 5.86533C54.8346 5.88904 54.8713 5.91273 54.8958 5.93643C54.9203 5.98384 54.9448 6.01942 54.9693 6.04312V5.90088C54.9693 5.87718 54.9815 5.85349 55.006 5.82978C55.006 5.82978 55.0182 5.82978 55.0427 5.82978H55.1161C55.1406 5.82978 55.1651 5.82978 55.1896 5.82978C55.1896 5.85349 55.1896 5.87718 55.1896 5.90088V7.10987C55.1896 7.13358 55.1896 7.14542 55.1896 7.14542C55.1651 7.16913 55.1406 7.18097 55.1161 7.18097H55.0427C54.9937 7.18097 54.9693 7.15728 54.9693 7.10987ZM54.088 6.50536C54.088 6.57647 54.1002 6.63574 54.1247 6.68315C54.1492 6.73056 54.1736 6.77798 54.1981 6.82539C54.2471 6.8728 54.296 6.90838 54.345 6.93208C54.4184 6.95579 54.4796 6.96763 54.5286 6.96763C54.602 6.96763 54.6632 6.95579 54.7122 6.93208C54.7612 6.90838 54.8101 6.8728 54.8591 6.82539C54.8836 6.80168 54.908 6.75426 54.9325 6.68315C54.957 6.63574 54.9693 6.57647 54.9693 6.50536C54.9693 6.43424 54.957 6.37498 54.9325 6.32756C54.908 6.28015 54.8836 6.23278 54.8591 6.18537C54.8101 6.13795 54.7612 6.10238 54.7122 6.07867C54.6632 6.05497 54.602 6.04312 54.5286 6.04312C54.4552 6.04312 54.394 6.05497 54.345 6.07867C54.296 6.10238 54.2471 6.13795 54.1981 6.18537C54.1736 6.23278 54.1492 6.28015 54.1247 6.32756C54.1002 6.37498 54.088 6.43424 54.088 6.50536Z" fill="#FFF5B6"/>
<path d="M56.1444 7.1809C56.1199 7.1809 56.1077 7.1809 56.1077 7.1809C56.0587 7.1809 56.0097 7.1809 55.9608 7.1809C55.9118 7.1809 55.8751 7.16905 55.8506 7.14535C55.8261 7.12164 55.8017 7.08607 55.7772 7.03866C55.7527 6.99124 55.7405 6.93198 55.7405 6.86086V6.04305H55.5569C55.5324 6.04305 55.5202 6.04305 55.5202 6.04305C55.4957 6.01934 55.4834 5.99561 55.4834 5.97191V5.90081C55.4834 5.8771 55.4957 5.85341 55.5202 5.82971C55.5202 5.82971 55.5324 5.82971 55.5569 5.82971H55.7405V5.43853C55.7405 5.41483 55.7527 5.40298 55.7772 5.40298L55.9241 5.36743C55.9485 5.36743 55.9608 5.37928 55.9608 5.40298C55.9853 5.40298 55.9975 5.41483 55.9975 5.43853V5.82971H56.1811C56.23 5.82971 56.2545 5.8534 56.2545 5.90081V5.97191C56.2545 6.01932 56.23 6.04305 56.1811 6.04305H55.9975V6.78976C55.9975 6.83718 55.9975 6.87275 55.9975 6.89646C55.9975 6.92016 56.0097 6.93201 56.0342 6.93201C56.0342 6.95571 56.0465 6.96756 56.0709 6.96756C56.0954 6.96756 56.1199 6.96756 56.1444 6.96756C56.1933 6.96756 56.2178 6.99124 56.2178 7.03866V7.1098C56.2178 7.15721 56.1933 7.1809 56.1444 7.1809Z" fill="#FFF5B6"/>
<path d="M57.1358 6.96763C57.1847 6.96763 57.2337 6.95579 57.2826 6.93208C57.3561 6.90838 57.4173 6.88464 57.4662 6.86094C57.4662 6.83723 57.4785 6.82539 57.503 6.82539C57.5274 6.82539 57.5397 6.83723 57.5397 6.86094L57.6131 6.96763C57.6131 6.96763 57.6131 6.97948 57.6131 7.00318C57.6131 7.00318 57.6131 7.01503 57.6131 7.03873C57.5887 7.03873 57.5764 7.03873 57.5764 7.03873C57.503 7.08614 57.4296 7.12172 57.3561 7.14542C57.2827 7.19283 57.2092 7.21652 57.1358 7.21652C57.0378 7.21652 56.9399 7.19283 56.842 7.14542C56.7441 7.09801 56.6707 7.05059 56.6217 7.00318C56.5483 6.93206 56.4993 6.86096 56.4748 6.78984C56.4259 6.69502 56.4014 6.60018 56.4014 6.50536C56.4014 6.41053 56.4259 6.31574 56.4748 6.22092C56.4993 6.1498 56.5483 6.07869 56.6217 6.00757C56.6707 5.93646 56.7441 5.88904 56.842 5.86533C56.9399 5.81792 57.0378 5.79419 57.1358 5.79419C57.2092 5.79419 57.2827 5.80608 57.3561 5.82978C57.4296 5.85349 57.503 5.88902 57.5764 5.93643C57.6009 5.96014 57.6131 5.98387 57.6131 6.00757C57.6131 6.00757 57.6131 6.01942 57.6131 6.04312L57.503 6.14977C57.503 6.14977 57.4907 6.14977 57.4662 6.14977C57.4662 6.14977 57.454 6.14977 57.4295 6.14977C57.3806 6.10236 57.3316 6.06683 57.2826 6.04312C57.2337 6.01942 57.1847 6.00757 57.1358 6.00757C57.0623 6.00757 56.9889 6.01942 56.9155 6.04312C56.8665 6.06683 56.8175 6.10236 56.7686 6.14977C56.7196 6.19718 56.6829 6.25645 56.6584 6.32756C56.634 6.37498 56.6217 6.43424 56.6217 6.50536C56.6217 6.57647 56.634 6.63574 56.6584 6.68315C56.6829 6.75426 56.7196 6.80168 56.7686 6.82539C56.8175 6.8728 56.8665 6.90838 56.9155 6.93208C56.9889 6.95579 57.0623 6.96763 57.1358 6.96763Z" fill="#FFF5B6"/>
<path d="M58.2008 5.1896V6.00746C58.2253 5.98376 58.262 5.96002 58.311 5.93632C58.3354 5.91261 58.3721 5.88892 58.4211 5.86522C58.47 5.84151 58.5068 5.82967 58.5313 5.82967C58.5802 5.80596 58.6292 5.79408 58.6782 5.79408C58.7516 5.79408 58.825 5.81781 58.8985 5.86522C58.9719 5.88892 59.0331 5.92446 59.0821 5.97187C59.131 6.01928 59.1678 6.07854 59.1922 6.14966C59.2167 6.22078 59.2289 6.29193 59.2289 6.36304V7.10976C59.2289 7.13347 59.2167 7.14531 59.1922 7.14531C59.1678 7.16902 59.1555 7.18086 59.1555 7.18086H59.0086C58.9842 7.18086 58.9719 7.16902 58.9719 7.14531C58.9719 7.14531 58.9719 7.13347 58.9719 7.10976V6.36304C58.9719 6.31563 58.9597 6.28006 58.9352 6.25635C58.9352 6.20894 58.9229 6.17337 58.8985 6.14966C58.874 6.10225 58.8372 6.07856 58.7883 6.07856C58.7393 6.05485 58.6904 6.04301 58.6414 6.04301C58.5925 6.04301 58.5435 6.04301 58.4946 6.04301C58.4456 6.06672 58.3966 6.0904 58.3477 6.11411C58.3232 6.16152 58.2864 6.1971 58.2375 6.2208C58.213 6.26821 58.2008 6.31563 58.2008 6.36304V7.10976C58.2008 7.15717 58.1763 7.18086 58.1274 7.18086H58.0172C57.9927 7.18086 57.9805 7.15717 57.9805 7.10976V5.1896C57.9805 5.1659 57.9927 5.15405 58.0172 5.15405H58.1274C58.1518 5.15405 58.1763 5.15405 58.2008 5.15405C58.2008 5.17776 58.2008 5.1896 58.2008 5.1896Z" fill="#FFF5B6"/>
<path d="M34.9573 22.1864C34.9817 22.2575 35.0062 22.3286 35.0307 22.3997C35.0552 22.4945 35.0919 22.5775 35.1409 22.6486C35.1653 22.7434 35.1898 22.8264 35.2143 22.8975C35.2632 22.9687 35.3 23.0398 35.3245 23.1109C35.3489 23.0161 35.3856 22.9212 35.4346 22.8264C35.4835 22.7079 35.5325 22.6012 35.5815 22.5064L35.6917 22.1864C35.7161 22.139 35.7406 22.1152 35.7651 22.1152H35.8753C35.9242 22.1152 35.9487 22.139 35.9487 22.1864C35.9487 22.2101 35.9487 22.2219 35.9487 22.2219C35.9242 22.2693 35.8997 22.3049 35.8753 22.3286C35.8753 22.376 35.863 22.4234 35.8385 22.4708C35.863 22.5419 35.8875 22.613 35.912 22.6842C35.9364 22.7553 35.9609 22.8145 35.9854 22.862L36.0956 23.1109C36.12 23.0398 36.1445 22.9687 36.169 22.8975C36.2179 22.8264 36.2547 22.7434 36.2792 22.6486C36.3036 22.5775 36.3403 22.4945 36.3893 22.3997C36.4138 22.3286 36.4383 22.2575 36.4628 22.1864C36.4628 22.1627 36.475 22.1508 36.4995 22.1508C36.5239 22.1271 36.5362 22.1152 36.5362 22.1152H36.6464C36.6953 22.1152 36.7198 22.139 36.7198 22.1864C36.7198 22.2101 36.7198 22.2219 36.7198 22.2219L36.2057 23.4309C36.2057 23.4072 36.2057 23.4072 36.2057 23.4309C36.1812 23.4546 36.1568 23.4665 36.1323 23.4665H36.0589C36.0344 23.4665 36.0099 23.4665 35.9854 23.4665C35.9854 23.4428 35.9854 23.4309 35.9854 23.4309L35.6917 22.7909L35.4346 23.4309C35.4101 23.4546 35.3856 23.4665 35.3612 23.4665H35.2877C35.2632 23.4665 35.2388 23.4665 35.2143 23.4665C35.2143 23.4428 35.2143 23.4309 35.2143 23.4309L34.7002 22.2219C34.7002 22.2219 34.7002 22.2101 34.7002 22.1864C34.7002 22.139 34.7124 22.1152 34.7369 22.1152H34.8471C34.8716 22.1152 34.896 22.1271 34.9205 22.1508C34.9205 22.1508 34.9328 22.1627 34.9573 22.1864Z" fill="#FFF5B6"/>
<path fill-rule="evenodd" clip-rule="evenodd" d="M37.454 23.502C37.3561 23.502 37.2705 23.4783 37.197 23.4309C37.0991 23.4072 37.0257 23.3598 36.9767 23.2887C36.9033 23.2413 36.8543 23.1702 36.8298 23.0753C36.7809 22.9805 36.7563 22.8857 36.7563 22.7909C36.7563 22.696 36.7809 22.6131 36.8298 22.542C36.8543 22.4471 36.9033 22.3641 36.9767 22.293C37.0257 22.2456 37.0991 22.1982 37.197 22.1508C37.2705 22.1271 37.3561 22.1152 37.454 22.1152C37.5275 22.1152 37.6009 22.1271 37.6743 22.1508C37.7478 22.1745 37.8213 22.2219 37.8947 22.293C37.9437 22.3404 37.9803 22.4115 38.0048 22.5064C38.0538 22.5775 38.0783 22.6605 38.0783 22.7553V22.7909C38.0783 22.8383 38.0538 22.8738 38.0048 22.8975C37.9803 22.8975 37.9437 22.8975 37.8947 22.8975H37.0134C37.0379 23.0161 37.0869 23.1109 37.1603 23.182C37.2337 23.2294 37.3316 23.2531 37.454 23.2531C37.503 23.2531 37.552 23.2531 37.6009 23.2531C37.6744 23.2294 37.7233 23.1938 37.7478 23.1464C37.7723 23.1464 37.7967 23.1464 37.8212 23.1464C37.8212 23.1464 37.8335 23.1464 37.8579 23.1464L37.9314 23.2531C37.9314 23.2768 37.9314 23.2887 37.9314 23.2887C37.9314 23.3124 37.9314 23.3242 37.9314 23.3242C37.9069 23.3242 37.8947 23.3361 37.8947 23.3598C37.8213 23.3835 37.7478 23.4191 37.6743 23.4665C37.6009 23.4902 37.5275 23.502 37.454 23.502ZM37.0501 22.7198H37.8212C37.8212 22.6486 37.809 22.5894 37.7845 22.542C37.76 22.5183 37.7233 22.4827 37.6743 22.4353C37.6499 22.4116 37.6132 22.3879 37.5642 22.3642C37.5152 22.3405 37.4663 22.3286 37.4173 22.3286C37.3684 22.3286 37.3316 22.3405 37.3071 22.3642C37.2582 22.3879 37.2215 22.4116 37.197 22.4353C37.1481 22.4827 37.1113 22.5183 37.0868 22.542C37.0624 22.5894 37.0501 22.6486 37.0501 22.7198Z" fill="#FFF5B6"/>
<path d="M39.5104 22.1864V22.3286C39.5349 22.2575 39.5839 22.2101 39.6573 22.1864C39.7308 22.139 39.8165 22.1152 39.9144 22.1152C40.0123 22.1152 40.098 22.139 40.1714 22.1864C40.2204 22.2575 40.2693 22.3286 40.3183 22.3997C40.3673 22.3049 40.4285 22.2338 40.5019 22.1864C40.5753 22.139 40.6732 22.1152 40.7956 22.1152C40.8691 22.1152 40.9425 22.1271 41.016 22.1508C41.0649 22.1745 41.1139 22.2101 41.1628 22.2575C41.2118 22.3286 41.2485 22.3879 41.273 22.4353C41.273 22.5064 41.273 22.5893 41.273 22.6842V23.3953C41.273 23.419 41.273 23.4428 41.273 23.4665C41.2485 23.4665 41.2363 23.4665 41.2363 23.4665H41.1261C41.0772 23.4665 41.0527 23.4427 41.0527 23.3953V22.6486C41.0527 22.5775 41.0282 22.5064 40.9792 22.4353C40.9303 22.3642 40.8568 22.3286 40.7589 22.3286C40.71 22.3286 40.661 22.3405 40.612 22.3642C40.5631 22.3879 40.5264 22.4116 40.5019 22.4353C40.4774 22.459 40.4529 22.4945 40.4284 22.542C40.404 22.5894 40.3917 22.6367 40.3917 22.6842V23.3953C40.3917 23.4427 40.3673 23.4665 40.3183 23.4665H40.2081C40.1836 23.4665 40.1714 23.4665 40.1714 23.4665C40.1714 23.4428 40.1714 23.419 40.1714 23.3953V22.6486C40.1714 22.5775 40.1469 22.5064 40.098 22.4353C40.049 22.3642 39.9633 22.3286 39.8409 22.3286C39.8164 22.3286 39.7798 22.3405 39.7308 22.3642C39.6818 22.3879 39.6451 22.4116 39.6206 22.4353C39.5717 22.459 39.5472 22.4945 39.5472 22.542C39.5227 22.5657 39.5104 22.6012 39.5104 22.6486V23.3953C39.5104 23.4427 39.486 23.4665 39.437 23.4665H39.3268C39.2779 23.4665 39.2534 23.4427 39.2534 23.3953V22.1864C39.2534 22.1627 39.2779 22.1508 39.3268 22.1508H39.437C39.4615 22.1508 39.486 22.1627 39.5104 22.1864Z" fill="#FFF5B6"/>
<path fill-rule="evenodd" clip-rule="evenodd" d="M42.7051 23.3953V23.2887C42.6561 23.3361 42.6072 23.3835 42.5582 23.4309C42.4848 23.4783 42.3868 23.502 42.2644 23.502C42.1665 23.502 42.0809 23.4783 42.0074 23.4309C41.934 23.4072 41.8606 23.3598 41.7871 23.2887C41.7382 23.2413 41.6892 23.1702 41.6402 23.0753C41.6157 22.9805 41.6035 22.8857 41.6035 22.7909C41.6035 22.696 41.6157 22.6131 41.6402 22.542C41.6892 22.4471 41.7382 22.3641 41.7871 22.293C41.8606 22.2456 41.934 22.1982 42.0074 22.1508C42.0809 22.1271 42.1665 22.1152 42.2644 22.1152C42.3379 22.1152 42.3991 22.1152 42.448 22.1152C42.4725 22.1389 42.5093 22.1627 42.5582 22.1864C42.5827 22.2101 42.6072 22.2338 42.6316 22.2575C42.6561 22.2812 42.6806 22.3049 42.7051 22.3286V22.1864C42.7051 22.1627 42.7173 22.1508 42.7418 22.1508C42.7418 22.1271 42.754 22.1152 42.7785 22.1152H42.852C42.8765 22.1152 42.9009 22.1271 42.9254 22.1508C42.9254 22.1508 42.9254 22.1627 42.9254 22.1864V23.3953C42.9254 23.419 42.9254 23.4428 42.9254 23.4665C42.9009 23.4665 42.8765 23.4665 42.852 23.4665H42.7785C42.7296 23.4665 42.7051 23.4427 42.7051 23.3953ZM41.8605 22.7909C41.8605 22.862 41.8605 22.9212 41.8605 22.9686C41.885 23.0398 41.9218 23.099 41.9707 23.1464C41.9952 23.1701 42.0442 23.1938 42.1176 23.2175C42.1666 23.2412 42.2155 23.2531 42.2644 23.2531C42.3379 23.2531 42.3991 23.2412 42.448 23.2175C42.5215 23.2175 42.5704 23.1938 42.5949 23.1464C42.6439 23.099 42.6684 23.0516 42.6684 23.0042C42.6929 22.9331 42.7051 22.8738 42.7051 22.8264C42.7051 22.7553 42.6929 22.6842 42.6684 22.6131C42.6684 22.5656 42.6439 22.5182 42.5949 22.4708C42.5704 22.4234 42.5215 22.3879 42.448 22.3642C42.3991 22.3405 42.3379 22.3286 42.2644 22.3286C42.2155 22.3286 42.1543 22.3405 42.0808 22.3642C42.0319 22.3879 41.9952 22.4234 41.9707 22.4708C41.9218 22.5182 41.885 22.5656 41.8605 22.6131C41.8605 22.6842 41.8605 22.7434 41.8605 22.7909Z" fill="#FFF5B6"/>
<path d="M43.4026 23.3954V21.5108C43.4026 21.4871 43.4026 21.4753 43.4026 21.4753C43.4271 21.4516 43.4515 21.4397 43.476 21.4397H43.5862C43.5862 21.4397 43.5984 21.4516 43.6229 21.4753C43.6474 21.4753 43.6596 21.4871 43.6596 21.5108V22.6487L44.137 22.1509C44.137 22.1509 44.1492 22.1509 44.1737 22.1509C44.1737 22.1272 44.1859 22.1153 44.2104 22.1153H44.394C44.4185 22.1153 44.4307 22.1272 44.4307 22.1509C44.4307 22.1746 44.4307 22.1865 44.4307 22.1865C44.4307 22.1865 44.4307 22.1983 44.4307 22.222L43.9901 22.6487L44.651 23.3954C44.651 23.4191 44.651 23.431 44.651 23.431C44.651 23.4547 44.6388 23.4665 44.6143 23.4665H44.4307C44.4062 23.4665 44.394 23.4665 44.394 23.4665C44.3695 23.4428 44.3573 23.431 44.3573 23.431L43.8065 22.7909L43.6596 22.9687V23.3954C43.6596 23.4428 43.6351 23.4665 43.5862 23.4665H43.476C43.427 23.4665 43.4026 23.4428 43.4026 23.3954Z" fill="#FFF5B6"/>
<path fill-rule="evenodd" clip-rule="evenodd" d="M45.4591 23.502C45.3611 23.502 45.2754 23.4783 45.202 23.4309C45.1286 23.4072 45.0551 23.3598 44.9817 23.2887C44.9327 23.2413 44.8838 23.1702 44.8348 23.0753C44.8103 22.9805 44.7981 22.8857 44.7981 22.7909C44.7981 22.696 44.8103 22.6131 44.8348 22.542C44.8838 22.4471 44.9327 22.3641 44.9817 22.293C45.0551 22.2456 45.1286 22.1982 45.202 22.1508C45.2754 22.1271 45.3611 22.1152 45.4591 22.1152C45.5325 22.1152 45.6182 22.1271 45.7161 22.1508C45.7895 22.1745 45.8507 22.2219 45.8997 22.293C45.9486 22.3404 45.9976 22.4115 46.0466 22.5064C46.0711 22.5775 46.0833 22.6605 46.0833 22.7553V22.7909C46.0833 22.8383 46.0711 22.8738 46.0466 22.8975C45.9976 22.8975 45.9486 22.8975 45.8997 22.8975H45.0552C45.0552 23.0161 45.0919 23.1109 45.1653 23.182C45.2632 23.2294 45.3611 23.2531 45.4591 23.2531C45.508 23.2531 45.5692 23.2531 45.6427 23.2531C45.6916 23.2294 45.7406 23.1938 45.7896 23.1464C45.7896 23.1464 45.8018 23.1464 45.8263 23.1464C45.8507 23.1464 45.863 23.1464 45.863 23.1464L45.9364 23.2531C45.9364 23.2768 45.9364 23.2887 45.9364 23.2887C45.9364 23.3124 45.9364 23.3242 45.9364 23.3242C45.9364 23.3242 45.9242 23.3361 45.8997 23.3598C45.8507 23.3835 45.7895 23.4191 45.7161 23.4665C45.6426 23.4902 45.557 23.502 45.4591 23.502ZM45.0552 22.7198H45.863C45.8385 22.6486 45.814 22.5894 45.7896 22.542C45.7651 22.5183 45.7406 22.4827 45.7161 22.4353C45.6671 22.4116 45.6304 22.3879 45.606 22.3642C45.557 22.3405 45.508 22.3286 45.4591 22.3286C45.4101 22.3286 45.3611 22.3405 45.3122 22.3642C45.2632 22.3879 45.2265 22.4116 45.202 22.4353C45.153 22.4827 45.1164 22.5183 45.0919 22.542C45.0674 22.5894 45.0552 22.6486 45.0552 22.7198Z" fill="#FFF5B6"/>
<path d="M47.2214 21.7596C47.2214 21.7122 47.2337 21.6647 47.2582 21.6173C47.3072 21.5936 47.3561 21.5818 47.405 21.5818C47.454 21.5818 47.4907 21.5936 47.5152 21.6173C47.5642 21.6647 47.5886 21.7122 47.5886 21.7596C47.5886 21.807 47.5642 21.8426 47.5152 21.8663C47.4907 21.9137 47.454 21.9374 47.405 21.9374C47.3561 21.9374 47.3072 21.9137 47.2582 21.8663C47.2337 21.8426 47.2214 21.807 47.2214 21.7596ZM47.5152 22.1863V23.3953C47.5152 23.4427 47.4907 23.4664 47.4418 23.4664H47.3316C47.3071 23.4664 47.2949 23.4427 47.2949 23.3953V22.1863C47.2949 22.1389 47.3071 22.1152 47.3316 22.1152H47.4418C47.4907 22.1152 47.5152 22.1389 47.5152 22.1863Z" fill="#FFF5B6"/>
<path d="M48.47 23.5021C48.4455 23.5021 48.4333 23.5021 48.4333 23.5021C48.3843 23.5021 48.3354 23.5021 48.2864 23.5021C48.2375 23.4784 48.2008 23.4547 48.1763 23.431C48.1518 23.4073 48.1273 23.3717 48.1028 23.3243C48.0783 23.3006 48.0661 23.2532 48.0661 23.1821V22.3642H47.8825C47.858 22.3642 47.8458 22.3524 47.8458 22.3286C47.8213 22.3286 47.8091 22.3168 47.8091 22.2931V22.1865C47.8091 22.1627 47.8213 22.1509 47.8458 22.1509C47.8458 22.1272 47.858 22.1153 47.8825 22.1153H48.0661V21.7597C48.0661 21.7123 48.0783 21.6886 48.1028 21.6886L48.2497 21.6531C48.2742 21.6531 48.2864 21.6649 48.2864 21.6886C48.3109 21.7123 48.3231 21.7242 48.3231 21.7242V22.1153H48.5067C48.5557 22.1153 48.5802 22.139 48.5802 22.1865V22.2931C48.5802 22.3405 48.5557 22.3642 48.5067 22.3642H48.3231V23.0754C48.3231 23.1228 48.3231 23.1584 48.3231 23.1821C48.3231 23.2058 48.3354 23.2295 48.3599 23.2532C48.3599 23.2532 48.3721 23.2532 48.3966 23.2532C48.4211 23.2532 48.4455 23.2532 48.47 23.2532C48.519 23.2532 48.5435 23.2769 48.5435 23.3243V23.431C48.5435 23.4784 48.519 23.5021 48.47 23.5021Z" fill="#FFF5B6"/>
<path d="M50.0121 21.5108V22.3287C50.0366 22.3049 50.0733 22.2694 50.1222 22.222C50.1467 22.1983 50.1835 22.1865 50.2324 22.1865C50.2814 22.1628 50.3303 22.139 50.3793 22.1153C50.4283 22.1153 50.465 22.1153 50.4894 22.1153C50.5874 22.1153 50.6608 22.1272 50.7097 22.1509C50.7832 22.1746 50.8444 22.2101 50.8933 22.2576C50.9423 22.3287 50.979 22.3879 51.0035 22.4353C51.028 22.5065 51.0402 22.5894 51.0402 22.6842V23.3954C51.0402 23.4191 51.028 23.4428 51.0035 23.4665C51.0035 23.4665 50.9913 23.4665 50.9668 23.4665H50.8566C50.8321 23.4665 50.8077 23.4665 50.7832 23.4665C50.7832 23.4428 50.7832 23.4191 50.7832 23.3954V22.6842C50.7832 22.6368 50.7832 22.5895 50.7832 22.542C50.7587 22.4946 50.7342 22.4591 50.7097 22.4353C50.6853 22.4116 50.6486 22.388 50.5996 22.3642C50.5751 22.3405 50.5262 22.3287 50.4527 22.3287C50.4038 22.3287 50.3548 22.3405 50.3058 22.3642C50.2569 22.388 50.2202 22.4116 50.1957 22.4353C50.1467 22.4591 50.11 22.4946 50.0855 22.542C50.061 22.5657 50.0366 22.6013 50.0121 22.6487V23.3954C50.0121 23.4428 49.9998 23.4665 49.9753 23.4665H49.8652C49.8163 23.4665 49.7917 23.4428 49.7917 23.3954V21.5108C49.7917 21.4634 49.8163 21.4397 49.8652 21.4397H49.9753C49.9753 21.4397 49.9876 21.4516 50.0121 21.4753C50.0121 21.4753 50.0121 21.4871 50.0121 21.5108Z" fill="#FFF5B6"/>
<path fill-rule="evenodd" clip-rule="evenodd" d="M52.4358 23.3953V23.2887C52.3869 23.3361 52.3379 23.3835 52.2889 23.4309C52.2155 23.4783 52.1176 23.502 51.9952 23.502C51.8972 23.502 51.8116 23.4783 51.7381 23.4309C51.6647 23.4072 51.5913 23.3598 51.5178 23.2887C51.4689 23.2413 51.4199 23.1702 51.3709 23.0753C51.3465 22.9805 51.3342 22.8857 51.3342 22.7909C51.3342 22.696 51.3465 22.6131 51.3709 22.542C51.4199 22.4471 51.4689 22.3641 51.5178 22.293C51.5913 22.2456 51.6647 22.1982 51.7381 22.1508C51.8116 22.1271 51.8972 22.1152 51.9952 22.1152C52.0686 22.1152 52.1298 22.1152 52.1788 22.1152C52.2032 22.1389 52.24 22.1627 52.2889 22.1864C52.3134 22.2101 52.3379 22.2338 52.3624 22.2575C52.3868 22.2812 52.4113 22.3049 52.4358 22.3286V22.1864C52.4358 22.1627 52.4481 22.1508 52.4725 22.1508C52.4725 22.1271 52.4848 22.1152 52.5092 22.1152H52.5827C52.6072 22.1152 52.6316 22.1271 52.6561 22.1508C52.6561 22.1508 52.6561 22.1627 52.6561 22.1864V23.3953C52.6561 23.419 52.6561 23.4428 52.6561 23.4665C52.6316 23.4665 52.6072 23.4665 52.5827 23.4665H52.5092C52.4603 23.4665 52.4358 23.4427 52.4358 23.3953ZM51.5545 22.7909C51.5545 22.862 51.5668 22.9212 51.5912 22.9686C51.6157 23.0398 51.6525 23.099 51.7014 23.1464C51.7259 23.1701 51.7749 23.1938 51.8483 23.2175C51.8973 23.2412 51.9462 23.2531 51.9952 23.2531C52.0686 23.2531 52.1298 23.2412 52.1788 23.2175C52.2522 23.2175 52.3012 23.1938 52.3256 23.1464C52.3746 23.099 52.3991 23.0516 52.3991 23.0042C52.4236 22.9331 52.4358 22.8738 52.4358 22.8264C52.4358 22.7553 52.4236 22.6842 52.3991 22.6131C52.3991 22.5656 52.3746 22.5182 52.3256 22.4708C52.3012 22.4234 52.2522 22.3879 52.1788 22.3642C52.1298 22.3405 52.0686 22.3286 51.9952 22.3286C51.9462 22.3286 51.885 22.3405 51.8116 22.3642C51.7626 22.3879 51.7259 22.4234 51.7014 22.4708C51.6525 22.5182 51.6157 22.5656 51.5912 22.6131C51.5668 22.6842 51.5545 22.7434 51.5545 22.7909Z" fill="#FFF5B6"/>
<path fill-rule="evenodd" clip-rule="evenodd" d="M53.1333 23.9287V22.1864C53.1333 22.139 53.1578 22.1152 53.2067 22.1152H53.2801C53.3291 22.1152 53.3536 22.139 53.3536 22.1864L53.3903 22.3286C53.4148 22.2575 53.4638 22.1982 53.5372 22.1508C53.6106 22.1271 53.6963 22.1152 53.7942 22.1152C53.8921 22.1152 53.9779 22.1271 54.0513 22.1508C54.1247 22.1982 54.1859 22.2456 54.2349 22.293C54.3083 22.3641 54.3573 22.4471 54.3817 22.542C54.4307 22.6131 54.4552 22.696 54.4552 22.7909C54.4552 22.8857 54.4307 22.9805 54.3817 23.0753C54.3573 23.1465 54.3083 23.2176 54.2349 23.2887C54.1859 23.3598 54.1247 23.4072 54.0513 23.4309C53.9779 23.4783 53.8921 23.502 53.7942 23.502C53.6963 23.502 53.6106 23.4783 53.5372 23.4309C53.4638 23.4072 53.4148 23.3598 53.3903 23.2887V23.9287C53.3903 23.9761 53.3536 23.9998 53.2801 23.9998H53.2067C53.1822 23.9998 53.1578 23.988 53.1333 23.9643C53.1333 23.9643 53.1333 23.9524 53.1333 23.9287ZM53.3903 22.7909C53.3903 22.862 53.3903 22.9212 53.3903 22.9686C53.4148 23.0398 53.4515 23.099 53.5005 23.1464C53.525 23.1701 53.5617 23.1938 53.6106 23.2175C53.6596 23.2412 53.7208 23.2531 53.7942 23.2531C53.8432 23.2531 53.8922 23.2412 53.9411 23.2175C53.9901 23.1938 54.0268 23.1701 54.0513 23.1464C54.1003 23.099 54.1369 23.0398 54.1614 22.9686C54.1859 22.9212 54.1981 22.862 54.1981 22.7909C54.1981 22.7434 54.1859 22.6842 54.1614 22.6131C54.1369 22.5656 54.1003 22.5182 54.0513 22.4708C54.0268 22.4234 53.9901 22.3879 53.9411 22.3642C53.8922 22.3405 53.8432 22.3286 53.7942 22.3286C53.7208 22.3286 53.6596 22.3405 53.6106 22.3642C53.5617 22.3879 53.525 22.4234 53.5005 22.4708C53.4515 22.5182 53.4148 22.5656 53.3903 22.6131C53.3903 22.6842 53.3903 22.7434 53.3903 22.7909Z" fill="#FFF5B6"/>
<path fill-rule="evenodd" clip-rule="evenodd" d="M54.7859 23.9287V22.1864C54.7859 22.139 54.8104 22.1152 54.8593 22.1152H54.9327C54.9817 22.1152 55.0184 22.139 55.0429 22.1864V22.3286C55.0919 22.2575 55.1531 22.1982 55.2265 22.1508C55.2999 22.1271 55.3734 22.1152 55.4468 22.1152C55.5447 22.1152 55.6304 22.1271 55.7039 22.1508C55.7773 22.1982 55.8508 22.2456 55.9242 22.293C55.9732 22.3641 56.0221 22.4471 56.0711 22.542C56.0956 22.6131 56.1078 22.696 56.1078 22.7909C56.1078 22.8857 56.0956 22.9805 56.0711 23.0753C56.0221 23.1465 55.9732 23.2176 55.9242 23.2887C55.8508 23.3598 55.7773 23.4072 55.7039 23.4309C55.6304 23.4783 55.5447 23.502 55.4468 23.502C55.3489 23.502 55.2755 23.4783 55.2265 23.4309C55.1531 23.4072 55.0919 23.3598 55.0429 23.2887V23.9287C55.0429 23.9761 55.0184 23.9998 54.9695 23.9998H54.896C54.8715 23.9998 54.8471 23.988 54.8226 23.9643C54.7981 23.9643 54.7859 23.9524 54.7859 23.9287ZM55.0429 22.7909C55.0429 22.862 55.0551 22.9212 55.0796 22.9686C55.1041 23.0398 55.1286 23.099 55.1531 23.1464C55.202 23.1701 55.251 23.1938 55.2999 23.2175C55.3489 23.2412 55.3979 23.2531 55.4468 23.2531C55.4958 23.2531 55.5447 23.2412 55.5937 23.2175C55.6427 23.1938 55.6916 23.1701 55.7406 23.1464C55.7651 23.099 55.7895 23.0398 55.814 22.9686C55.8385 22.9212 55.8507 22.862 55.8507 22.7909C55.8507 22.7434 55.8385 22.6842 55.814 22.6131C55.7895 22.5656 55.7651 22.5182 55.7406 22.4708C55.6916 22.4234 55.6427 22.3879 55.5937 22.3642C55.5447 22.3405 55.4958 22.3286 55.4468 22.3286C55.3979 22.3286 55.3489 22.3405 55.2999 22.3642C55.251 22.3879 55.202 22.4234 55.1531 22.4708C55.1286 22.5182 55.1041 22.5656 55.0796 22.6131C55.0551 22.6842 55.0429 22.7434 55.0429 22.7909Z" fill="#FFF5B6"/>
<path fill-rule="evenodd" clip-rule="evenodd" d="M57.0257 23.502C56.9278 23.502 56.8421 23.4783 56.7687 23.4309C56.6952 23.4072 56.6218 23.3598 56.5483 23.2887C56.4994 23.2413 56.4504 23.1702 56.4015 23.0753C56.377 22.9805 56.3647 22.8857 56.3647 22.7909C56.3647 22.696 56.377 22.6131 56.4015 22.542C56.4504 22.4471 56.4994 22.3641 56.5483 22.293C56.6218 22.2456 56.6952 22.1982 56.7687 22.1508C56.8421 22.1271 56.9278 22.1152 57.0257 22.1152C57.0992 22.1152 57.1848 22.1271 57.2827 22.1508C57.3562 22.1745 57.4174 22.2219 57.4663 22.293C57.5153 22.3404 57.5643 22.4115 57.6132 22.5064C57.6377 22.5775 57.6499 22.6605 57.6499 22.7553V22.7909C57.6499 22.8383 57.6377 22.8738 57.6132 22.8975C57.5643 22.8975 57.5153 22.8975 57.4663 22.8975H56.6218C56.6218 23.0161 56.6585 23.1109 56.7319 23.182C56.8299 23.2294 56.9278 23.2531 57.0257 23.2531C57.0747 23.2531 57.1359 23.2531 57.2093 23.2531C57.2583 23.2294 57.3072 23.1938 57.3562 23.1464C57.3562 23.1464 57.3684 23.1464 57.3929 23.1464C57.4174 23.1464 57.4296 23.1464 57.4296 23.1464L57.503 23.2531C57.503 23.2768 57.503 23.2887 57.503 23.2887C57.503 23.3124 57.503 23.3242 57.503 23.3242C57.503 23.3242 57.4908 23.3361 57.4663 23.3598C57.4174 23.3835 57.3562 23.4191 57.2827 23.4665C57.2093 23.4902 57.1236 23.502 57.0257 23.502ZM56.6218 22.7198H57.4296C57.4051 22.6486 57.3807 22.5894 57.3562 22.542C57.3317 22.5183 57.3072 22.4827 57.2827 22.4353C57.2338 22.4116 57.1971 22.3879 57.1726 22.3642C57.1236 22.3405 57.0747 22.3286 57.0257 22.3286C56.9768 22.3286 56.9278 22.3405 56.8788 22.3642C56.8299 22.3879 56.7931 22.4116 56.7687 22.4353C56.7197 22.4827 56.683 22.5183 56.6585 22.542C56.634 22.5894 56.6218 22.6486 56.6218 22.7198Z" fill="#FFF5B6"/>
<path d="M58.2008 22.1864V22.3286C58.2253 22.3049 58.262 22.2693 58.311 22.2219C58.3354 22.1982 58.3721 22.1864 58.4211 22.1864C58.47 22.1627 58.5068 22.1389 58.5313 22.1152C58.5802 22.1152 58.6292 22.1152 58.6782 22.1152C58.7516 22.1152 58.825 22.1271 58.8985 22.1508C58.9719 22.1745 59.0331 22.2101 59.0821 22.2575C59.131 22.3286 59.1678 22.3879 59.1922 22.4353C59.2167 22.5064 59.2289 22.5893 59.2289 22.6842V23.3953C59.2289 23.419 59.2167 23.4428 59.1922 23.4665C59.1678 23.4665 59.1555 23.4665 59.1555 23.4665H59.0086C58.9842 23.4665 58.9719 23.4665 58.9719 23.4665C58.9719 23.4428 58.9719 23.419 58.9719 23.3953V22.6842C58.9719 22.6367 58.9597 22.5894 58.9352 22.542C58.9107 22.4945 58.8862 22.459 58.8618 22.4353C58.8373 22.4116 58.8005 22.3879 58.7516 22.3642C58.7271 22.3405 58.6781 22.3286 58.6047 22.3286C58.5557 22.3286 58.5068 22.3405 58.4578 22.3642C58.4089 22.3879 58.3721 22.4116 58.3477 22.4353C58.2987 22.459 58.262 22.4827 58.2375 22.5064C58.213 22.5538 58.2008 22.5894 58.2008 22.6131V23.3953C58.2008 23.4427 58.1763 23.4665 58.1274 23.4665H58.0172C57.9927 23.4665 57.9805 23.4427 57.9805 23.3953V22.1864C57.9805 22.1627 57.9805 22.1508 57.9805 22.1508C58.0049 22.1271 58.0172 22.1152 58.0172 22.1152H58.1274C58.1763 22.1152 58.2008 22.139 58.2008 22.1864Z" fill="#FFF5B6"/>
</svg>
