<svg width="30" height="23" viewBox="0 0 30 23" fill="none" xmlns="http://www.w3.org/2000/svg">
<path d="M27.8182 4.86H2.18182C0.981818 4.86 0 3.888 0 2.7V2.16C0 0.972 0.981818 0 2.18182 0H27.8182C29.0182 0 30 0.972 30 2.16V2.7C30 3.888 29.0182 4.86 27.8182 4.86Z" fill="#FFF5B6"/>
<path d="M27.8182 13.86H2.18182C0.981818 13.86 0 12.888 0 11.7V11.16C0 9.972 0.981818 9 2.18182 9H27.8182C29.0182 9 30 9.972 30 11.16V11.7C30 12.888 29.0182 13.86 27.8182 13.86Z" fill="#FFF5B6"/>
<path d="M27.8182 22.4999H2.18182C0.981818 22.4999 0 21.5279 0 20.3399V19.7999C0 18.6119 0.981818 17.6399 2.18182 17.6399H27.8182C29.0182 17.6399 30 18.6119 30 19.7999V20.3399C30 21.5279 29.0182 22.4999 27.8182 22.4999Z" fill="#FFF5B6"/>
</svg>
