<svg width="921" height="310" viewBox="0 0 921 310" fill="none" xmlns="http://www.w3.org/2000/svg">
<path d="M579.835 89.3H341.129C325.376 89.3 312.5 76.3525 312.5 60.5558V30.0082C312.5 14.2115 325.376 1.30005 341.129 1.30005H579.835C595.588 1.30005 608.5 14.2115 608.5 30.0082V60.5558C608.5 76.3525 595.588 89.3 579.835 89.3Z" stroke="#FFF5B6" stroke-width="1.5"/>
<path d="M636.335 309H397.629C381.876 309 369 296.052 369 280.256V249.708C369 233.911 381.876 221 397.629 221H636.335C652.088 221 665 233.911 665 249.708V280.256C665 296.052 652.088 309 636.335 309Z" stroke="#FFF5B6" stroke-width="1.5"/>
<path d="M891.535 89H652.829C637.076 89 624.2 76.0525 624.2 60.2557V29.7082C624.2 13.9115 637.076 1 652.829 1H891.535C907.288 1 920.2 13.9115 920.2 29.7082V60.2557C920.2 76.0525 907.288 89 891.535 89Z" stroke="#FFF5B6" stroke-width="1.5"/>
<path d="M527.335 199H288.629C272.876 199 260 186.052 260 170.256V139.708C260 123.911 272.876 111 288.629 111H527.335C543.088 111 556 123.911 556 139.708V170.256C556 186.052 543.088 199 527.335 199Z" stroke="#FFF5B6" stroke-width="1.5"/>
<path d="M268.335 89.3H29.6292C13.8761 89.3 1.00024 76.3525 1.00024 60.5558V30.0082C1.00024 14.2115 13.8761 1.30005 29.6292 1.30005H268.335C284.088 1.30005 297 14.2115 297 30.0082V60.5558C297 76.3525 284.088 89.3 268.335 89.3Z" stroke="#FFF5B6" stroke-width="1.5"/>
<path d="M325.335 309H86.6289C70.8758 309 58 296.052 58 280.256V249.708C58 233.911 70.8758 221 86.6289 221H325.335C341.088 221 354 233.911 354 249.708V280.256C354 296.052 341.088 309 325.335 309Z" stroke="#FFF5B6" stroke-width="1.5"/>
<path d="M838.335 199H599.629C583.876 199 571 186.052 571 170.256V139.708C571 123.911 583.876 111 599.629 111H838.335C854.088 111 867 123.911 867 139.708V170.256C867 186.052 854.088 199 838.335 199Z" stroke="#FFF5B6" stroke-width="1.5"/>
</svg>
