<svg width="1763" height="846" viewBox="0 0 1763 846" fill="none" xmlns="http://www.w3.org/2000/svg">
<path d="M1607.6 245.3H943.9C900.1 245.3 864.3 209.4 864.3 165.6V80.9001C864.3 37.1001 900.1 1.30005 943.9 1.30005H1607.6C1651.4 1.30005 1687.3 37.1001 1687.3 80.9001V165.6C1687.3 209.4 1651.4 245.3 1607.6 245.3Z" stroke="#FFF5B6" stroke-width="1.5"/>
<path d="M1744.1 844.3H1080.4C1036.6 844.3 1000.8 808.4 1000.8 764.6V679.9C1000.8 636.1 1036.6 600.3 1080.4 600.3H1744.1C1787.9 600.3 1823.8 636.1 1823.8 679.9V764.6C1823.8 808.4 1787.9 844.3 1744.1 844.3Z" stroke="#FFF5B6" stroke-width="1.5"/>
<path d="M2477.6 245.3H1813.9C1770.1 245.3 1734.3 209.4 1734.3 165.6V80.9001C1734.3 37.1001 1770.1 1.30005 1813.9 1.30005H2477.6C2521.4 1.30005 2557.3 37.1001 2557.3 80.9001V165.6C2557.3 209.4 2521.4 245.3 2477.6 245.3Z" stroke="#FFF5B6" stroke-width="1.5"/>
<path d="M1459.1 541.3H795.4C751.6 541.3 715.8 505.4 715.8 461.6V376.9C715.8 333.1 751.6 297.3 795.4 297.3H1459.1C1502.9 297.3 1538.8 333.1 1538.8 376.9V461.6C1538.8 505.4 1502.9 541.3 1459.1 541.3Z" stroke="#FFF5B6" stroke-width="1.5"/>
<path d="M744.1 245.3H80.3998C36.5998 245.3 0.799805 209.4 0.799805 165.6V80.9001C0.799805 37.1001 36.5998 1.30005 80.3998 1.30005H744.1C787.9 1.30005 823.8 37.1001 823.8 80.9001V165.6C823.8 209.4 787.9 245.3 744.1 245.3Z" stroke="#FFF5B6" stroke-width="1.5"/>
<path d="M877.1 844.3H213.4C169.6 844.3 133.8 808.4 133.8 764.6V679.9C133.8 636.1 169.6 600.3 213.4 600.3H877.1C920.9 600.3 956.8 636.1 956.8 679.9V764.6C956.8 808.4 920.9 844.3 877.1 844.3Z" stroke="#FFF5B6" stroke-width="1.5"/>
<path d="M2327.6 541.3H1663.9C1620.1 541.3 1584.3 505.4 1584.3 461.6V376.9C1584.3 333.1 1620.1 297.3 1663.9 297.3H2327.6C2371.4 297.3 2407.3 333.1 2407.3 376.9V461.6C2407.3 505.4 2371.4 541.3 2327.6 541.3Z" stroke="#FFF5B6" stroke-width="1.5"/>
</svg>
