<svg width="294" height="38" viewBox="0 0 294 38" fill="none" xmlns="http://www.w3.org/2000/svg">
<path d="M38 19.0177C38 29.4809 29.4809 38 18.9823 38C8.4837 38 0 29.4809 0 19.0177C0 8.51909 8.4837 0 18.9823 0C29.4809 0 38 8.51909 38 19.0177Z" fill="#FFF5B6"/>
<path d="M123.5 19.0177C123.5 29.4809 114.981 38 104.482 38C93.9835 38 85.4998 29.4809 85.4998 19.0177C85.4998 8.51909 93.9835 0 104.482 0C114.981 0 123.5 8.51909 123.5 19.0177Z" fill="#FFF5B6"/>
<path d="M209 19.0177C209 29.4809 200.481 38 189.982 38C179.484 38 171 29.4809 171 19.0177C171 8.51909 179.484 0 189.982 0C200.481 0 209 8.51909 209 19.0177Z" fill="#FFF5B6"/>
<path d="M294 19.0177C294 29.4809 285.481 38 274.982 38C264.484 38 256 29.4809 256 19.0177C256 8.51909 264.484 0 274.982 0C285.481 0 294 8.51909 294 19.0177Z" fill="#FFF5B6"/>
</svg>
