<svg width="1148" height="1356" viewBox="0 0 1148 1356" fill="none" xmlns="http://www.w3.org/2000/svg">
<path fill-rule="evenodd" clip-rule="evenodd" d="M978.5 715.9C976 720 975.5 729 977.5 733.4L1104.1 1016.1C1117.4 1045.8 1108.7 1063.4 1102.4 1071.2C1096.1 1079 1080.7 1091 1049.4 1083.7L750.4 1014C745.8 1013 737.1 1015.2 733.6 1018.4L628.1 1116C627.7 1119.4 513.4 1226.9 513.4 1226.9C508.3 1231.6 503.5 1235.2 498.8 1237.8C492.4 1241.5 486.4 1243.4 481.1 1244.3C469.4 1248 460.1 1246.2 454.4 1243.9C445.1 1240.3 429.2 1229.3 426.5 1196.9L400.3 887.2C399.8 882.4 395.1 874.9 390.9 872.5L124 719.5C100.9 706.2 94.7999 690.8 93.6999 680.1C93.2999 677.4 93.1999 674.9 93.2999 672.9C93.7999 662.9 99.0999 644.2 128.6 631.5L411.1 511.1C415.4 509.2 421.1 502.3 422 497.6L481 194.1C487.2 162.3 504.3 153.2 514 150.7C523.7 148.2 543 147.6 564.3 172.1L768.4 406.5C771.7 410.2 779.9 413.4 784.7 412.9L934.5 396.1C936.5 394.6 938.9 393.5 941.6 393.2L1090.7 376C1097.6 375.2 1103.7 375.2 1109 375.8C1128.3 377.9 1137.7 387.8 1141.9 394.5C1144.6 398.7 1147.6 405.5 1147.8 414.7C1148.7 424.2 1146.7 436.6 1137.7 451.9L1069.3 567.9C1067.8 570.5 1065.7 572.4 1063.2 573.6L978.5 715.9ZM953.4 700.5L1112 434C1116.4 426.6 1118.2 420.8 1118.3 416.6C1118.1 415.2 1117.73 414.067 1117.2 413.2C1115 409.7 1107.7 406.6 1093.9 408.1L788.2 442.4C773.7 443.9 756.1 437 746.4 425.9L542.2 191.5C533.1 181 525.7 178.4 521.7 179.4C517.8 180.5 512.6 186.4 509.9 200.1L450.9 503.7C448.1 517.9 436 532.9 422.8 538.4L267.5 604.6C266.5 605.4 265.5 606.1 264.3 606.6L140.6 659.9C127.9 665.3 123.1 671.6 122.8 675.8C122.8 676 122.9 676.2 122.9 676.4C123.7 680.6 128.2 686.6 138.7 692.6L408.1 845.9C420.9 853.4 431.2 869.5 432.5 883.9L462 1192.7C463.3 1206.6 467.9 1213.1 471.7 1214.6C472.4 1214.9 473.4 1215 474.5 1215C478 1213.5 482.1 1210.8 486.9 1206.5L713.8 996.4C724.5 986.6 743.1 981.7 757.1 985L1056.1 1054.7C1069.5 1057.8 1077.1 1055.5 1079.7 1052.4C1082.3 1049.2 1083 1041.2 1077.3 1028.4L950.6 745.6C944.7 732 945.9 713 953.4 700.5Z" fill="#FFF5B6"/>
<path d="M8.56921 613.41L11.0659 612.299L23.3206 624.024L23.523 623.934L23.0095 606.981L25.5061 605.87L33.1972 623.144L31.2403 624.015L25.3969 610.891L25.2282 610.966L25.6734 626.494L23.784 627.335L12.5424 616.614L12.3737 616.689L18.2171 629.813L16.2602 630.685L8.56921 613.41ZM31.7921 603.071L39.4831 620.345L37.3913 621.276L29.7003 604.002L31.7921 603.071ZM36.9984 600.753L44.6516 605.956L44.7865 605.896L46.0405 596.727L48.5034 595.63L46.917 606.686L56.1944 612.905L53.7315 614.001L46.1385 608.933L46.0035 608.993L44.6895 618.027L42.2265 619.124L43.9479 608.008L34.5355 601.849L36.9984 600.753ZM70.3244 606.897C69.1885 607.402 68.1175 607.63 67.1112 607.579C66.105 607.529 65.2183 607.24 64.4511 606.712C63.6839 606.185 63.0925 605.454 62.6769 604.521C62.3564 603.801 62.2241 603.095 62.2799 602.403C62.3388 601.703 62.5318 600.994 62.8588 600.276C63.1889 599.549 63.6006 598.786 64.0938 597.987L65.7643 595.02C66.1108 594.482 66.3489 593.965 66.4786 593.469C66.6139 592.971 66.5501 592.427 66.2872 591.836C66.0919 591.398 65.7089 591.059 65.1381 590.822C64.573 590.581 63.9784 590.6 63.3542 590.878C62.9156 591.073 62.5777 591.359 62.3404 591.734C62.1063 592.101 61.97 592.498 61.9315 592.926C61.8962 593.346 61.9586 593.736 62.1188 594.096C62.2991 594.501 62.5915 594.863 62.9961 595.181C63.4038 595.492 63.8755 595.787 64.4113 596.067C64.9502 596.339 65.5054 596.618 66.0768 596.902L78.3166 603.055L75.9211 604.122L65.8608 599.141C64.928 598.681 64.0815 598.262 63.3213 597.887C62.5611 597.511 61.9058 597.099 61.3555 596.65C60.8053 596.201 60.3799 595.639 60.0795 594.964C59.734 594.188 59.6026 593.431 59.6852 592.694C59.771 591.948 60.0533 591.273 60.5323 590.669C61.0144 590.057 61.6771 589.563 62.5206 589.187C63.3866 588.802 64.2068 588.639 64.9811 588.698C65.753 588.752 66.4303 588.98 67.0131 589.38C67.5933 589.776 68.0261 590.294 68.3115 590.935C68.6796 591.761 68.7935 592.57 68.6534 593.36C68.5133 594.15 68.2054 594.964 67.7297 595.803L65.43 599.899C64.9094 600.818 64.6315 601.609 64.5963 602.271C64.5611 602.934 64.5961 603.383 64.7012 603.619C64.9416 604.159 65.3062 604.6 65.7952 604.941C66.2841 605.283 66.8483 605.483 67.4877 605.542C68.1271 605.601 68.7898 605.478 69.4758 605.172C70.1281 604.882 70.7022 604.461 71.198 603.91C71.6914 603.354 72.0707 602.7 72.3358 601.948C72.6065 601.194 72.7229 600.381 72.6848 599.509C72.6524 598.634 72.4296 597.733 72.0165 596.805L73.9396 595.949C74.4503 597.096 74.735 598.091 74.7937 598.934C74.8524 599.777 74.8072 600.477 74.6582 601.036C74.5092 601.594 74.3786 602.019 74.2663 602.312C74.2363 602.426 74.212 602.538 74.1934 602.647C74.1747 602.757 74.1504 602.869 74.1205 602.983C73.8417 603.855 73.3466 604.635 72.6352 605.322C71.9213 606.004 71.151 606.529 70.3244 606.897ZM79.7794 581.706L82.276 580.594L94.5308 592.319L94.7332 592.229L94.2196 575.276L96.7163 574.165L104.407 591.439L102.45 592.31L96.6071 579.186L96.4384 579.261L96.8835 594.789L94.9942 595.63L83.7526 584.909L83.5839 584.984L89.4272 598.109L87.4704 598.98L79.7794 581.706ZM109.31 589.256L107.117 590.233L105.769 570.134L107.928 569.173L121.962 583.623L119.769 584.6L108.133 572.356L107.998 572.416L109.31 589.256ZM107.115 582.148L115.955 578.212L116.781 580.068L107.942 584.004L107.115 582.148ZM114.825 568.326L113.999 566.47L126.955 560.702L127.781 562.557L122.349 564.976L129.214 580.394L127.122 581.326L120.257 565.907L114.825 568.326ZM145.768 558.794L143.676 559.725C143.285 559.179 142.833 558.746 142.321 558.429C141.814 558.108 141.273 557.891 140.697 557.777C140.123 557.655 139.537 557.633 138.939 557.711C138.34 557.789 137.754 557.955 137.18 558.211C136.135 558.676 135.305 559.363 134.691 560.269C134.083 561.173 133.758 562.251 133.715 563.503C133.679 564.752 133.993 566.125 134.659 567.621C135.325 569.117 136.135 570.269 137.088 571.077C138.046 571.884 139.065 572.363 140.144 572.516C141.228 572.667 142.293 572.509 143.339 572.044C143.913 571.788 144.429 571.464 144.887 571.071C145.346 570.679 145.723 570.231 146.018 569.729C146.316 569.219 146.516 568.669 146.617 568.078C146.721 567.479 146.702 566.854 146.56 566.203L148.652 565.272C148.888 566.225 148.953 567.142 148.847 568.025C148.741 568.907 148.488 569.731 148.087 570.496C147.684 571.255 147.154 571.932 146.496 572.528C145.844 573.122 145.082 573.612 144.21 574.001C142.737 574.656 141.267 574.88 139.799 574.671C138.332 574.462 136.973 573.84 135.725 572.806C134.476 571.772 133.446 570.344 132.635 568.522C131.824 566.7 131.452 564.979 131.519 563.359C131.586 561.739 132.033 560.314 132.859 559.084C133.686 557.853 134.836 556.91 136.309 556.254C137.181 555.866 138.055 555.628 138.933 555.541C139.816 555.451 140.675 555.513 141.512 555.726C142.346 555.935 143.126 556.295 143.852 556.807C144.576 557.313 145.215 557.975 145.768 558.794ZM154.436 569.165L146.745 551.891L148.837 550.959L152.261 558.652L161.472 554.551L158.047 546.858L160.139 545.927L167.83 563.201L165.738 564.133L162.298 556.407L153.088 560.507L156.528 568.234L154.436 569.165ZM181.836 556.966L169.421 541.794L171.547 540.848L181.421 553.31L181.59 553.235L179.003 537.528L181.365 536.477L191.307 548.908L191.475 548.833L188.821 533.157L190.947 532.211L193.914 551.588L191.755 552.549L181.814 540.481L181.679 540.541L183.995 556.004L181.836 556.966ZM201.244 548.324L193.553 531.05L203.979 526.408L204.805 528.264L196.471 531.974L199.07 537.811L206.864 534.341L207.69 536.197L199.896 539.667L202.51 545.537L210.978 541.767L211.805 543.623L201.244 548.324ZM214.429 521.756L216.926 520.644L229.181 532.369L229.383 532.279L228.869 515.326L231.366 514.215L239.057 531.489L237.1 532.36L231.257 519.236L231.088 519.311L231.533 534.839L229.644 535.68L218.402 524.959L218.234 525.034L224.077 538.159L222.12 539.03L214.429 521.756ZM243.96 529.306L241.767 530.283L240.419 510.184L242.578 509.223L256.612 523.673L254.419 524.65L242.783 512.406L242.648 512.467L243.96 529.306ZM241.765 522.198L250.605 518.262L251.431 520.118L242.591 524.054L241.765 522.198ZM259.303 522.475L251.612 505.201L253.703 504.27L257.519 512.839L257.721 512.749L261.666 500.724L264.399 499.508L260.615 510.531L272.09 516.782L269.559 517.909L259.979 512.553L258.901 515.943L261.394 521.544L259.303 522.475ZM274.797 515.577L267.106 498.302L277.531 493.661L278.358 495.516L270.024 499.227L272.623 505.063L280.417 501.593L281.243 503.449L273.449 506.919L276.063 512.79L284.531 509.019L285.357 510.875L274.797 515.577ZM290.074 488.076L297.765 505.351L295.673 506.282L287.982 489.008L290.074 488.076ZM294.15 488.485L293.323 486.63L306.279 480.861L307.105 482.717L301.673 485.135L308.538 500.554L306.446 501.485L299.582 486.067L294.15 488.485ZM323.879 493.724L316.188 476.45L318.28 475.518L321.705 483.211L330.915 479.11L327.49 471.417L329.582 470.486L337.273 487.76L335.181 488.692L331.741 480.966L322.531 485.066L325.971 492.793L323.879 493.724ZM342.17 485.58L339.976 486.557L338.628 466.459L340.788 465.497L354.822 479.947L352.629 480.924L340.992 468.681L340.857 468.741L342.17 485.58ZM339.975 478.472L348.815 474.537L349.641 476.392L340.801 480.328L339.975 478.472ZM357.512 478.749L349.821 461.475L355.658 458.876C357.013 458.273 358.23 458.024 359.308 458.131C360.389 458.229 361.322 458.598 362.106 459.24C362.89 459.881 363.509 460.711 363.962 461.728C364.415 462.746 364.619 463.764 364.573 464.781C364.534 465.796 364.194 466.743 363.554 467.621C362.911 468.493 361.918 469.228 360.574 469.827L356.39 471.689L355.564 469.834L359.68 468.001C360.608 467.588 361.282 467.096 361.701 466.525C362.121 465.954 362.336 465.34 362.346 464.681C362.359 464.015 362.212 463.336 361.904 462.645C361.596 461.953 361.191 461.392 360.69 460.962C360.194 460.529 359.593 460.284 358.888 460.228C358.179 460.166 357.356 460.344 356.417 460.762L352.739 462.399L359.604 477.818L357.512 478.749ZM372.589 472.037L364.898 454.762L370.735 452.164C372.09 451.56 373.307 451.312 374.385 451.418C375.466 451.516 376.399 451.886 377.183 452.527C377.967 453.168 378.586 453.998 379.039 455.016C379.492 456.033 379.696 457.051 379.651 458.069C379.611 459.084 379.271 460.03 378.631 460.908C377.988 461.78 376.995 462.515 375.651 463.114L371.467 464.976L370.641 463.121L374.757 461.288C375.685 460.875 376.359 460.383 376.778 459.812C377.198 459.241 377.413 458.627 377.423 457.969C377.436 457.303 377.289 456.624 376.981 455.932C376.673 455.24 376.268 454.679 375.767 454.249C375.271 453.816 374.67 453.572 373.965 453.515C373.257 453.453 372.433 453.631 371.494 454.049L367.816 455.687L374.681 471.105L372.589 472.037ZM387.666 465.324L379.975 448.05L390.401 443.408L391.227 445.264L382.893 448.974L385.492 454.811L393.286 451.341L394.112 453.196L386.318 456.666L388.932 462.537L397.4 458.767L398.227 460.622L387.666 465.324ZM407.869 435.631L415.56 452.905L413.536 453.806L398.084 444.434L397.915 444.509L403.954 458.072L401.862 459.004L394.171 441.729L396.195 440.828L411.696 450.219L411.865 450.144L405.811 436.547L407.869 435.631Z" fill="#FFF5B6"/>
<path d="M15.6987 703.491L17.9907 704.98L14.8315 721.643L15.0173 721.764L28.9554 712.1L31.2474 713.589L20.9488 729.447L19.1523 728.28L26.9769 716.232L26.822 716.131L14.0417 724.962L12.3072 723.835L15.1759 708.568L15.021 708.468L7.1965 720.516L5.40003 719.35L15.6987 703.491ZM37.0182 717.336L26.7196 733.195L24.7992 731.948L35.0978 716.089L37.0182 717.336ZM41.7978 720.44L41.6019 729.693L41.7258 729.773L50.0987 725.831L52.3598 727.299L42.2238 731.99L42.0612 743.158L39.8001 741.689L39.9155 732.561L39.7916 732.48L31.4992 736.299L29.2381 734.83L39.4981 730.22L39.5367 718.972L41.7978 720.44ZM54.7957 751.736C53.753 751.059 52.9788 750.284 52.4732 749.413C51.9675 748.541 51.7271 747.64 51.7517 746.709C51.7763 745.779 52.0669 744.885 52.6234 744.028C53.0525 743.367 53.5724 742.872 54.1831 742.542C54.8022 742.21 55.5021 741.985 56.2826 741.868C57.0717 741.75 57.9356 741.68 58.8743 741.658L62.2727 741.443C62.9129 741.44 63.4761 741.358 63.9625 741.197C64.454 741.039 64.8757 740.689 65.2277 740.147C65.4892 739.745 65.5642 739.239 65.4528 738.631C65.3465 738.026 65.0068 737.538 64.4338 737.166C64.0311 736.904 63.6079 736.776 63.1641 736.782C62.7287 736.785 62.3211 736.887 61.9411 737.088C61.5696 737.287 61.2765 737.552 61.062 737.882C60.8206 738.254 60.6765 738.696 60.6298 739.209C60.5916 739.72 60.6008 740.277 60.6576 740.878C60.7229 741.479 60.7918 742.096 60.8643 742.73L62.3702 756.346L60.1711 754.918L58.869 743.768C58.7473 742.735 58.637 741.797 58.538 740.955C58.4391 740.113 58.4281 739.339 58.5049 738.633C58.5818 737.927 58.8214 737.264 59.2237 736.645C59.6863 735.932 60.2494 735.41 60.913 735.077C61.585 734.743 62.3048 734.613 63.0722 734.685C63.8482 734.756 64.6233 735.043 65.3977 735.546C66.1927 736.062 66.7761 736.661 67.148 737.343C67.5232 738.02 67.7014 738.712 67.6826 739.419C67.6672 740.121 67.4683 740.766 67.0862 741.354C66.5934 742.113 65.9775 742.649 65.2386 742.962C64.4997 743.275 63.6491 743.46 62.6869 743.517L57.9989 743.82C56.9446 743.884 56.13 744.081 55.5552 744.413C54.9804 744.744 54.6226 745.018 54.4818 745.235C54.16 745.73 53.989 746.276 53.9689 746.872C53.9487 747.468 54.0881 748.051 54.3869 748.619C54.6857 749.187 55.1499 749.676 55.7797 750.085C56.3786 750.474 57.044 750.726 57.7762 750.842C58.5116 750.953 59.2666 750.915 60.0412 750.728C60.821 750.544 61.5663 750.199 62.2773 749.692C62.9934 749.188 63.628 748.51 64.1812 747.658L65.9467 748.805C65.2628 749.858 64.5833 750.639 63.9082 751.147C63.2331 751.656 62.6209 751.999 62.0716 752.178C61.5223 752.357 61.0944 752.479 60.7879 752.545C60.6756 752.582 60.5685 752.622 60.4666 752.666C60.3647 752.71 60.2577 752.751 60.1454 752.788C59.2622 753.029 58.3387 753.038 57.3748 752.816C56.4143 752.589 55.5546 752.229 54.7957 751.736ZM81.0724 745.945L83.3644 747.434L80.2052 764.097L80.391 764.218L94.3291 754.554L96.6211 756.043L86.3225 771.901L84.526 770.735L92.3506 758.686L92.1957 758.585L79.4154 767.416L77.6809 766.289L80.5496 751.022L80.3948 750.922L72.5702 762.97L70.7737 761.804L81.0724 745.945ZM90.8234 774.824L88.8101 773.517L104.932 761.44L106.914 762.727L102.438 782.367L100.425 781.06L104.356 764.633L104.232 764.552L90.8234 774.824ZM95.5896 769.112L103.705 774.382L102.598 776.086L94.4833 770.816L95.5896 769.112ZM111.381 768.05L112.487 766.346L124.381 774.07L123.275 775.774L118.288 772.536L109.096 786.69L107.175 785.443L116.368 771.288L111.381 768.05ZM136.228 788.809L134.307 787.562C134.552 786.936 134.669 786.322 134.656 785.719C134.649 785.12 134.537 784.548 134.318 784.002C134.108 783.455 133.808 782.952 133.417 782.492C133.025 782.032 132.566 781.632 132.04 781.29C131.079 780.666 130.052 780.344 128.957 780.323C127.868 780.305 126.787 780.62 125.714 781.266C124.646 781.916 123.666 782.927 122.775 784.3C121.883 785.673 121.357 786.98 121.198 788.22C121.044 789.463 121.197 790.578 121.656 791.566C122.12 792.558 122.833 793.365 123.793 793.989C124.319 794.331 124.872 794.587 125.451 794.758C126.03 794.928 126.611 795.001 127.193 794.975C127.783 794.947 128.353 794.815 128.904 794.578C129.463 794.339 129.976 793.983 130.445 793.509L132.366 794.756C131.695 795.473 130.961 796.027 130.163 796.419C129.365 796.811 128.537 797.048 127.677 797.128C126.821 797.203 125.964 797.127 125.106 796.9C124.253 796.677 123.426 796.305 122.626 795.785C121.274 794.907 120.285 793.795 119.661 792.451C119.037 791.106 118.819 789.629 119.006 788.018C119.193 786.408 119.83 784.766 120.916 783.093C122.002 781.421 123.243 780.171 124.638 779.345C126.033 778.519 127.472 778.118 128.954 778.141C130.436 778.164 131.854 778.615 133.206 779.493C134.006 780.013 134.682 780.617 135.233 781.305C135.79 781.997 136.206 782.751 136.482 783.569C136.762 784.382 136.885 785.232 136.851 786.121C136.821 787.004 136.613 787.9 136.228 788.809ZM132.251 801.727L142.549 785.869L144.47 787.116L139.883 794.178L148.339 799.669L152.925 792.607L154.846 793.854L144.547 809.713L142.627 808.466L147.233 801.373L138.777 795.881L134.171 802.974L132.251 801.727ZM157.405 818.063L163.367 799.388L165.319 800.655L160.245 815.724L160.4 815.824L172.164 805.101L174.332 806.509L169.32 821.617L169.475 821.718L181.177 810.954L183.129 812.221L168.494 825.264L166.511 823.976L171.218 809.066L171.094 808.986L159.387 819.35L157.405 818.063ZM175.223 829.634L185.521 813.775L195.092 819.991L193.986 821.694L186.335 816.726L182.856 822.084L190.01 826.731L188.904 828.434L181.749 823.788L178.249 829.177L186.024 834.226L184.917 835.93L175.223 829.634ZM204.686 826.221L206.978 827.71L203.819 844.373L204.005 844.494L217.943 834.83L220.235 836.319L209.936 852.177L208.14 851.01L215.964 838.962L215.81 838.861L203.029 847.691L201.295 846.565L204.163 831.298L204.009 831.197L196.184 843.246L194.388 842.08L204.686 826.221ZM214.437 855.1L212.424 853.792L228.546 841.715L230.528 843.003L226.052 862.643L224.039 861.335L227.969 844.908L227.845 844.828L214.437 855.1ZM219.203 849.388L227.319 854.658L226.212 856.361L218.097 851.091L219.203 849.388ZM228.522 864.247L238.821 848.388L240.741 849.636L235.632 857.503L235.818 857.624L248.051 854.383L250.56 856.012L239.254 858.842L240.261 871.87L237.938 870.362L237.212 859.41L233.782 860.352L230.443 865.494L228.522 864.247ZM242.747 873.485L253.046 857.626L262.617 863.841L261.51 865.545L253.86 860.577L250.38 865.935L257.535 870.582L256.429 872.285L249.274 867.639L245.774 873.028L253.548 878.077L252.442 879.78L242.747 873.485ZM274.131 871.319L263.832 887.178L261.912 885.93L272.211 870.072L274.131 871.319ZM276.008 874.96L277.114 873.256L289.008 880.98L287.902 882.684L282.915 879.445L273.723 893.6L271.802 892.353L280.995 878.198L276.008 874.96ZM287.806 902.746L298.105 886.888L300.025 888.135L295.439 895.197L303.895 900.688L308.481 893.626L310.401 894.873L300.102 910.732L298.182 909.485L302.788 902.392L294.333 896.9L289.726 903.993L287.806 902.746ZM304.598 913.651L302.584 912.343L318.706 900.266L320.688 901.554L316.213 921.194L314.199 919.886L318.13 903.459L318.006 903.379L304.598 913.651ZM309.364 907.939L317.479 913.209L316.373 914.912L308.257 909.642L309.364 907.939ZM318.683 922.798L328.981 906.939L334.34 910.419C335.584 911.227 336.455 912.112 336.953 913.074C337.46 914.034 337.658 915.018 337.547 916.025C337.436 917.032 337.077 918.002 336.471 918.937C335.864 919.871 335.121 920.596 334.243 921.112C333.37 921.632 332.391 921.862 331.307 921.803C330.225 921.739 329.067 921.307 327.834 920.506L323.993 918.011L325.099 916.308L328.878 918.762C329.73 919.315 330.509 919.612 331.217 919.653C331.924 919.694 332.556 919.54 333.114 919.19C333.68 918.838 334.169 918.345 334.581 917.71C334.994 917.075 335.244 916.43 335.331 915.775C335.424 915.123 335.302 914.486 334.965 913.864C334.632 913.236 334.034 912.642 333.172 912.082L329.795 909.89L320.603 924.045L318.683 922.798ZM332.524 931.786L342.823 915.928L348.181 919.408C349.425 920.216 350.296 921.101 350.795 922.063C351.301 923.023 351.499 924.007 351.388 925.013C351.278 926.02 350.919 926.991 350.312 927.925C349.705 928.86 348.963 929.585 348.085 930.101C347.212 930.62 346.233 930.851 345.148 930.792C344.066 930.728 342.909 930.296 341.675 929.494L337.834 927L338.941 925.297L342.719 927.751C343.571 928.304 344.351 928.601 345.058 928.642C345.765 928.683 346.398 928.528 346.955 928.178C347.521 927.827 348.01 927.333 348.423 926.698C348.835 926.063 349.085 925.419 349.173 924.764C349.266 924.112 349.144 923.475 348.807 922.852C348.473 922.225 347.875 921.631 347.013 921.071L343.637 918.879L334.444 933.034L332.524 931.786ZM346.365 940.775L356.664 924.917L366.235 931.132L365.129 932.836L357.478 927.867L353.998 933.226L361.153 937.872L360.047 939.576L352.892 934.929L349.392 940.319L357.166 945.367L356.06 947.071L346.365 940.775ZM382.272 941.546L371.973 957.405L370.114 956.198L369.559 938.135L369.404 938.034L361.318 950.485L359.398 949.238L369.696 933.38L371.555 934.587L372.121 952.701L372.276 952.802L380.382 940.319L382.272 941.546Z" fill="#FFF5B6"/>
<path d="M547.779 44.8286L549.643 46.8274L542.546 62.2318L542.697 62.3939L558.559 56.389L560.423 58.3878L546.594 71.2837L545.133 69.7171L555.64 59.9192L555.514 59.7842L540.977 65.2604L539.567 63.7479L546.044 49.6283L545.918 49.4933L535.411 59.2912L533.95 57.7246L547.779 44.8286ZM565.116 63.4201L551.287 76.3161L549.725 74.6414L563.554 61.7455L565.116 63.4201ZM569.003 67.5881L566.574 76.5184L566.675 76.6264L575.753 74.8268L577.591 76.7986L566.622 78.8979L563.762 89.6946L561.924 87.7228L564.244 78.8933L564.143 78.7853L555.173 80.4841L553.335 78.5123L564.405 76.521L567.164 65.6164L569.003 67.5881ZM574.043 101.099C573.195 100.189 572.631 99.2507 572.352 98.2828C572.072 97.3149 572.057 96.3824 572.306 95.4852C572.555 94.5881 573.053 93.7911 573.8 93.0942C574.376 92.5569 575.001 92.202 575.673 92.0295C576.354 91.8573 577.087 91.8088 577.873 91.8842C578.667 91.9598 579.523 92.1007 580.439 92.3069L583.788 92.9204C584.41 93.0728 584.976 93.1296 585.487 93.0908C586.002 93.0565 586.496 92.819 586.969 92.3782C587.32 92.0508 587.515 91.5785 587.554 90.9614C587.597 90.3489 587.386 89.7928 586.92 89.2931C586.592 88.9419 586.213 88.7153 585.781 88.6131C585.358 88.5112 584.937 88.5118 584.52 88.6148C584.111 88.7181 583.763 88.9041 583.475 89.1728C583.151 89.475 582.904 89.8692 582.735 90.3555C582.574 90.842 582.448 91.3841 582.358 91.982C582.276 92.5801 582.193 93.1957 582.11 93.8286L580.277 107.405L578.489 105.487L579.923 94.3533C580.055 93.3213 580.175 92.3848 580.282 91.5437C580.39 90.7026 580.567 89.9488 580.812 89.2823C581.058 88.6158 581.45 88.0307 581.991 87.527C582.612 86.9477 583.285 86.577 584.009 86.415C584.742 86.2534 585.472 86.3006 586.199 86.5568C586.935 86.8133 587.617 87.2792 588.247 87.9545C588.893 88.6478 589.315 89.3702 589.511 90.1217C589.711 90.8691 589.716 91.5835 589.527 92.265C589.342 92.9423 588.993 93.5203 588.48 93.9988C587.818 94.6159 587.091 94.9868 586.299 95.1116C585.506 95.2363 584.636 95.2103 583.688 95.0335L579.066 94.1927C578.028 93.9996 577.19 93.9943 576.552 94.1767C575.914 94.3592 575.501 94.5385 575.311 94.7148C574.879 95.1178 574.581 95.6061 574.418 96.1796C574.254 96.7531 574.248 97.3517 574.401 97.9755C574.553 98.5992 574.885 99.1857 575.397 99.7349C575.884 100.257 576.469 100.663 577.151 100.952C577.838 101.238 578.58 101.383 579.377 101.389C580.178 101.4 580.985 101.245 581.797 100.925C582.614 100.61 583.394 100.106 584.136 99.413L585.572 100.953C584.654 101.809 583.805 102.402 583.027 102.732C582.249 103.062 581.572 103.247 580.996 103.288C580.42 103.329 579.975 103.344 579.662 103.333C579.544 103.342 579.43 103.355 579.321 103.373C579.211 103.391 579.097 103.405 578.98 103.414C578.064 103.434 577.166 103.22 576.284 102.771C575.407 102.318 574.66 101.76 574.043 101.099ZM600.94 101.837L602.804 103.836L595.707 119.24L595.859 119.402L611.72 113.397L613.584 115.396L599.755 128.292L598.294 126.726L608.801 116.928L608.675 116.793L594.138 122.269L592.728 120.756L599.205 106.637L599.079 106.502L588.572 116.3L587.111 114.733L600.94 101.837ZM603.415 132.217L601.778 130.461L620.342 122.643L621.954 124.372L612.86 142.346L611.223 140.59L619.011 125.602L618.91 125.494L603.415 132.217ZM609.422 127.828L616.021 134.905L614.535 136.29L607.936 129.213L609.422 127.828ZM625.001 130.617L626.487 129.232L636.159 139.604L634.673 140.989L630.618 136.641L618.274 148.151L616.713 146.477L629.056 134.966L625.001 130.617ZM644.087 156.771L642.526 155.097C642.915 154.548 643.177 153.98 643.31 153.393C643.448 152.81 643.477 152.227 643.398 151.645C643.326 151.063 643.157 150.502 642.888 149.961C642.62 149.421 642.271 148.921 641.843 148.462C641.062 147.624 640.143 147.063 639.086 146.778C638.033 146.497 636.908 146.541 635.711 146.908C634.518 147.28 633.322 148.025 632.125 149.141C630.927 150.258 630.101 151.399 629.647 152.563C629.197 153.732 629.075 154.851 629.281 155.921C629.492 156.995 629.988 157.951 630.769 158.789C631.197 159.248 631.671 159.63 632.192 159.936C632.713 160.241 633.258 160.452 633.829 160.568C634.409 160.684 634.994 160.693 635.586 160.596C636.186 160.5 636.77 160.278 637.34 159.933L638.902 161.607C638.077 162.14 637.231 162.5 636.362 162.688C635.493 162.875 634.632 162.904 633.778 162.774C632.929 162.64 632.116 162.359 631.338 161.931C630.565 161.508 629.853 160.947 629.202 160.249C628.102 159.07 627.412 157.752 627.132 156.297C626.852 154.841 626.998 153.354 627.569 151.837C628.14 150.32 629.155 148.881 630.614 147.521C632.072 146.161 633.578 145.249 635.132 144.785C636.685 144.321 638.178 144.279 639.611 144.66C641.043 145.041 642.31 145.821 643.41 147.001C644.06 147.699 644.57 148.448 644.938 149.249C645.311 150.055 645.532 150.888 645.602 151.748C645.677 152.604 645.59 153.459 645.343 154.313C645.1 155.162 644.681 155.982 644.087 156.771ZM637.103 168.343L650.933 155.447L652.494 157.122L646.336 162.865L653.212 170.238L659.37 164.496L660.932 166.17L647.103 179.066L645.541 177.392L651.726 171.624L644.85 164.25L638.665 170.018L637.103 168.343ZM657.559 190.279L667.862 173.602L669.448 175.303L660.88 188.696L661.006 188.831L675.015 181.272L676.778 183.163L668.26 196.61L668.386 196.745L682.344 189.132L683.931 190.834L666.576 199.949L664.964 198.22L673.138 184.891L673.037 184.783L659.171 192.008L657.559 190.279ZM672.048 205.817L685.877 192.921L693.66 201.267L692.174 202.652L685.953 195.981L681.28 200.338L687.099 206.577L685.613 207.963L679.795 201.723L675.095 206.106L681.417 212.885L679.931 214.271L672.048 205.817ZM701.462 209.633L703.326 211.632L696.229 227.036L696.38 227.198L712.242 221.194L714.106 223.192L700.277 236.088L698.816 234.522L709.323 224.724L709.197 224.589L694.66 230.065L693.249 228.552L699.726 214.433L699.6 214.298L689.093 224.096L687.632 222.529L701.462 209.633ZM703.937 240.013L702.299 238.258L720.864 230.439L722.476 232.168L713.382 250.142L711.745 248.386L719.532 233.398L719.432 233.29L703.937 240.013ZM709.943 235.624L716.542 242.701L715.057 244.086L708.458 237.009L709.943 235.624ZM715.391 252.296L729.22 239.4L730.781 241.075L723.921 247.472L724.072 247.634L736.726 247.449L738.766 249.637L727.111 249.648L724.937 262.533L723.048 260.507L724.993 249.705L721.436 249.79L716.952 253.971L715.391 252.296ZM726.958 264.701L740.787 251.805L748.57 260.151L747.085 261.536L740.863 254.865L736.19 259.222L742.009 265.461L740.523 266.847L734.705 260.607L730.005 264.99L736.327 271.769L734.842 273.155L726.958 264.701ZM757.934 270.192L744.104 283.088L742.543 281.413L756.372 268.517L757.934 270.192ZM758.874 274.178L760.359 272.793L770.031 283.165L768.546 284.55L764.491 280.202L752.147 291.712L750.585 290.038L762.929 278.527L758.874 274.178ZM763.599 303.994L777.429 291.098L778.99 292.772L772.832 298.515L779.708 305.889L785.866 300.146L787.428 301.821L773.599 314.717L772.037 313.042L778.223 307.274L771.346 299.9L765.161 305.668L763.599 303.994ZM777.254 318.637L775.617 316.881L794.181 309.063L795.793 310.792L786.699 328.765L785.062 327.01L792.85 312.021L792.749 311.913L777.254 318.637ZM783.261 314.247L789.86 321.324L788.374 322.709L781.775 315.633L783.261 314.247ZM788.708 330.919L802.537 318.023L806.895 322.696C807.906 323.781 808.538 324.851 808.788 325.905C809.048 326.959 809.002 327.961 808.651 328.911C808.299 329.862 807.717 330.717 806.902 331.476C806.087 332.236 805.191 332.76 804.214 333.048C803.241 333.341 802.236 333.328 801.197 333.008C800.164 332.685 799.145 331.985 798.142 330.909L795.018 327.56L796.504 326.175L799.577 329.47C800.269 330.213 800.954 330.689 801.63 330.9C802.307 331.111 802.958 331.114 803.583 330.91C804.218 330.705 804.812 330.345 805.365 329.829C805.919 329.312 806.318 328.747 806.561 328.133C806.809 327.523 806.845 326.875 806.668 326.19C806.496 325.5 806.06 324.779 805.359 324.028L802.613 321.083L790.27 332.594L788.708 330.919ZM799.964 342.99L813.793 330.094L818.15 334.766C819.162 335.851 819.793 336.921 820.044 337.975C820.303 339.029 820.257 340.031 819.906 340.982C819.555 341.932 818.972 342.787 818.157 343.547C817.343 344.306 816.447 344.83 815.47 345.119C814.497 345.411 813.492 345.398 812.453 345.079C811.419 344.755 810.401 344.055 809.397 342.979L806.274 339.63L807.76 338.245L810.832 341.54C811.525 342.283 812.21 342.76 812.886 342.971C813.562 343.181 814.213 343.185 814.839 342.98C815.473 342.776 816.067 342.415 816.621 341.899C817.175 341.383 817.573 340.817 817.817 340.203C818.065 339.593 818.1 338.946 817.924 338.26C817.752 337.57 817.316 336.85 816.614 336.098L813.869 333.154L801.525 344.664L799.964 342.99ZM811.219 355.06L825.049 342.164L832.832 350.51L831.346 351.895L825.125 345.224L820.452 349.581L826.27 355.821L824.785 357.206L818.966 350.967L814.267 355.349L820.589 362.129L819.103 363.514L811.219 355.06ZM845.872 364.495L832.043 377.391L830.532 375.77L834.363 358.109L834.237 357.974L823.379 368.099L821.817 366.424L835.646 353.528L837.157 355.149L833.325 372.862L833.451 372.997L844.336 362.847L845.872 364.495Z" fill="#FFF5B6"/>
<path d="M404.353 1339.36L403.879 1336.66L418.22 1327.61L418.182 1327.39L401.608 1323.79L401.134 1321.1L419.756 1317.81L420.128 1319.92L405.979 1322.42L406.012 1322.6L421.186 1325.92L421.545 1327.96L408.423 1336.28L408.455 1336.46L422.603 1333.96L422.975 1336.07L404.353 1339.36ZM399.939 1314.32L418.561 1311.04L418.959 1313.29L400.337 1316.58L399.939 1314.32ZM398.949 1308.71L405.85 1302.54L405.824 1302.4L397.231 1298.96L396.763 1296.31L407.106 1300.52L415.384 1293.02L415.853 1295.68L409.098 1301.82L409.123 1301.96L417.571 1305.42L418.039 1308.08L407.67 1303.72L399.418 1311.36L398.949 1308.71ZM412.973 1277.86C413.189 1279.08 413.151 1280.18 412.858 1281.14C412.566 1282.11 412.071 1282.9 411.373 1283.51C410.676 1284.13 409.824 1284.53 408.817 1284.7C408.042 1284.84 407.325 1284.8 406.667 1284.58C406.002 1284.35 405.36 1283.99 404.743 1283.5C404.118 1283 403.477 1282.42 402.821 1281.75L400.346 1279.41C399.908 1278.94 399.464 1278.59 399.014 1278.34C398.563 1278.09 398.02 1278.02 397.383 1278.13C396.91 1278.22 396.49 1278.51 396.121 1279C395.751 1279.49 395.625 1280.07 395.744 1280.75C395.827 1281.22 396.022 1281.62 396.329 1281.94C396.629 1282.25 396.981 1282.48 397.387 1282.62C397.786 1282.76 398.18 1282.79 398.568 1282.72C399.004 1282.65 399.426 1282.45 399.833 1282.14C400.233 1281.81 400.633 1281.43 401.035 1280.98C401.429 1280.52 401.834 1280.05 402.248 1279.56L411.179 1269.17L411.635 1271.76L404.368 1280.31C403.696 1281.11 403.085 1281.83 402.536 1282.47C401.988 1283.12 401.429 1283.66 400.861 1284.08C400.292 1284.51 399.644 1284.78 398.916 1284.91C398.08 1285.06 397.314 1285 396.618 1284.75C395.915 1284.48 395.329 1284.05 394.859 1283.43C394.381 1282.82 394.062 1282.06 393.902 1281.15C393.737 1280.21 393.778 1279.38 394.023 1278.64C394.262 1277.9 394.646 1277.3 395.176 1276.83C395.7 1276.37 396.307 1276.07 396.998 1275.95C397.89 1275.79 398.701 1275.88 399.434 1276.21C400.167 1276.53 400.882 1277.03 401.581 1277.69L404.999 1280.91C405.765 1281.64 406.465 1282.1 407.099 1282.3C407.734 1282.49 408.178 1282.57 408.433 1282.52C409.015 1282.42 409.53 1282.17 409.98 1281.78C410.43 1281.39 410.761 1280.89 410.972 1280.28C411.184 1279.68 411.225 1279 411.095 1278.26C410.971 1277.56 410.701 1276.9 410.287 1276.29C409.866 1275.68 409.323 1275.15 408.658 1274.71C407.992 1274.26 407.232 1273.96 406.376 1273.78C405.519 1273.6 404.59 1273.6 403.59 1273.78L403.225 1271.7C404.461 1271.48 405.496 1271.45 406.328 1271.6C407.16 1271.74 407.829 1271.96 408.335 1272.24C408.84 1272.52 409.221 1272.75 409.478 1272.92C409.582 1272.98 409.684 1273.03 409.786 1273.08C409.888 1273.12 409.99 1273.17 410.094 1273.23C410.873 1273.71 411.51 1274.38 412.004 1275.24C412.493 1276.09 412.816 1276.97 412.973 1277.86ZM390.818 1262.59L390.343 1259.9L404.685 1250.84L404.646 1250.63L388.073 1247.02L387.598 1244.33L406.22 1241.05L406.592 1243.16L392.444 1245.65L392.476 1245.83L407.65 1249.16L408.009 1251.2L394.887 1259.51L394.919 1259.69L409.067 1257.2L409.439 1259.31L390.818 1262.59ZM405.288 1235.76L405.705 1238.13L385.877 1234.57L385.467 1232.25L402.883 1222.12L403.3 1224.49L388.605 1232.82L388.631 1232.96L405.288 1235.76ZM397.86 1236.17L396.18 1226.64L398.18 1226.29L399.86 1235.82L397.86 1236.17ZM386.313 1225.35L384.313 1225.7L381.85 1211.73L383.851 1211.38L384.883 1217.24L401.505 1214.31L401.902 1216.56L385.281 1219.49L386.313 1225.35ZM384.551 1193.02L384.948 1195.27C384.323 1195.52 383.794 1195.86 383.362 1196.28C382.929 1196.69 382.587 1197.16 382.337 1197.69C382.08 1198.22 381.917 1198.78 381.848 1199.38C381.778 1199.98 381.798 1200.59 381.907 1201.21C382.106 1202.34 382.571 1203.31 383.302 1204.12C384.032 1204.93 385 1205.51 386.204 1205.85C387.407 1206.19 388.815 1206.22 390.428 1205.93C392.04 1205.65 393.354 1205.14 394.369 1204.41C395.384 1203.68 396.095 1202.81 396.505 1201.8C396.913 1200.78 397.018 1199.71 396.819 1198.58C396.71 1197.96 396.521 1197.38 396.25 1196.84C395.98 1196.3 395.637 1195.83 395.222 1195.42C394.799 1195.01 394.313 1194.68 393.764 1194.44C393.208 1194.2 392.597 1194.06 391.931 1194.04L391.534 1191.79C392.515 1191.79 393.422 1191.95 394.252 1192.26C395.083 1192.58 395.821 1193.03 396.466 1193.6C397.105 1194.17 397.634 1194.85 398.053 1195.64C398.471 1196.41 398.763 1197.27 398.929 1198.21C399.209 1199.8 399.07 1201.28 398.512 1202.65C397.954 1204.02 397.022 1205.19 395.717 1206.15C394.411 1207.12 392.777 1207.77 390.813 1208.12C388.849 1208.46 387.089 1208.41 385.533 1207.95C383.977 1207.49 382.703 1206.71 381.709 1205.61C380.715 1204.51 380.078 1203.17 379.798 1201.58C379.632 1200.64 379.613 1199.74 379.74 1198.86C379.867 1197.99 380.135 1197.17 380.545 1196.41C380.948 1195.65 381.486 1194.98 382.159 1194.4C382.826 1193.82 383.623 1193.36 384.551 1193.02ZM396.711 1187.12L378.089 1190.4L377.691 1188.15L385.984 1186.68L384.233 1176.75L375.94 1178.22L375.543 1175.96L394.165 1172.68L394.562 1174.93L386.233 1176.4L387.984 1186.33L396.313 1184.86L396.711 1187.12ZM391.502 1157.58L373.778 1165.96L373.374 1163.66L387.855 1157.1L387.823 1156.92L371.957 1155.63L371.508 1153.08L385.976 1146.44L385.944 1146.26L370.091 1145.04L369.687 1142.75L389.206 1144.56L389.617 1146.89L375.502 1153.61L375.528 1153.76L391.092 1155.25L391.502 1157.58ZM387.813 1136.66L369.191 1139.94L367.21 1128.7L369.21 1128.35L370.794 1137.33L377.086 1136.22L375.605 1127.82L377.605 1127.47L379.087 1135.87L385.415 1134.76L383.805 1125.63L385.806 1125.27L387.813 1136.66ZM365.223 1117.44L364.749 1114.75L379.09 1105.69L379.052 1105.47L362.478 1101.87L362.004 1099.18L380.626 1095.9L380.998 1098L366.849 1100.5L366.881 1100.68L382.056 1104.01L382.415 1106.04L369.293 1114.36L369.325 1114.54L383.473 1112.04L383.845 1114.15L365.223 1117.44ZM379.694 1090.61L380.11 1092.97L360.283 1089.42L359.873 1087.09L377.289 1076.97L377.706 1079.34L363.011 1087.66L363.037 1087.81L379.694 1090.61ZM372.266 1091.02L370.585 1081.49L372.586 1081.14L374.266 1090.67L372.266 1091.02ZM376.777 1074.07L358.155 1077.35L357.758 1075.1L366.996 1073.47L366.958 1073.25L356.244 1066.52L355.725 1063.57L365.505 1069.91L374.347 1060.29L374.828 1063.01L367.313 1071.01L370.342 1072.88L376.38 1071.82L376.777 1074.07ZM373.832 1057.37L355.21 1060.65L353.229 1049.41L355.229 1049.06L356.813 1058.04L363.105 1056.93L361.624 1048.53L363.624 1048.18L365.106 1056.58L371.434 1055.47L369.824 1046.34L371.825 1045.98L373.832 1057.37ZM350.844 1035.89L369.466 1032.61L369.864 1034.86L351.242 1038.15L350.844 1035.89ZM352.227 1032.04L350.227 1032.39L347.764 1018.42L349.765 1018.07L350.797 1023.93L367.418 1020.99L367.816 1023.25L351.195 1026.18L352.227 1032.04ZM364.503 1004.46L345.881 1007.74L345.483 1005.49L353.776 1004.02L352.025 994.094L343.732 995.556L343.335 993.301L361.956 990.018L362.354 992.273L354.025 993.741L355.776 1003.67L364.105 1002.2L364.503 1004.46ZM361.026 984.74L361.443 987.104L341.615 983.549L341.205 981.222L358.621 971.1L359.038 973.465L344.343 981.793L344.369 981.939L361.026 984.74ZM353.598 985.149L351.917 975.62L353.918 975.267L355.598 984.797L353.598 985.149ZM358.109 968.2L339.488 971.483L338.378 965.191C338.121 963.73 338.174 962.49 338.537 961.469C338.894 960.444 339.479 959.628 340.291 959.023C341.103 958.417 342.057 958.017 343.154 957.824C344.251 957.63 345.288 957.679 346.264 957.969C347.24 958.254 348.076 958.812 348.773 959.646C349.464 960.48 349.937 961.622 350.192 963.071L350.987 967.581L348.987 967.933L348.205 963.496C348.028 962.496 347.714 961.723 347.261 961.178C346.809 960.633 346.265 960.276 345.629 960.106C344.986 959.932 344.291 959.911 343.545 960.042C342.8 960.174 342.158 960.431 341.619 960.813C341.079 961.19 340.696 961.714 340.471 962.385C340.239 963.057 340.213 963.899 340.391 964.911L341.09 968.876L357.712 965.945L358.109 968.2ZM355.244 951.947L336.622 955.23L335.512 948.938C335.255 947.477 335.308 946.237 335.672 945.216C336.028 944.191 336.613 943.375 337.425 942.769C338.237 942.164 339.191 941.764 340.288 941.571C341.386 941.377 342.422 941.426 343.399 941.716C344.374 942 345.21 942.559 345.907 943.393C346.598 944.227 347.071 945.369 347.326 946.818L348.122 951.327L346.121 951.68L345.339 947.243C345.162 946.243 344.848 945.47 344.396 944.925C343.943 944.38 343.399 944.022 342.763 943.853C342.12 943.679 341.425 943.658 340.68 943.789C339.934 943.921 339.292 944.178 338.753 944.56C338.213 944.937 337.83 945.461 337.605 946.132C337.373 946.804 337.347 947.646 337.525 948.658L338.224 952.623L354.846 949.692L355.244 951.947ZM352.378 935.694L333.756 938.977L331.774 927.739L333.775 927.386L335.359 936.369L341.651 935.26L340.169 926.858L342.17 926.506L343.651 934.907L349.98 933.791L348.37 924.662L350.37 924.31L352.378 935.694ZM328.454 908.908L347.076 905.624L347.46 907.806L334.629 920.532L334.661 920.714L349.282 918.136L349.679 920.391L331.058 923.674L330.673 921.492L343.534 908.724L343.502 908.542L328.845 911.126L328.454 908.908Z" fill="#FFF5B6"/>
<path d="M474.368 1336.39L476.334 1334.49L491.86 1341.32L492.019 1341.17L485.738 1325.41L487.704 1323.51L500.839 1337.11L499.299 1338.6L489.319 1328.27L489.186 1328.4L494.915 1342.84L493.427 1344.27L479.197 1338.04L479.064 1338.17L489.044 1348.5L487.503 1349.99L474.368 1336.39ZM492.654 1318.73L505.789 1332.33L504.142 1333.92L491.007 1320.32L492.654 1318.73ZM496.753 1314.77L505.725 1317.05L505.831 1316.94L503.873 1307.9L505.813 1306.03L508.103 1316.96L518.948 1319.63L517.009 1321.5L508.14 1319.33L508.034 1319.44L509.889 1328.38L507.949 1330.25L505.765 1319.21L494.814 1316.65L496.753 1314.77ZM530.171 1309.15C529.276 1310.01 528.348 1310.59 527.385 1310.89C526.422 1311.19 525.49 1311.22 524.589 1310.98C523.687 1310.75 522.882 1310.27 522.172 1309.53C521.625 1308.96 521.259 1308.35 521.075 1307.68C520.891 1307 520.829 1306.27 520.891 1305.48C520.953 1304.68 521.079 1303.83 521.269 1302.91L521.824 1299.55C521.965 1298.92 522.012 1298.36 521.964 1297.85C521.921 1297.33 521.675 1296.84 521.226 1296.38C520.893 1296.03 520.417 1295.84 519.799 1295.82C519.186 1295.78 518.634 1296.01 518.142 1296.48C517.797 1296.81 517.577 1297.2 517.482 1297.63C517.388 1298.06 517.396 1298.48 517.506 1298.89C517.616 1299.3 517.808 1299.64 518.082 1299.93C518.39 1300.25 518.788 1300.49 519.278 1300.65C519.767 1300.8 520.311 1300.91 520.91 1300.99C521.51 1301.07 522.127 1301.14 522.761 1301.21L536.367 1302.81L534.481 1304.63L523.324 1303.39C522.29 1303.27 521.351 1303.17 520.508 1303.08C519.666 1302.98 518.909 1302.82 518.238 1302.59C517.567 1302.35 516.976 1301.97 516.462 1301.44C515.872 1300.83 515.49 1300.16 515.316 1299.44C515.141 1298.71 515.176 1297.98 515.419 1297.25C515.663 1296.51 516.117 1295.82 516.781 1295.18C517.463 1294.52 518.178 1294.08 518.926 1293.88C519.669 1293.66 520.384 1293.64 521.068 1293.82C521.749 1293.99 522.333 1294.33 522.82 1294.84C523.449 1295.49 523.832 1296.21 523.971 1297C524.109 1297.79 524.098 1298.66 523.938 1299.61L523.178 1304.25C523.003 1305.29 523.013 1306.13 523.206 1306.76C523.4 1307.4 523.586 1307.81 523.766 1307.99C524.176 1308.42 524.67 1308.71 525.246 1308.86C525.822 1309.01 526.421 1309.01 527.042 1308.85C527.663 1308.68 528.243 1308.34 528.784 1307.82C529.297 1307.32 529.693 1306.73 529.97 1306.04C530.244 1305.35 530.376 1304.61 530.368 1303.81C530.365 1303.01 530.196 1302.21 529.862 1301.4C529.532 1300.59 529.015 1299.82 528.309 1299.09L529.824 1297.62C530.696 1298.53 531.304 1299.37 531.647 1300.14C531.991 1300.91 532.188 1301.58 532.239 1302.16C532.29 1302.73 532.312 1303.18 532.307 1303.49C532.318 1303.61 532.333 1303.72 532.353 1303.83C532.373 1303.94 532.388 1304.05 532.399 1304.17C532.436 1305.09 532.237 1305.99 531.804 1306.88C531.366 1307.76 530.822 1308.52 530.171 1309.15ZM530.44 1282.24L532.406 1280.34L547.932 1287.17L548.091 1287.02L541.81 1271.26L543.776 1269.36L556.911 1282.97L555.371 1284.45L545.391 1274.12L545.258 1274.25L550.987 1288.69L549.499 1290.12L535.269 1283.89L535.136 1284.02L545.116 1294.36L543.575 1295.84L530.44 1282.24ZM560.772 1279.24L559.045 1280.91L550.904 1262.48L552.604 1260.84L570.734 1269.62L569.008 1271.29L553.886 1263.76L553.779 1263.86L560.772 1279.24ZM556.278 1273.31L563.239 1266.59L564.65 1268.05L557.69 1274.77L556.278 1273.31ZM558.796 1257.68L557.385 1256.22L567.586 1246.37L568.997 1247.83L564.72 1251.96L576.444 1264.1L574.797 1265.69L563.073 1253.55L558.796 1257.68ZM584.612 1238.14L582.965 1239.73C582.41 1239.35 581.838 1239.1 581.248 1238.98C580.663 1238.85 580.08 1238.83 579.499 1238.92C578.919 1239 578.361 1239.18 577.825 1239.46C577.289 1239.74 576.795 1240.1 576.343 1240.53C575.52 1241.33 574.975 1242.26 574.708 1243.32C574.446 1244.38 574.509 1245.5 574.897 1246.69C575.29 1247.88 576.055 1249.06 577.193 1250.24C578.33 1251.42 579.485 1252.22 580.657 1252.66C581.833 1253.08 582.955 1253.19 584.021 1252.96C585.091 1252.73 586.038 1252.22 586.862 1251.42C587.314 1250.99 587.688 1250.51 587.984 1249.98C588.281 1249.46 588.482 1248.91 588.587 1248.33C588.693 1247.75 588.693 1247.17 588.585 1246.58C588.478 1245.98 588.247 1245.4 587.891 1244.83L589.538 1243.24C590.086 1244.06 590.46 1244.9 590.663 1245.76C590.866 1246.63 590.909 1247.49 590.794 1248.35C590.675 1249.2 590.408 1250.02 589.994 1250.8C589.584 1251.58 589.036 1252.3 588.35 1252.97C587.19 1254.09 585.884 1254.8 584.434 1255.1C582.983 1255.41 581.494 1255.29 579.967 1254.75C578.44 1254.2 576.984 1253.21 575.599 1251.78C574.213 1250.34 573.275 1248.85 572.784 1247.31C572.293 1245.76 572.225 1244.27 572.581 1242.83C572.937 1241.39 573.695 1240.11 574.855 1238.99C575.542 1238.33 576.282 1237.81 577.077 1237.42C577.876 1237.04 578.705 1236.8 579.564 1236.72C580.419 1236.63 581.275 1236.7 582.133 1236.93C582.986 1237.16 583.813 1237.56 584.612 1238.14ZM596.305 1244.92L583.169 1231.32L584.816 1229.73L590.666 1235.79L597.918 1228.79L592.069 1222.73L593.716 1221.14L606.852 1234.74L605.204 1236.33L599.329 1230.25L592.077 1237.25L597.952 1243.33L596.305 1244.92ZM617.88 1224.09L601.025 1214.08L602.699 1212.46L616.24 1220.8L616.373 1220.67L608.57 1206.79L610.43 1205L624.024 1213.28L624.157 1213.15L616.301 1199.33L617.975 1197.71L627.391 1214.91L625.691 1216.55L612.221 1208.61L612.115 1208.71L619.58 1222.45L617.88 1224.09ZM633.162 1209.33L620.027 1195.73L628.236 1187.8L629.647 1189.26L623.085 1195.6L627.523 1200.2L633.66 1194.27L635.071 1195.73L628.934 1201.66L633.398 1206.28L640.067 1199.84L641.478 1201.3L633.162 1209.33ZM636.465 1179.86L638.431 1177.96L653.957 1184.78L654.116 1184.63L647.836 1168.88L649.801 1166.98L662.937 1180.58L661.396 1182.07L651.416 1171.73L651.283 1171.86L657.012 1186.3L655.525 1187.74L641.294 1181.51L641.161 1181.64L651.141 1191.97L649.6 1193.46L636.465 1179.86ZM666.797 1176.85L665.07 1178.52L656.93 1160.09L658.63 1158.45L676.76 1167.23L675.033 1168.9L659.911 1161.37L659.805 1161.48L666.797 1176.85ZM662.304 1170.92L669.264 1164.2L670.675 1165.66L663.715 1172.38L662.304 1170.92ZM678.878 1165.18L665.743 1151.58L667.39 1149.99L673.906 1156.74L674.066 1156.59L673.66 1143.94L675.812 1141.86L676.026 1153.51L688.947 1155.46L686.955 1157.38L676.12 1155.63L676.267 1159.18L680.525 1163.59L678.878 1165.18ZM691.079 1153.4L677.944 1139.8L686.153 1131.87L687.564 1133.33L681.002 1139.67L685.44 1144.27L691.577 1138.34L692.988 1139.8L686.851 1145.73L691.315 1150.35L697.983 1143.91L699.394 1145.37L691.079 1153.4ZM696.029 1122.34L709.164 1135.94L707.517 1137.53L694.382 1123.93L696.029 1122.34ZM699.999 1121.33L698.588 1119.86L708.789 1110.01L710.2 1111.47L705.923 1115.6L717.647 1127.75L716 1129.34L704.276 1117.2L699.999 1121.33ZM729.727 1116.08L716.591 1102.48L718.238 1100.89L724.088 1106.94L731.34 1099.94L725.491 1093.88L727.138 1092.29L740.274 1105.9L738.626 1107.49L732.751 1101.4L725.499 1108.41L731.374 1114.49L729.727 1116.08ZM744.129 1102.17L742.402 1103.84L734.261 1085.41L735.962 1083.77L754.092 1092.55L752.365 1094.22L737.243 1086.69L737.136 1086.8L744.129 1102.17ZM739.636 1096.24L746.596 1089.52L748.007 1090.98L741.047 1097.7L739.636 1096.24ZM756.21 1090.51L743.075 1076.9L747.671 1072.47C748.738 1071.43 749.796 1070.78 750.846 1070.52C751.895 1070.24 752.898 1070.27 753.854 1070.6C754.811 1070.94 755.676 1071.5 756.45 1072.3C757.223 1073.11 757.763 1073.99 758.068 1074.96C758.378 1075.93 758.382 1076.94 758.081 1077.98C757.775 1079.02 757.094 1080.05 756.035 1081.07L752.741 1084.25L751.33 1082.79L754.571 1079.66C755.302 1078.96 755.767 1078.27 755.966 1077.59C756.165 1076.91 756.156 1076.25 755.941 1075.63C755.726 1075 755.355 1074.41 754.829 1073.87C754.303 1073.33 753.731 1072.94 753.112 1072.7C752.498 1072.47 751.85 1072.44 751.168 1072.63C750.481 1072.81 749.768 1073.26 749.029 1073.98L746.133 1076.77L757.857 1088.91L756.21 1090.51ZM768.082 1079.04L754.947 1065.44L759.543 1061C760.61 1059.97 761.668 1059.32 762.718 1059.05C763.767 1058.77 764.77 1058.8 765.726 1059.14C766.682 1059.47 767.548 1060.04 768.321 1060.84C769.095 1061.64 769.635 1062.53 769.94 1063.5C770.25 1064.47 770.254 1065.47 769.953 1066.52C769.647 1067.56 768.965 1068.59 767.907 1069.61L764.613 1072.79L763.202 1071.33L766.443 1068.2C767.174 1067.49 767.638 1066.8 767.837 1066.12C768.037 1065.44 768.028 1064.79 767.813 1064.17C767.597 1063.54 767.227 1062.95 766.701 1062.41C766.175 1061.86 765.603 1061.47 764.984 1061.24C764.37 1061 763.722 1060.98 763.04 1061.17C762.353 1061.35 761.64 1061.8 760.901 1062.51L758.005 1065.31L769.729 1077.45L768.082 1079.04ZM779.954 1067.58L766.819 1053.97L775.028 1046.05L776.439 1047.51L769.877 1053.84L774.315 1058.44L780.452 1052.51L781.863 1053.98L775.726 1059.9L780.19 1064.52L786.858 1058.09L788.269 1059.55L779.954 1067.58ZM788.783 1032.76L801.918 1046.37L800.324 1047.91L782.599 1044.38L782.466 1044.51L792.779 1055.19L791.132 1056.78L777.997 1043.18L779.591 1041.64L797.368 1045.16L797.501 1045.04L787.162 1034.33L788.783 1032.76Z" fill="#FFF5B6"/>
<path d="M361.131 428.419L361.792 425.767L378.576 423.329L378.63 423.114L364.955 413.081L365.616 410.43L383.963 415.004L383.445 417.083L369.505 413.607L369.461 413.786L381.971 422.995L381.47 425.002L366.101 427.26L366.056 427.439L379.996 430.915L379.478 432.993L361.131 428.419ZM367.28 403.753L385.628 408.328L385.074 410.55L366.726 405.975L367.28 403.753ZM368.659 398.223L377.471 395.396L377.507 395.253L371.054 388.62L371.706 386.004L379.441 394.06L390.053 390.578L389.401 393.194L380.732 396.057L380.696 396.2L387.006 402.798L386.354 405.414L378.655 397.214L368.007 400.839L368.659 398.223ZM394.018 375.745C393.717 376.951 393.237 377.935 392.578 378.697C391.918 379.459 391.145 379.98 390.257 380.259C389.369 380.539 388.429 380.555 387.437 380.308C386.673 380.118 386.035 379.787 385.524 379.317C385.009 378.84 384.569 378.251 384.204 377.551C383.835 376.844 383.487 376.05 383.161 375.169L381.852 372.026C381.641 371.422 381.38 370.916 381.069 370.509C380.76 370.095 380.292 369.81 379.665 369.654C379.199 369.538 378.696 369.631 378.158 369.935C377.62 370.232 377.269 370.712 377.104 371.375C376.988 371.841 377.004 372.283 377.154 372.701C377.299 373.111 377.528 373.464 377.842 373.758C378.151 374.044 378.497 374.235 378.879 374.33C379.309 374.437 379.774 374.43 380.274 374.307C380.77 374.177 381.293 373.987 381.844 373.737C382.39 373.48 382.951 373.214 383.527 372.939L395.912 367.082L395.277 369.626L385.159 374.487C384.221 374.939 383.371 375.348 382.606 375.716C381.842 376.084 381.114 376.346 380.421 376.504C379.729 376.661 379.024 376.65 378.307 376.471C377.483 376.266 376.806 375.903 376.276 375.384C375.741 374.858 375.383 374.22 375.202 373.47C375.016 372.714 375.035 371.887 375.258 370.991C375.488 370.072 375.864 369.325 376.388 368.751C376.906 368.176 377.502 367.783 378.176 367.57C378.845 367.356 379.52 367.334 380.201 367.504C381.079 367.723 381.786 368.131 382.322 368.727C382.858 369.324 383.311 370.068 383.678 370.959L385.49 375.293C385.894 376.269 386.346 376.975 386.847 377.411C387.347 377.847 387.723 378.096 387.973 378.158C388.547 378.301 389.119 378.285 389.689 378.11C390.259 377.935 390.764 377.614 391.204 377.146C391.644 376.679 391.955 376.081 392.137 375.352C392.31 374.659 392.331 373.948 392.203 373.218C392.068 372.486 391.786 371.785 391.357 371.113C390.93 370.436 390.36 369.844 389.65 369.336C388.94 368.823 388.093 368.444 387.107 368.198L387.616 366.156C388.835 366.459 389.794 366.848 390.495 367.32C391.195 367.793 391.72 368.26 392.068 368.721C392.416 369.182 392.671 369.547 392.832 369.816C392.904 369.91 392.977 369.998 393.052 370.08C393.126 370.162 393.199 370.25 393.271 370.344C393.787 371.101 394.096 371.971 394.2 372.954C394.298 373.937 394.237 374.867 394.018 375.745ZM379.988 352.785L380.649 350.133L397.434 347.695L397.487 347.48L383.812 337.448L384.473 334.796L402.821 339.37L402.303 341.449L388.363 337.973L388.318 338.152L400.828 347.362L400.328 349.368L384.959 351.626L384.914 351.806L398.854 355.281L398.336 357.359L379.988 352.785ZM404.119 334.163L403.538 336.492L386.871 325.181L387.442 322.888L407.47 320.725L406.889 323.054L390.077 324.686L390.041 324.83L404.119 334.163ZM397.167 331.516L399.507 322.128L401.478 322.619L399.137 332.008L397.167 331.516ZM391.021 316.931L389.05 316.44L392.481 302.679L394.452 303.17L393.013 308.94L409.39 313.023L408.836 315.245L392.459 311.162L391.021 316.931ZM402.56 286.679L402.006 288.901C401.334 288.873 400.716 288.963 400.15 289.171C399.586 289.373 399.081 289.666 398.637 290.05C398.188 290.426 397.809 290.874 397.502 291.394C397.195 291.914 396.966 292.478 396.814 293.087C396.537 294.198 396.566 295.275 396.903 296.317C397.241 297.352 397.89 298.272 398.851 299.076C399.813 299.874 401.088 300.472 402.677 300.868C404.265 301.264 405.672 301.335 406.896 301.082C408.121 300.823 409.126 300.316 409.911 299.56C410.697 298.798 411.229 297.862 411.506 296.751C411.658 296.141 411.72 295.535 411.693 294.932C411.666 294.329 411.545 293.757 411.331 293.215C411.113 292.666 410.802 292.169 410.399 291.726C409.991 291.276 409.487 290.906 408.886 290.617L409.44 288.395C410.336 288.796 411.1 289.31 411.73 289.936C412.36 290.563 412.853 291.269 413.209 292.056C413.559 292.841 413.766 293.676 413.831 294.561C413.897 295.441 413.815 296.343 413.584 297.269C413.194 298.834 412.465 300.13 411.397 301.158C410.328 302.185 409.002 302.873 407.419 303.22C405.835 303.568 404.076 303.5 402.141 303.018C400.205 302.535 398.62 301.769 397.385 300.719C396.15 299.669 395.302 298.439 394.841 297.03C394.38 295.621 394.345 294.134 394.735 292.569C394.966 291.644 395.317 290.808 395.788 290.063C396.261 289.312 396.839 288.672 397.523 288.145C398.2 287.616 398.964 287.223 399.815 286.966C400.66 286.707 401.575 286.611 402.56 286.679ZM416.069 286.234L397.722 281.66L398.276 279.438L406.446 281.475L408.885 271.692L400.715 269.655L401.269 267.433L419.616 272.008L419.062 274.23L410.856 272.183L408.417 281.966L416.623 284.012L416.069 286.234ZM423.325 257.132L403.727 257.574L404.29 255.317L420.189 255.208L420.234 255.029L406.264 247.397L406.89 244.889L422.807 244.708L422.851 244.529L408.864 236.969L409.427 234.712L426.524 244.303L425.952 246.596L410.322 247L410.286 247.144L423.897 254.838L423.325 257.132ZM428.465 236.518L410.117 231.943L412.878 220.87L414.849 221.362L412.642 230.213L418.842 231.759L420.906 223.481L422.876 223.972L420.813 232.25L427.048 233.805L429.29 224.81L431.261 225.302L428.465 236.518ZM415.646 209.771L416.307 207.119L433.091 204.681L433.145 204.466L419.47 194.433L420.131 191.782L438.478 196.356L437.96 198.434L424.02 194.959L423.976 195.138L436.486 204.347L435.985 206.354L420.616 208.612L420.572 208.791L434.511 212.267L433.993 214.345L415.646 209.771ZM439.777 191.149L439.196 193.478L422.528 182.167L423.1 179.873L443.127 177.711L442.546 180.04L425.735 181.672L425.699 181.815L439.777 191.149ZM432.824 188.502L435.165 179.113L437.136 179.605L434.795 188.993L432.824 188.502ZM443.84 174.853L425.492 170.278L426.046 168.057L435.148 170.326L435.202 170.111L428.155 159.6L428.878 156.697L435.235 166.465L447.226 161.272L446.556 163.959L436.437 168.211L438.445 171.148L444.394 172.631L443.84 174.853ZM447.943 158.396L429.595 153.821L432.356 142.748L434.327 143.24L432.12 152.091L438.32 153.637L440.384 145.359L442.354 145.85L440.291 154.128L446.526 155.683L448.768 146.688L450.739 147.18L447.943 158.396ZM435.678 129.427L454.025 134.001L453.471 136.223L435.124 131.649L435.678 129.427ZM438.509 126.467L436.538 125.975L439.969 112.215L441.94 112.706L440.501 118.476L456.878 122.559L456.324 124.781L439.948 120.697L438.509 126.467ZM460.94 106.265L442.593 101.691L443.147 99.4689L451.317 101.506L453.756 91.7231L445.586 89.686L446.14 87.4642L464.487 92.0388L463.934 94.2605L455.727 92.2145L453.288 101.997L461.494 104.043L460.94 106.265ZM465.784 86.8382L465.203 89.1675L448.536 77.856L449.107 75.5626L469.135 73.4002L468.554 75.7295L451.742 77.3614L451.706 77.5047L465.784 86.8382ZM458.832 84.1913L461.172 74.8026L463.143 75.294L460.802 84.6827L458.832 84.1913ZM469.847 70.5424L451.5 65.9678L453.045 59.7684C453.404 58.3291 453.957 57.2173 454.705 56.433C455.448 55.6413 456.313 55.134 457.302 54.9109C458.29 54.6878 459.324 54.7111 460.405 54.9806C461.486 55.2501 462.414 55.716 463.187 56.3784C463.963 57.0348 464.499 57.8854 464.797 58.9302C465.089 59.9735 465.057 61.2089 464.701 62.6363L463.593 67.0799L461.622 66.5885L462.712 62.2166C462.958 61.2312 462.985 60.3974 462.793 59.7152C462.602 59.0331 462.25 58.4854 461.737 58.0722C461.221 57.6516 460.595 57.3497 459.86 57.1665C459.126 56.9833 458.434 56.9569 457.787 57.0872C457.14 57.2115 456.578 57.5343 456.099 58.0557C455.614 58.5755 455.247 59.3341 454.998 60.3315L454.025 64.2375L470.401 68.3206L469.847 70.5424ZM473.84 54.5287L455.492 49.9542L457.038 43.7548C457.397 42.3154 457.95 41.2036 458.698 40.4194C459.44 39.6277 460.306 39.1203 461.294 38.8972C462.282 38.6742 463.317 38.6974 464.398 38.9669C465.479 39.2364 466.406 39.7024 467.18 40.3647C467.955 41.0211 468.492 41.8717 468.789 42.9165C469.081 43.9599 469.049 45.1953 468.693 46.6227L467.585 51.0662L465.614 50.5748L466.705 46.2029C466.95 45.2175 466.977 44.3837 466.786 43.7016C466.594 43.0194 466.242 42.4718 465.73 42.0586C465.213 41.6379 464.588 41.336 463.853 41.1528C463.118 40.9697 462.427 40.9432 461.779 41.0735C461.133 41.1979 460.57 41.5207 460.091 42.042C459.607 42.5618 459.24 43.3204 458.991 44.3178L458.017 48.2238L474.394 52.3069L473.84 54.5287ZM477.832 38.515L459.485 33.9405L462.246 22.8676L464.217 23.359L462.01 32.2102L468.209 33.7558L470.273 25.478L472.244 25.9694L470.18 34.2472L476.415 35.8019L478.658 26.8073L480.629 27.2987L477.832 38.515ZM466.872 4.3141L485.219 8.88862L484.683 11.0387L467.785 17.4449L467.74 17.6241L482.146 21.2158L481.592 23.4375L463.244 18.863L463.78 16.7129L480.723 10.2798L480.768 10.1007L466.327 6.50002L466.872 4.3141Z" fill="#FFF5B6"/>
</svg>
