<svg width="47" height="49" viewBox="0 0 47 49" fill="none" xmlns="http://www.w3.org/2000/svg">
<path fill-rule="evenodd" clip-rule="evenodd" d="M39.1 25.041C39 25.241 38.9 25.641 39 25.841L44.6 38.341C45.2 39.641 44.8 40.441 44.5 40.741C44.3 41.041 43.6 41.641 42.2 41.341L29 38.241C28.8 38.141 28.4 38.241 28.2 38.441L23.6 42.741C23.6 42.8743 23.5333 43.0076 23.4 43.141L18.5 47.641C18.3 47.841 18.1 48.0076 17.9 48.141C17.6333 48.2743 17.3667 48.341 17.1 48.341C16.6 48.541 16.2 48.441 15.9 48.341C15.5 48.241 14.8 47.741 14.7 46.341L13.5 32.641C13.5 32.441 13.3 32.041 13.1 31.941L1.3 25.241C0.300003 24.641 0 23.941 0 23.441C0 23.3076 0 23.2076 0 23.141C0 22.741 0.2 21.841 1.5 21.341L14 16.041C14.2 15.941 14.4 15.641 14.5 15.441L17.1 2.04097C17.4 0.640966 18.1 0.240966 18.6 0.0409657C19 -0.0590343 19.8 -0.0590342 20.8 1.04097L29.8 11.341C29.9 11.541 30.3 11.641 30.5 11.641L37.1 10.941C37.2333 10.8743 37.3333 10.841 37.4 10.841L44 10.041C44.3333 9.9743 44.6 9.9743 44.8 10.041C45.7 10.141 46.1 10.541 46.3 10.841C46.4 11.041 46.5 11.341 46.5 11.741C46.6 12.141 46.5 12.741 46.1 13.341L43.1 18.541C43.0333 18.6076 42.9333 18.6743 42.8 18.741L39.1 25.041ZM38 24.341L45 12.641C45.2 12.3076 45.3 12.041 45.3 11.841C45.3 11.7743 45.2667 11.741 45.2 11.741C45.1 11.541 44.8 11.441 44.2 11.441L30.7 12.941C30.1 13.041 29.3 12.741 28.9 12.241L19.8 1.94097C19.4 1.44097 19.1 1.34097 18.9 1.34097C18.8 1.44097 18.5 1.64097 18.4 2.24097L15.8 15.741C15.7 16.341 15.1 16.941 14.6 17.241L7.7 20.141C7.63334 20.2076 7.6 20.241 7.6 20.241L2.1 22.541C1.5 22.841 1.3 23.141 1.3 23.341C1.4 23.541 1.6 23.741 2 24.041L13.9 30.841C14.5 31.141 14.9 31.841 15 32.441L16.3 46.141C16.4 46.741 16.6 47.041 16.7 47.041C16.7667 47.1076 16.8 47.141 16.8 47.141C17 47.0743 17.2 46.941 17.4 46.741L27.4 37.441C27.9 37.041 28.7 36.841 29.3 36.941L42.5 40.041C43.1 40.141 43.5 40.041 43.6 39.941C43.7 39.741 43.7 39.441 43.5 38.841L37.9 26.341C37.6 25.741 37.7 24.941 38 24.341Z" fill="black"/>
</svg>
