<svg width="17" height="18" viewBox="0 0 17 18" fill="none" xmlns="http://www.w3.org/2000/svg">
<path fill-rule="evenodd" clip-rule="evenodd" d="M14.0735 9.17272C14.0375 9.24598 14.0015 9.3925 14.0375 9.46576L16.0531 14.0446C16.2691 14.5208 16.1251 14.8139 16.0171 14.9238C15.9452 15.0337 15.6932 15.2534 15.1893 15.1435L10.4381 14.008C10.3662 13.9714 10.2222 14.008 10.1502 14.0812L8.49449 15.6564C8.49449 15.7052 8.47049 15.7541 8.4225 15.8029L6.65881 17.4513C6.58683 17.5245 6.51484 17.5856 6.44285 17.6344C6.34687 17.6833 6.25089 17.7077 6.1549 17.7077C5.97494 17.781 5.83096 17.7443 5.72298 17.7077C5.57901 17.6711 5.32705 17.4879 5.29106 16.9751L4.85913 11.9567C4.85913 11.8834 4.78715 11.7369 4.71516 11.7002L0.467918 9.24598C0.107982 9.02619 0 8.76978 0 8.58662C0 8.53778 0 8.50115 0 8.47673C0 8.33021 0.0719872 8.00053 0.539904 7.81738L5.0391 5.87594C5.11109 5.83931 5.18308 5.72942 5.21907 5.65616L6.1549 0.747623C6.26288 0.234791 6.51484 0.0882678 6.69481 0.0150061C6.83878 -0.0216247 7.12673 -0.0216247 7.48667 0.381315L10.7261 4.15429C10.7621 4.22755 10.9061 4.26418 10.978 4.26418L13.3536 4.00777C13.4016 3.98335 13.4376 3.97114 13.4616 3.97114L15.8372 3.67809C15.9572 3.65367 16.0531 3.65367 16.1251 3.67809C16.4491 3.71472 16.593 3.86125 16.665 3.97114C16.701 4.0444 16.737 4.15429 16.737 4.30081C16.773 4.44734 16.737 4.66712 16.593 4.88691L15.5132 6.79171C15.4892 6.81613 15.4532 6.84055 15.4053 6.86497L14.0735 9.17272ZM13.6776 8.9163L16.1971 4.63049C16.2691 4.50839 16.3051 4.41071 16.3051 4.33745C16.3051 4.31303 16.2931 4.30081 16.2691 4.30081C16.2331 4.22755 16.1251 4.19092 15.9092 4.19092L11.05 4.74039C10.8341 4.77702 10.5461 4.66712 10.4021 4.48397L7.12673 0.710993C6.98276 0.527838 6.87478 0.491208 6.80279 0.491208C6.7668 0.527839 6.65881 0.6011 6.62282 0.820885L5.68699 5.76605C5.65099 5.98583 5.43503 6.20562 5.25506 6.31551L2.77151 7.3778C2.74751 7.40222 2.73551 7.41444 2.73551 7.41444L0.755866 8.25695C0.539905 8.36684 0.467918 8.47673 0.467918 8.54999C0.503911 8.62325 0.575897 8.69652 0.719872 8.80641L5.00311 11.2973C5.21907 11.4072 5.36304 11.6636 5.39904 11.8834L5.86696 16.9018C5.90295 17.1216 5.97494 17.2315 6.01093 17.2315C6.03493 17.2559 6.04692 17.2681 6.04692 17.2681C6.11891 17.2437 6.1909 17.1949 6.26288 17.1216L9.86224 13.7149C10.0422 13.5684 10.3302 13.4952 10.5461 13.5318L15.2973 14.6673C15.5132 14.704 15.6572 14.6673 15.6932 14.6307C15.7292 14.5574 15.7292 14.4476 15.6572 14.2278L13.6416 9.64892C13.5336 9.42913 13.5696 9.13609 13.6776 8.9163Z" fill="black"/>
</svg>
