<svg width="385" height="176" viewBox="0 0 385 176" fill="none" xmlns="http://www.w3.org/2000/svg">
<path d="M63.7756 175H-21.7398C-32.908 175 -42 165.933 -42 154.751V21.2492C-42 10.0674 -32.908 1 -21.7398 1H63.7756C74.9437 1 84 10.0674 84 21.2492V154.751C84 165.933 74.9437 175 63.7756 175Z" stroke="#FFF5B6" stroke-width="1.5"/>
<path d="M213.77 175H128.23C117.059 175 108 165.933 108 154.751V21.2492C108 10.0674 117.059 1 128.23 1H213.77C224.941 1 234 10.0674 234 21.2492V154.751C234 165.933 224.941 175 213.77 175Z" stroke="#FFF5B6" stroke-width="1.5"/>
<path d="M363.776 175H278.26C267.056 175 258 165.934 258 154.719V21.2809C258 10.0655 267.056 1 278.26 1H363.776C374.944 1 384 10.0655 384 21.2809V154.719C384 165.934 374.944 175 363.776 175Z" stroke="#FFF5B6" stroke-width="1.5"/>
</svg>
