<svg width="1087" height="488" viewBox="0 0 1087 488" fill="none" xmlns="http://www.w3.org/2000/svg">
<path d="M196.2 486.5H-42.7C-73.9 486.5 -99.3 461.2 -99.3 430V57.5C-99.3 26.3 -73.9 1 -42.7 1H196.2C227.4 1 252.7 26.3 252.7 57.5V430C252.7 461.2 227.4 486.5 196.2 486.5Z" stroke="#FFF5B6" stroke-width="1.5"/>
<path d="M616.2 486.5H377.3C346.1 486.5 320.8 461.2 320.8 430V57.5C320.8 26.3 346.1 1 377.3 1H616.2C647.4 1 672.7 26.3 672.7 57.5V430C672.7 461.2 647.4 486.5 616.2 486.5Z" stroke="#FFF5B6" stroke-width="1.5"/>
<path d="M1029.7 486.4H790.8C759.5 486.4 734.2 461.1 734.2 429.8V57.3999C734.2 26.0999 759.5 0.799805 790.8 0.799805H1029.7C1060.9 0.799805 1086.2 26.0999 1086.2 57.3999V429.8C1086.2 461.1 1060.9 486.4 1029.7 486.4Z" stroke="#FFF5B6" stroke-width="1.5"/>
</svg>
