<svg width="824" height="108" viewBox="0 0 824 108" fill="none" xmlns="http://www.w3.org/2000/svg">
<path d="M107.8 54.3C107.8 83.9 83.7 108 54 108C24.3 108 0.300049 83.9 0.300049 54.3C0.300049 24.6 24.3 0.5 54 0.5C83.7 0.5 107.8 24.6 107.8 54.3Z" fill="#FFF5B6"/>
<path d="M346.3 54.3C346.3 83.9 322.2 108 292.5 108C262.8 108 238.8 83.9 238.8 54.3C238.8 24.6 262.8 0.5 292.5 0.5C322.2 0.5 346.3 24.6 346.3 54.3Z" fill="#FFF5B6"/>
<path d="M584.8 54.3C584.8 83.9 560.7 108 531 108C501.3 108 477.3 83.9 477.3 54.3C477.3 24.6 501.3 0.5 531 0.5C560.7 0.5 584.8 24.6 584.8 54.3Z" fill="#FFF5B6"/>
<path d="M823.3 54.3C823.3 83.9 799.2 108 769.5 108C739.8 108 715.8 83.9 715.8 54.3C715.8 24.6 739.8 0.5 769.5 0.5C799.2 0.5 823.3 24.6 823.3 54.3Z" fill="#FFF5B6"/>
</svg>
