<svg width="164" height="69" viewBox="0 0 164 69" fill="none" xmlns="http://www.w3.org/2000/svg">
<path d="M23.0999 65.4C22.6999 65.4 22.4999 65.3001 22.2999 65.3001C21.6999 65.0001 20.6999 64.4 20.5999 62.5L19.8999 55.6C19.8999 55.2 20.2998 54.7 20.6998 54.7C21.1998 54.7 21.5998 55 21.6998 55.5L22.2999 62.3001C22.3999 63.2001 22.6999 63.5 22.8999 63.6C23.0999 63.7 23.5998 63.6 24.1998 63L33.8999 54.1C34.1999 53.8 34.7999 53.8 35.0999 54.1C35.3999 54.5 35.3999 55.1 34.9999 55.4L25.3999 64.3001C24.3999 65.2001 23.5999 65.4 23.0999 65.4Z" fill="#FFF5B6"/>
<path d="M58.5999 55.8C58.2665 55.8 57.8999 55.7666 57.4999 55.6999L48.7999 53.6999C48.3999 53.5999 48.0998 53.1999 48.1998 52.6999C48.2998 52.1999 48.6998 51.9 49.1998 52L57.8999 54C58.6999 54.2 59.1999 54 59.2999 53.9C59.4999 53.7 59.4998 53.2 59.1998 52.5L51.4999 35.9C51.1999 35.1 51.1998 34 51.6998 33.3L60.9999 17.5999C61.3999 16.8999 61.3999 16.3999 61.2999 16.1999C61.1999 15.9999 60.6999 15.8 59.8999 15.9L41.7999 18C40.9999 18.2 39.8999 17.6999 39.2999 17.0999L27.2999 3.39998C26.7999 2.79998 26.2999 2.5999 26.0999 2.6999C25.7999 2.6999 25.4999 3.09998 25.3999 3.89998L21.7999 21.8C21.5999 22.6 20.8999 23.5 20.0999 23.9L3.3999 31.0999C2.5999 31.3999 2.39993 31.7 2.29993 32C2.29993 32.2 2.59993 32.6 3.29993 33L10.1998 36.9C10.6998 37.2 10.7999 37.6999 10.5999 38.0999C10.2999 38.4999 9.7999 38.7 9.3999 38.5L2.3999 34.5999C0.799902 33.5999 0.599854 32.5 0.599854 31.9C0.599854 31.3 0.899829 30.2 2.69983 29.4L19.4999 22.1999C19.6999 22.0999 19.9999 21.7 20.0999 21.4L23.6998 3.59993C23.9998 1.69993 25.0999 1.19995 25.5999 0.999952C26.1999 0.799952 27.2999 0.799903 28.5999 2.1999L40.5999 15.9C40.7999 16.2 41.2999 16.3 41.5999 16.3L59.6998 14.1999C61.5998 13.9999 62.3998 14.7999 62.6998 15.1999C63.0998 15.6999 63.4999 16.8 62.4999 18.5L53.1998 34.0999C52.9998 34.3999 52.9999 34.8999 53.0999 35.1999L60.6998 51.6999C61.4998 53.4999 60.9998 54.5 60.6998 55C60.3998 55.2999 59.7999 55.8 58.5999 55.8Z" fill="#FFF5B6"/>
<path fill-rule="evenodd" clip-rule="evenodd" d="M23.1998 27.2C24.1998 27.4 25.1332 27.7 25.9999 28.1C26.8665 28.5666 27.5998 29.1334 28.1998 29.8C28.8998 30.6 29.1998 31.5 29.1998 32.4C29.1998 33.5 28.7999 34.4 27.9999 35.2C27.2999 36 26.1999 36.4 25.0999 36.4C24.3665 36.4 23.7666 36.2667 23.2999 36C23.0999 35.8667 22.8665 35.7333 22.5999 35.6L22.2999 35.3C22.2999 35.3 22.2665 35.3 22.1998 35.3C21.9332 35.1 21.6333 34.9667 21.2999 34.9C20.9666 34.7667 20.5998 34.7 20.1998 34.7C19.5998 34.7 19.1333 34.7667 18.7999 34.9C18.5333 35.0334 18.2999 35.2 18.0999 35.4C17.9665 35.6667 17.8332 35.9667 17.6998 36.3C17.6332 36.8334 17.5999 37.4 17.5999 38V45.2C17.5999 45.8666 17.6332 46.4334 17.6998 46.9C17.8332 47.3 17.9998 47.6 18.1998 47.8C18.3332 48 18.5333 48.1667 18.7999 48.3C19.1333 48.4334 19.5998 48.5 20.1998 48.5C20.5998 48.5 20.9666 48.4667 21.2999 48.4C21.6333 48.2667 21.9332 48.1 22.1998 47.9C22.2665 47.9 22.2999 47.9 22.2999 47.9L22.5999 47.7C22.8665 47.5666 23.0999 47.4334 23.2999 47.3C23.7666 47.0334 24.3665 46.9 25.0999 46.9C26.1999 46.9 27.2999 47.3 27.9999 48.1C28.7999 48.8 29.1998 49.8 29.1998 50.8C29.1998 51.8 28.8998 52.7 28.1998 53.5C27.5998 54.1 26.8665 54.6333 25.9999 55.1C25.1332 55.5 24.1998 55.8333 23.1998 56.1C22.1332 56.3 21.0665 56.4 19.9999 56.4C18.1999 56.4 16.5998 56.1666 15.1998 55.7C13.7998 55.1 12.6332 54.3 11.6998 53.3C10.7665 52.3 10.0665 51.0666 9.59985 49.6C9.19985 48.2666 8.99988 46.8 8.99988 45.2V38C8.99988 36.4 9.19985 34.9333 9.59985 33.6C10.0665 32.2 10.7665 31 11.6998 30C12.6332 28.9333 13.7998 28.1333 15.1998 27.6C16.5998 27.0666 18.1999 26.8 19.9999 26.8C21.0665 26.8 22.1332 26.9333 23.1998 27.2ZM15.8999 29.2C14.6999 29.6666 13.7332 30.3333 12.9999 31.2C12.1999 32 11.6333 33 11.2999 34.2C10.9666 35.3333 10.7999 36.6 10.7999 38V45.2C10.7999 46.6666 10.9666 47.9666 11.2999 49.1C11.6333 50.3 12.1999 51.3 12.9999 52.1C13.7332 52.9666 14.6999 53.6 15.8999 54C17.0332 54.4667 18.3999 54.7 19.9999 54.7C20.9332 54.7 21.8666 54.6 22.7999 54.4C23.6666 54.2 24.4665 53.9333 25.1998 53.6C25.8665 53.2 26.4332 52.7667 26.8999 52.3C27.2999 51.8334 27.4999 51.3334 27.4999 50.8C27.4999 50.2667 27.2666 49.7667 26.7999 49.3C26.3333 48.9 25.7665 48.7 25.0999 48.7C24.6999 48.7 24.3998 48.7334 24.1998 48.8C23.9998 48.9334 23.7665 49.0666 23.4999 49.2L23.1998 49.4C22.7332 49.7334 22.2666 49.9666 21.7999 50.1C21.2666 50.2333 20.7332 50.3 20.1998 50.3C19.3332 50.3 18.6332 50.1667 18.0999 49.9C17.5665 49.7 17.1333 49.3667 16.7999 48.9C16.4666 48.5 16.1999 47.9667 15.9999 47.3C15.8665 46.7 15.7999 46 15.7999 45.2V38C15.7999 37.2667 15.8665 36.5667 15.9999 35.9C16.1999 35.3 16.4666 34.8 16.7999 34.4C17.1333 33.9334 17.5665 33.5667 18.0999 33.3C18.6332 33.1 19.3332 33 20.1998 33C20.7332 33 21.2666 33.0666 21.7999 33.2C22.2666 33.3333 22.7332 33.5334 23.1998 33.8L23.4999 34.1C23.7665 34.2333 23.9998 34.3334 24.1998 34.4C24.3998 34.5334 24.6999 34.6 25.0999 34.6C25.7665 34.6 26.3333 34.4 26.7999 34C27.2666 33.5333 27.4999 33 27.4999 32.4C27.4999 31.8667 27.2999 31.3667 26.8999 30.9C26.4332 30.4334 25.8665 30.0333 25.1998 29.7C24.4665 29.3666 23.6666 29.1 22.7999 28.9C21.8666 28.7 20.9332 28.6 19.9999 28.6C18.3999 28.6 17.0332 28.8 15.8999 29.2Z" fill="#FFF5B6"/>
<path fill-rule="evenodd" clip-rule="evenodd" d="M44.0999 27.2C45.1665 27.4 46.0999 27.7 46.8999 28.1C47.7666 28.5666 48.4999 29.1334 49.0999 29.8C49.7999 30.6 50.1998 31.5 50.1998 32.4C50.1998 33.5 49.7999 34.4 48.9999 35.2C48.1999 36 47.1999 36.4 45.9999 36.4C45.3332 36.4 44.7666 36.2667 44.2999 36C44.0999 35.8667 43.8665 35.7333 43.5999 35.6L43.1998 35.3C42.8665 35.1 42.5332 34.9667 42.1998 34.9C41.8665 34.7667 41.4999 34.7 41.0999 34.7C40.5665 34.7 40.1333 34.7667 39.7999 34.9C39.4666 35.0334 39.2332 35.2 39.0999 35.4C38.8999 35.6667 38.7665 35.9667 38.6998 36.3C38.5665 36.8334 38.4999 37.4 38.4999 38V45.2C38.4999 45.8666 38.5665 46.4334 38.6998 46.9C38.7665 47.3 38.8999 47.6 39.0999 47.8C39.2332 48 39.4666 48.1667 39.7999 48.3C40.1333 48.4334 40.5665 48.5 41.0999 48.5C41.4999 48.5 41.8665 48.4667 42.1998 48.4C42.5332 48.2667 42.8665 48.1 43.1998 47.9L43.5999 47.7C43.8665 47.5666 44.0999 47.4334 44.2999 47.3C44.7666 47.0334 45.3332 46.9 45.9999 46.9C47.1999 46.9 48.1999 47.3 48.9999 48.1C49.7999 48.8 50.1998 49.8 50.1998 50.8C50.1998 51.8 49.7999 52.7 49.0999 53.5C48.4999 54.1 47.7666 54.6333 46.8999 55.1C46.0999 55.5 45.1665 55.8333 44.0999 56.1C43.0999 56.3 42.0332 56.4 40.8999 56.4C39.0999 56.4 37.5332 56.1666 36.1998 55.7C34.7998 55.1 33.5999 54.3 32.5999 53.3C31.6665 52.3 30.9999 51.0666 30.5999 49.6C30.1999 48.2666 29.9999 46.8 29.9999 45.2V38C29.9999 36.4 30.1999 34.9333 30.5999 33.6C30.9999 32.2 31.6665 31 32.5999 30C33.5999 28.9333 34.7998 28.1333 36.1998 27.6C37.5332 27.0666 39.0999 26.8 40.8999 26.8C42.0332 26.8 43.0999 26.9333 44.0999 27.2ZM36.7999 29.2C35.6666 29.6666 34.6999 30.3333 33.8999 31.2C33.1666 32 32.6333 33 32.2999 34.2C31.8999 35.3333 31.6998 36.6 31.6998 38V45.2C31.6998 46.6666 31.8999 47.9666 32.2999 49.1C32.6333 50.3 33.1666 51.3 33.8999 52.1C34.6999 52.9666 35.6666 53.6 36.7999 54C37.9999 54.4667 39.3666 54.7 40.8999 54.7C41.8999 54.7 42.8332 54.6 43.6998 54.4C44.6332 54.2 45.4332 53.9333 46.0999 53.6C46.8332 53.2 47.3999 52.7667 47.7999 52.3C48.1999 51.8334 48.3999 51.3334 48.3999 50.8C48.3999 50.2667 48.1999 49.7667 47.7999 49.3C47.3333 48.9 46.7332 48.7 45.9999 48.7C45.5999 48.7 45.2999 48.7334 45.0999 48.8C44.9665 48.9334 44.7665 49.0666 44.4999 49.2L44.0999 49.4C43.6332 49.7334 43.1665 49.9666 42.6998 50.1C42.2332 50.2333 41.6999 50.3 41.0999 50.3C40.2999 50.3 39.6332 50.1667 39.0999 49.9C38.4999 49.7 38.0332 49.3667 37.6998 48.9C37.3665 48.5 37.1332 47.9667 36.9999 47.3C36.8665 46.7 36.7999 46 36.7999 45.2V38C36.7999 37.2667 36.8665 36.5667 36.9999 35.9C37.1332 35.3 37.3665 34.8 37.6998 34.4C38.0332 33.9334 38.4999 33.5667 39.0999 33.3C39.6332 33.1 40.2999 33 41.0999 33C41.6999 33 42.2332 33.0666 42.6998 33.2C43.1665 33.3333 43.6332 33.5334 44.0999 33.8L44.4999 34.1C44.7665 34.2333 44.9665 34.3334 45.0999 34.4C45.2999 34.5334 45.5999 34.6 45.9999 34.6C46.7332 34.6 47.3333 34.4 47.7999 34C48.1999 33.5333 48.3999 33 48.3999 32.4C48.3999 31.8667 48.1999 31.3667 47.7999 30.9C47.3999 30.4334 46.8332 30.0333 46.0999 29.7C45.4332 29.3666 44.6332 29.1 43.6998 28.9C42.8332 28.7 41.8999 28.6 40.8999 28.6C39.3666 28.6 37.9999 28.8 36.7999 29.2Z" fill="#FFF5B6"/>
<path fill-rule="evenodd" clip-rule="evenodd" d="M74.8999 27C75.8332 27.0667 76.7665 27.2333 77.6998 27.5C78.6332 27.8333 79.4665 28.2667 80.1998 28.8C81.1998 29.5 81.6998 30.6 81.6998 31.8C81.6998 32.9 81.2999 33.9 80.5999 34.6C79.9999 35.2 79.0999 35.8 77.4999 35.8C76.9665 35.8 76.4665 35.7333 75.9999 35.6C75.7332 35.5333 75.4665 35.4667 75.1998 35.4C75.1332 35.4 75.0999 35.3667 75.0999 35.3C74.8332 35.2334 74.4999 35.1333 74.0999 35C73.8999 35 73.4999 34.9 72.8999 34.9C72.6332 34.9 72.3332 34.9333 71.9999 35C71.7999 35.0667 71.6332 35.1333 71.4999 35.2C71.4332 35.2666 71.3666 35.3334 71.2999 35.4C71.2999 35.4 71.2999 35.6 71.2999 35.9C71.2999 36.2 71.2999 36.4 71.2999 36.4C71.4999 36.6 71.6999 36.7 71.7999 36.8C72.1999 37 72.5999 37.1667 72.9999 37.3C73.3999 37.4334 73.7665 37.5333 74.0999 37.6C74.0999 37.6 74.1332 37.6333 74.1998 37.7C75.1332 37.9666 76.0332 38.2666 76.8999 38.6C77.9666 39 78.8998 39.5333 79.6998 40.2C80.6332 40.8666 81.3666 41.7334 81.8999 42.8C82.4999 43.9334 82.7999 45.2667 82.7999 46.8C82.7999 48.3334 82.4999 49.7 81.8999 50.9C81.3666 52.1 80.5999 53.1333 79.5999 54C78.5999 54.8 77.4665 55.4334 76.1998 55.9C74.9332 56.3 73.5332 56.5 71.9999 56.5C71.2665 56.5 70.4332 56.4334 69.4999 56.3C68.4332 56.1667 67.4665 55.9333 66.5999 55.6C65.5999 55.2666 64.7332 54.8 63.9999 54.2C63.0999 53.5 62.4999 52.4 62.4999 51.3C62.4999 50.2 62.9998 49.3 63.6998 48.5C64.4998 47.7 65.4998 47.2 66.6998 47.2C67.0998 47.2 67.5332 47.2667 67.9999 47.4C68.3332 47.5334 68.6999 47.6667 69.0999 47.8C69.4999 47.9334 69.9665 48.0666 70.4999 48.2C70.9665 48.3333 71.4999 48.4 72.0999 48.4C73.1999 48.4 73.5999 48.2 73.7999 48C73.8999 47.9 74.0999 47.7 74.0999 47C74.0999 46.7 74.0999 46.5 73.9999 46.4C73.8999 46.3 73.6998 46.2 73.6998 46.2C73.2998 46 72.8999 45.8333 72.4999 45.7L71.5999 45.4L71.1998 45.2C70.2665 44.9333 69.3332 44.6334 68.3999 44.3C67.3999 43.9667 66.4665 43.4667 65.5999 42.8C64.7332 42.0667 63.9999 41.1666 63.3999 40.1C62.8666 38.9666 62.5999 37.6333 62.5999 36.1C62.5999 34.7 62.8333 33.4 63.2999 32.2C63.8333 31.0666 64.5332 30.1 65.3999 29.3C66.3332 28.4334 67.4332 27.8 68.6998 27.4C69.8998 27 71.2332 26.8 72.6998 26.8C73.2998 26.8 74.0332 26.8667 74.8999 27ZM69.2999 29.1C68.2333 29.4333 67.3332 29.9333 66.5999 30.6C65.8665 31.2 65.2999 31.9667 64.8999 32.9C64.4999 33.8334 64.2999 34.9 64.2999 36.1C64.2999 37.3666 64.5332 38.4334 64.9999 39.3C65.3999 40.1667 65.9665 40.8667 66.6998 41.4C67.3665 41.9334 68.1665 42.3666 69.0999 42.7C69.9665 43.0333 70.8332 43.3333 71.6998 43.6C72.1665 43.7333 72.6332 43.9 73.0999 44.1C73.5665 44.2333 73.9999 44.4 74.3999 44.6C74.7332 44.7333 75.0666 44.9667 75.3999 45.3C75.6666 45.6334 75.7999 46.2 75.7999 47C75.7999 48 75.4999 48.7667 74.8999 49.3C74.2999 49.8334 73.3665 50.1 72.0999 50.1C71.2999 50.1 70.5999 50.0334 69.9999 49.9C69.3999 49.7 68.8999 49.5334 68.4999 49.4C68.1665 49.2667 67.8332 49.1666 67.4999 49.1C67.2332 49.0333 66.9665 49 66.6998 49C66.0332 49 65.4665 49.2333 64.9999 49.7C64.5332 50.1666 64.2999 50.7 64.2999 51.3C64.2999 51.9 64.5665 52.4334 65.0999 52.9C65.6999 53.3 66.3998 53.6667 67.1998 54C67.9332 54.2667 68.7665 54.4666 69.6998 54.6C70.5665 54.6666 71.3332 54.7 71.9999 54.7C73.3332 54.7 74.5332 54.5333 75.5999 54.2C76.7332 53.8666 77.6999 53.3666 78.4999 52.7C79.2999 52.0333 79.9332 51.2 80.3999 50.2C80.8666 49.2 81.0999 48.0667 81.0999 46.8C81.0999 45.5334 80.8666 44.4666 80.3999 43.6C79.9332 42.8 79.3665 42.1 78.6998 41.5C77.9665 40.9667 77.1666 40.5333 76.2999 40.2C75.4333 39.9333 74.5332 39.6334 73.5999 39.3C73.1999 39.1667 72.7999 39.0334 72.3999 38.9C71.9332 38.7667 71.4665 38.5667 70.9999 38.3C70.7332 38.1667 70.3999 37.9333 69.9999 37.6C69.6665 37.2666 69.4999 36.7 69.4999 35.9C69.4999 35.3667 69.5999 34.9333 69.7999 34.6C69.9999 34.2666 70.2665 33.9666 70.5999 33.7C70.8665 33.5 71.2332 33.3667 71.6998 33.3C72.0998 33.2334 72.4999 33.2 72.8999 33.2C73.5666 33.2 74.0999 33.2334 74.4999 33.3C74.9665 33.4334 75.3665 33.5666 75.6998 33.7C76.0332 33.7666 76.3332 33.8667 76.5999 34C76.8665 34.0667 77.1665 34.1 77.4999 34.1C78.2999 34.1 78.8999 33.8667 79.2999 33.4C79.7666 32.9334 79.9999 32.4 79.9999 31.8C79.9999 31.1334 79.7332 30.6 79.1998 30.2C78.5998 29.7333 77.9332 29.4 77.1998 29.2C76.3998 28.9333 75.5999 28.7666 74.7999 28.7C73.9333 28.6333 73.2332 28.6 72.6998 28.6C71.4332 28.6 70.2999 28.7666 69.2999 29.1Z" fill="#FFF5B6"/>
<path fill-rule="evenodd" clip-rule="evenodd" d="M104.7 28C105.6 28.7 106.1 29.8 106.1 30.9V52.4C106.1 53.5 105.6 54.5 104.8 55.3C104 56.1 102.9 56.5 101.8 56.5C100.7 56.5 99.5999 56.1 98.7999 55.3C97.9999 54.5 97.4999 53.5 97.4999 52.4V45.7H93.2999V52.4C93.2999 53.5 92.7999 54.5 91.9999 55.3C91.1999 56.1 90.0999 56.5 88.9999 56.5C87.8999 56.5 86.7999 56.1 85.9999 55.3C85.1999 54.5 84.6998 53.5 84.6998 52.4V30.9C84.6998 29.8 85.1999 28.8 85.9999 28C86.7999 27.2 87.8999 26.8 88.9999 26.8C90.0999 26.8 91.1999 27.2 91.9999 28C92.7999 28.8 93.2999 29.8 93.2999 30.9V37.6H97.4999V30.9C97.4999 29.8 97.9999 28.7 98.7999 28C99.6999 27.2 100.7 26.8 101.8 26.8C102.9 26.8 103.9 27.2 104.7 28ZM99.9999 29.3C99.5332 29.7 99.2999 30.2334 99.2999 30.9V39.3H91.4999V30.9C91.4999 30.2334 91.2666 29.7 90.7999 29.3C90.3333 28.8334 89.7332 28.6 88.9999 28.6C88.3332 28.6 87.7332 28.8334 87.1998 29.3C86.7332 29.7 86.4999 30.2334 86.4999 30.9V52.4C86.4999 53 86.7332 53.5333 87.1998 54C87.7332 54.4667 88.3332 54.7 88.9999 54.7C89.7332 54.7 90.3333 54.4667 90.7999 54C91.2666 53.5333 91.4999 53 91.4999 52.4V43.9H99.2999V52.4C99.2999 53 99.5332 53.5333 99.9999 54C100.533 54.4667 101.133 54.7 101.8 54.7C102.467 54.7 103.067 54.4667 103.6 54C104.067 53.5333 104.3 53 104.3 52.4V30.9C104.3 30.2334 104.067 29.7 103.6 29.3C103.067 28.8334 102.467 28.6 101.8 28.6C101.133 28.6 100.533 28.8334 99.9999 29.3Z" fill="#FFF5B6"/>
<path fill-rule="evenodd" clip-rule="evenodd" d="M124.7 27.7C126.1 28.3 127.266 29.1333 128.2 30.2C129.133 31.2666 129.8 32.5 130.2 33.9C130.6 35.2334 130.8 36.6 130.8 38V45.2C130.8 46.7333 130.567 48.1667 130.1 49.5C129.633 50.9 128.933 52.1 128 53.1C127 54.1666 125.8 55 124.4 55.6C123.067 56.2 121.5 56.5 119.7 56.5C117.9 56.5 116.3 56.2 114.9 55.6C113.5 55 112.3 54.1666 111.3 53.1C110.367 52.1 109.666 50.9 109.2 49.5C108.733 48.1667 108.5 46.7333 108.5 45.2V38C108.5 36.6 108.7 35.2334 109.1 33.9C109.5 32.5 110.167 31.2666 111.1 30.2C112.033 29.1333 113.2 28.3 114.6 27.7C116.067 27.1 117.766 26.8 119.7 26.8C121.566 26.8 123.233 27.1 124.7 27.7ZM115.3 29.3C114.1 29.8334 113.133 30.5334 112.4 31.4C111.667 32.2667 111.133 33.2667 110.8 34.4C110.4 35.5334 110.2 36.7333 110.2 38V45.2C110.2 46.5333 110.4 47.7667 110.8 48.9C111.2 50.1 111.8 51.1333 112.6 52C113.4 52.8667 114.367 53.5333 115.5 54C116.7 54.4667 118.1 54.7 119.7 54.7C121.233 54.7 122.6 54.4667 123.8 54C124.933 53.5333 125.9 52.8667 126.7 52C127.5 51.1333 128.1 50.1 128.5 48.9C128.9 47.7667 129.1 46.5333 129.1 45.2V38C129.1 36.7333 128.9 35.5334 128.5 34.4C128.167 33.2667 127.633 32.2667 126.9 31.4C126.167 30.5334 125.2 29.8334 124 29.3C122.8 28.8334 121.366 28.6 119.7 28.6C117.966 28.6 116.5 28.8334 115.3 29.3ZM116.4 48.8C115.667 47.8667 115.3 46.6666 115.3 45.2V38C115.3 36.5333 115.633 35.3667 116.3 34.5C116.967 33.6333 118.1 33.2 119.7 33.2C121.233 33.2 122.333 33.6333 123 34.5C123.667 35.3667 124 36.5333 124 38V45.2C124 46.6666 123.667 47.8667 123 48.8C122.267 49.6667 121.166 50.1 119.7 50.1C118.166 50.1 117.067 49.6667 116.4 48.8ZM121.6 47.7C122.067 47.1 122.3 46.2666 122.3 45.2V38C122.3 36.9333 122.067 36.1 121.6 35.5C121.333 35.1 120.7 34.9 119.7 34.9C118.7 34.9 118.033 35.1 117.7 35.5C117.3 36.1 117.1 36.9333 117.1 38V45.2C117.1 46.2666 117.333 47.1 117.8 47.7C118 48 118.4 48.4 119.7 48.4C120.9 48.4 121.3 48 121.6 47.7Z" fill="#FFF5B6"/>
<path fill-rule="evenodd" clip-rule="evenodd" d="M151 28.2C151.6 28.8666 152.033 29.7334 152.3 30.8L153.7 36.8L155.4 30.1C155.667 29.1 156.167 28.3334 156.9 27.8C157.633 27.2 158.467 26.9 159.4 26.9C159.867 26.9 160.333 26.9666 160.8 27.1C161.333 27.2333 161.833 27.4333 162.3 27.7C162.767 28.0333 163.133 28.4334 163.4 28.9C163.8 29.5 164 30.1667 164 30.9V31.1C164 31.3 163.967 31.5667 163.9 31.9L158.4 52.9C158.4 52.9 158.4 52.9333 158.4 53C158.133 53.8667 157.667 54.6334 157 55.3C156.2 56.1 155.133 56.5 153.8 56.5C152.467 56.5 151.367 56.1 150.5 55.3C149.833 54.6334 149.367 53.8667 149.1 53C149.1 52.9333 149.1 52.8667 149.1 52.8L147.7 46.9L146.2 52.9C146.2 52.9 146.2 52.9333 146.2 53C146.066 53.3333 145.9 53.7 145.7 54.1C145.5 54.5666 145.2 54.9667 144.8 55.3C144.4 55.6334 143.933 55.9333 143.4 56.2C142.867 56.4 142.233 56.5 141.5 56.5C140.4 56.5 139.3 56.1 138.5 55.3C137.7 54.6334 137.167 53.8667 136.9 53C136.9 52.9333 136.9 52.9 136.9 52.9L131.5 32C131.5 31.9333 131.5 31.9 131.5 31.9C131.5 31.7667 131.467 31.6333 131.4 31.5C131.333 31.3 131.3 31.0667 131.3 30.8C131.3 30.1334 131.5 29.5333 131.9 29C132.167 28.5333 132.5 28.1667 132.9 27.9C133.3 27.5667 133.767 27.3 134.3 27.1C134.833 26.9666 135.333 26.9 135.8 26.9C136.667 26.9 137.466 27.1333 138.2 27.6C139 28.1 139.6 29 139.8 30L141.6 36.7L143 30.8C143.333 29.7334 143.767 28.8666 144.3 28.2C144.967 27.2666 146.1 26.8 147.7 26.8C149.1 26.8 150.2 27.2666 151 28.2ZM145.6 29.3C145.267 29.7667 144.966 30.4 144.7 31.2L142.6 39.7C142.333 40.7 142.167 41.7334 142.1 42.8C141.967 43.8 141.8 44.8 141.6 45.8C141.4 44.7334 141.233 43.7 141.1 42.7C140.967 41.7 140.767 40.7 140.5 39.7L138.1 30.4C137.967 29.8 137.7 29.3666 137.3 29.1C136.833 28.8333 136.333 28.7 135.8 28.7C135.467 28.7 135.133 28.7334 134.8 28.8C134.467 28.9334 134.2 29.1 134 29.3C133.733 29.4334 133.5 29.6334 133.3 29.9C133.167 30.1667 133.1 30.4667 133.1 30.8C133.1 30.9334 133.1 31.0333 133.1 31.1C133.167 31.3 133.2 31.4333 133.2 31.5L138.5 52.5C138.7 53.0333 139.067 53.5333 139.6 54C140.133 54.4667 140.767 54.7 141.5 54.7C142.033 54.7 142.467 54.6333 142.8 54.5C143.133 54.3667 143.4 54.2 143.6 54C143.867 53.8 144.066 53.5667 144.2 53.3C144.333 53.0334 144.433 52.7667 144.5 52.5L146.7 43.6C146.9 42.6 147.066 41.6333 147.2 40.7C147.333 39.7 147.5 38.7334 147.7 37.8C147.833 38.7334 147.967 39.7 148.1 40.7C148.233 41.6333 148.4 42.6 148.6 43.6L150.8 52.4C151 53 151.333 53.5333 151.8 54C152.267 54.4667 152.933 54.7 153.8 54.7C154.667 54.7 155.333 54.4667 155.8 54C156.267 53.6 156.6 53.1 156.8 52.5L162.2 31.4C162.266 31.2667 162.3 31.1666 162.3 31.1C162.3 31.0333 162.3 30.9667 162.3 30.9C162.3 30.5 162.2 30.1667 162 29.9C161.8 29.6334 161.567 29.4 161.3 29.2C161.033 29 160.733 28.8667 160.4 28.8C160.067 28.7334 159.733 28.7 159.4 28.7C158.867 28.7 158.4 28.8666 158 29.2C157.533 29.4666 157.233 29.9 157.1 30.5L154.8 39.7C154.533 40.7666 154.333 41.8 154.2 42.8C154.066 43.8 153.9 44.8 153.7 45.8C153.5 44.8 153.333 43.8 153.2 42.8C153.133 41.8 152.966 40.7666 152.7 39.7L150.6 31.2C150.4 30.4 150.1 29.7667 149.7 29.3C149.233 28.8334 148.566 28.6 147.7 28.6C146.7 28.6 146 28.8334 145.6 29.3Z" fill="#FFF5B6"/>
<path d="M110.9 17.5L111 17.8C111.067 17.6667 111.2 17.5334 111.4 17.4C111.6 17.2667 111.8 17.2 112 17.2C112.333 17.2 112.6 17.3 112.8 17.5C112.933 17.6333 113.066 17.8 113.2 18C113.333 17.8 113.5 17.6 113.7 17.4C113.9 17.2667 114.167 17.2 114.5 17.2C114.7 17.2 114.867 17.2667 115 17.4C115.2 17.4667 115.367 17.5666 115.5 17.7C115.567 17.8333 115.633 18 115.7 18.2C115.766 18.4 115.8 18.6 115.8 18.8V20.9C115.8 20.9667 115.8 21 115.8 21C115.733 21.0667 115.667 21.1 115.6 21.1H115.4C115.267 21.1 115.2 21.0334 115.2 20.9V18.8C115.2 18.5334 115.133 18.3 115 18.1C114.867 17.9666 114.667 17.9 114.4 17.9C114.267 17.9 114.133 17.9 114 17.9C113.867 17.9667 113.766 18.0333 113.7 18.1C113.633 18.2333 113.567 18.3334 113.5 18.4C113.433 18.5334 113.4 18.6667 113.4 18.8V20.9C113.4 21.0334 113.333 21.1 113.2 21.1H112.9C112.833 21.1 112.8 21.0667 112.8 21C112.733 21 112.7 20.9667 112.7 20.9V18.8C112.7 18.5334 112.633 18.3 112.5 18.1C112.367 17.9666 112.167 17.9 111.9 17.9C111.767 17.9 111.667 17.9 111.6 17.9C111.467 17.9667 111.367 18.0333 111.3 18.1C111.167 18.2333 111.067 18.3334 111 18.4C111 18.5334 111 18.6667 111 18.8V20.9C111 21.0334 110.933 21.1 110.8 21.1H110.5C110.367 21.1 110.3 21.0334 110.3 20.9V17.5C110.3 17.3667 110.367 17.3 110.5 17.3H110.8C110.867 17.3 110.9 17.3667 110.9 17.5Z" fill="#FFF5B6"/>
<path d="M116.9 16.2C116.9 16.0666 116.933 15.9667 117 15.9C117.067 15.8334 117.167 15.8 117.3 15.8C117.5 15.8 117.633 15.8334 117.7 15.9C117.766 15.9667 117.8 16.0666 117.8 16.2C117.8 16.3333 117.766 16.4666 117.7 16.6C117.633 16.6666 117.5 16.7 117.3 16.7C117.167 16.7 117.067 16.6666 117 16.6C116.933 16.4666 116.9 16.3333 116.9 16.2ZM117.7 17.5V20.9C117.7 21.0334 117.633 21.1 117.5 21.1H117.2C117.066 21.1 117 21.0334 117 20.9V17.5C117 17.3667 117.066 17.3 117.2 17.3H117.5C117.633 17.3 117.7 17.3667 117.7 17.5Z" fill="#FFF5B6"/>
<path d="M120.5 19.1L121.7 20.9C121.766 20.9667 121.8 21 121.8 21C121.8 21.0667 121.766 21.1 121.7 21.1H121.2C121.133 21.1 121.067 21.0334 121 20.9L120.1 19.6L119.2 20.9C119.133 21.0334 119.067 21.1 119 21.1H118.6C118.467 21.1 118.4 21.0667 118.4 21C118.4 21 118.4 20.9667 118.4 20.9C118.467 20.9 118.5 20.9 118.5 20.9L119.7 19.1L118.6 17.4C118.6 17.4 118.6 17.3667 118.6 17.3C118.6 17.3 118.633 17.3 118.7 17.3H119.1C119.167 17.3 119.233 17.3 119.3 17.3C119.3 17.3667 119.333 17.4333 119.4 17.5L120.1 18.6L120.8 17.4C120.867 17.4 120.9 17.3667 120.9 17.3C120.967 17.3 121.033 17.3 121.1 17.3H121.5C121.567 17.3 121.6 17.3 121.6 17.3C121.6 17.3667 121.6 17.4 121.6 17.4L120.5 19.1Z" fill="#FFF5B6"/>
<path fill-rule="evenodd" clip-rule="evenodd" d="M127.6 20.9V20.5C127.533 20.7 127.4 20.8667 127.2 21C127 21.0667 126.767 21.1 126.5 21.1C126.233 21.1 125.966 21.0667 125.7 21C125.5 20.8667 125.3 20.7333 125.1 20.6C124.967 20.4 124.867 20.2 124.8 20C124.667 19.7333 124.6 19.4666 124.6 19.2C124.6 18.9333 124.667 18.6667 124.8 18.4C124.867 18.2 124.967 18 125.1 17.8C125.3 17.6 125.5 17.4667 125.7 17.4C125.966 17.2667 126.233 17.2 126.5 17.2C126.633 17.2 126.767 17.2334 126.9 17.3C127.033 17.3 127.133 17.3334 127.2 17.4C127.266 17.4667 127.333 17.5333 127.4 17.6C127.467 17.7333 127.533 17.8334 127.6 17.9L127.7 17.5C127.7 17.4333 127.7 17.3667 127.7 17.3C127.7 17.3 127.733 17.3 127.8 17.3H128.1C128.1 17.3 128.133 17.3 128.2 17.3C128.266 17.3667 128.3 17.4333 128.3 17.5V20.9C128.3 20.9667 128.266 21 128.2 21C128.133 21.0667 128.1 21.1 128.1 21.1H127.8C127.667 21.1 127.6 21.0334 127.6 20.9ZM125.3 19.2C125.3 19.4 125.3 19.5666 125.3 19.7C125.367 19.8333 125.467 19.9666 125.6 20.1C125.667 20.2333 125.8 20.3334 126 20.4C126.133 20.4667 126.3 20.5 126.5 20.5C126.633 20.5 126.8 20.4667 127 20.4C127.133 20.3334 127.233 20.2333 127.3 20.1C127.433 20.0333 127.5 19.9 127.5 19.7C127.567 19.5666 127.6 19.4 127.6 19.2C127.6 19 127.567 18.8333 127.5 18.7C127.5 18.5666 127.433 18.4334 127.3 18.3C127.233 18.1667 127.133 18.0667 127 18C126.8 17.9333 126.633 17.9 126.5 17.9C126.3 17.9 126.133 17.9333 126 18C125.8 18.0667 125.667 18.1667 125.6 18.3C125.467 18.4334 125.367 18.5666 125.3 18.7C125.3 18.8333 125.3 19 125.3 19.2Z" fill="#FFF5B6"/>
<path d="M130.1 17.5L130.2 17.8C130.266 17.7334 130.333 17.6666 130.4 17.6C130.467 17.5333 130.566 17.4667 130.7 17.4C130.833 17.3334 130.967 17.3 131.1 17.3C131.233 17.2334 131.367 17.2 131.5 17.2C131.7 17.2 131.9 17.2667 132.1 17.4C132.233 17.4667 132.367 17.5666 132.5 17.7C132.633 17.8333 132.733 18 132.8 18.2C132.867 18.4 132.9 18.6 132.9 18.8V20.9C132.9 20.9667 132.9 21 132.9 21C132.833 21.0667 132.766 21.1 132.7 21.1H132.4C132.333 21.1 132.3 21.0667 132.3 21C132.233 21 132.2 20.9667 132.2 20.9V18.8C132.2 18.6667 132.2 18.5667 132.2 18.5C132.133 18.3667 132.067 18.2666 132 18.2C131.933 18.0666 131.833 18 131.7 18C131.566 17.9333 131.433 17.9 131.3 17.9C131.167 17.9 131.033 17.9 130.9 17.9C130.767 17.9667 130.633 18.0333 130.5 18.1C130.433 18.1666 130.367 18.2667 130.3 18.4C130.233 18.4667 130.2 18.5666 130.2 18.7V20.9C130.2 21.0334 130.133 21.1 130 21.1H129.7C129.566 21.1 129.5 21.0334 129.5 20.9V17.5C129.5 17.4333 129.533 17.3667 129.6 17.3C129.6 17.3 129.633 17.3 129.7 17.3H130C130.067 17.3 130.1 17.3667 130.1 17.5Z" fill="#FFF5B6"/>
<path fill-rule="evenodd" clip-rule="evenodd" d="M137.3 15.5V20.9C137.3 21.0334 137.233 21.1 137.1 21.1H136.9C136.7 21.1 136.6 21.0334 136.6 20.9V20.6C136.467 20.7333 136.333 20.8667 136.2 21C136 21.0667 135.767 21.1 135.5 21.1C135.233 21.1 135 21.0667 134.8 21C134.533 20.8667 134.333 20.7333 134.2 20.6C134.066 20.4 133.933 20.2 133.8 20C133.733 19.7333 133.7 19.4666 133.7 19.2C133.7 18.9333 133.733 18.6667 133.8 18.4C133.933 18.2 134.066 18 134.2 17.8C134.333 17.6 134.533 17.4667 134.8 17.4C135 17.2667 135.233 17.2 135.5 17.2C135.767 17.2 136 17.2667 136.2 17.4C136.4 17.5334 136.533 17.6667 136.6 17.8V15.5C136.6 15.4333 136.7 15.4 136.9 15.4H137.1C137.167 15.4 137.2 15.4 137.2 15.4C137.266 15.4667 137.3 15.5 137.3 15.5ZM136.7 19.2C136.7 19 136.667 18.8333 136.6 18.7C136.533 18.5666 136.467 18.4334 136.4 18.3C136.267 18.1667 136.133 18.0667 136 18C135.867 17.9333 135.7 17.9 135.5 17.9C135.367 17.9 135.2 17.9333 135 18C134.867 18.0667 134.766 18.1667 134.7 18.3C134.566 18.4334 134.5 18.5666 134.5 18.7C134.433 18.8333 134.4 19 134.4 19.2C134.4 19.4 134.433 19.5666 134.5 19.7C134.5 19.8333 134.566 19.9666 134.7 20.1C134.766 20.2333 134.867 20.3334 135 20.4C135.2 20.4667 135.367 20.5 135.5 20.5C135.7 20.5 135.867 20.4667 136 20.4C136.133 20.3334 136.267 20.2333 136.4 20.1C136.467 19.9666 136.533 19.8333 136.6 19.7C136.667 19.5666 136.7 19.4 136.7 19.2Z" fill="#FFF5B6"/>
<path d="M141.5 17.5L141.6 17.8C141.667 17.6667 141.8 17.5334 142 17.4C142.2 17.2667 142.4 17.2 142.6 17.2C142.933 17.2 143.2 17.3 143.4 17.5C143.533 17.6333 143.667 17.8 143.8 18C143.933 17.8 144.1 17.6 144.3 17.4C144.5 17.2667 144.733 17.2 145 17.2C145.267 17.2 145.467 17.2667 145.6 17.4C145.8 17.4667 145.967 17.5666 146.1 17.7C146.167 17.8333 146.233 18 146.3 18.2C146.367 18.4 146.4 18.6 146.4 18.8V20.9C146.4 20.9667 146.4 21 146.4 21C146.333 21.0667 146.266 21.1 146.2 21.1H145.9C145.767 21.1 145.7 21.0334 145.7 20.9V18.8C145.7 18.5334 145.667 18.3 145.6 18.1C145.467 17.9666 145.233 17.9 144.9 17.9C144.833 17.9 144.733 17.9 144.6 17.9C144.467 17.9667 144.367 18.0333 144.3 18.1C144.233 18.2333 144.167 18.3334 144.1 18.4C144.033 18.5334 144 18.6667 144 18.8V20.9C144 21.0334 143.933 21.1 143.8 21.1H143.5C143.433 21.1 143.4 21.0667 143.4 21C143.333 21 143.3 20.9667 143.3 20.9V18.8C143.3 18.5334 143.233 18.3 143.1 18.1C142.967 17.9666 142.767 17.9 142.5 17.9C142.367 17.9 142.233 17.9 142.1 17.9C142.033 17.9667 141.933 18.0333 141.8 18.1C141.733 18.2333 141.667 18.3334 141.6 18.4C141.6 18.5334 141.6 18.6667 141.6 18.8V20.9C141.6 21.0334 141.533 21.1 141.4 21.1H141.1C140.967 21.1 140.9 21.0334 140.9 20.9V17.5C140.9 17.3667 140.967 17.3 141.1 17.3H141.4C141.467 17.3 141.5 17.3667 141.5 17.5Z" fill="#FFF5B6"/>
<path fill-rule="evenodd" clip-rule="evenodd" d="M150.3 20.9V20.5C150.167 20.7 150 20.8667 149.8 21C149.667 21.0667 149.433 21.1 149.1 21.1C148.833 21.1 148.6 21.0667 148.4 21C148.133 20.8667 147.933 20.7333 147.8 20.6C147.667 20.4 147.533 20.2 147.4 20C147.333 19.7333 147.3 19.4666 147.3 19.2C147.3 18.9333 147.333 18.6667 147.4 18.4C147.533 18.2 147.667 18 147.8 17.8C147.933 17.6 148.133 17.4667 148.4 17.4C148.6 17.2667 148.833 17.2 149.1 17.2C149.3 17.2 149.433 17.2334 149.5 17.3C149.633 17.3 149.733 17.3334 149.8 17.4C149.933 17.4667 150.033 17.5333 150.1 17.6C150.167 17.7333 150.233 17.8334 150.3 17.9V17.5C150.3 17.4333 150.333 17.3667 150.4 17.3C150.4 17.3 150.433 17.3 150.5 17.3H150.7C150.766 17.3 150.833 17.3 150.9 17.3C150.9 17.3667 150.9 17.4333 150.9 17.5V20.9C150.9 20.9667 150.9 21 150.9 21C150.833 21.0667 150.766 21.1 150.7 21.1H150.5C150.367 21.1 150.3 21.0334 150.3 20.9ZM147.9 19.2C147.9 19.4 147.933 19.5666 148 19.7C148.067 19.8333 148.133 19.9666 148.2 20.1C148.333 20.2333 148.467 20.3334 148.6 20.4C148.8 20.4667 148.967 20.5 149.1 20.5C149.3 20.5 149.467 20.4667 149.6 20.4C149.733 20.3334 149.867 20.2333 150 20.1C150.067 20.0333 150.133 19.9 150.2 19.7C150.266 19.5666 150.3 19.4 150.3 19.2C150.3 19 150.266 18.8333 150.2 18.7C150.133 18.5666 150.067 18.4334 150 18.3C149.867 18.1667 149.733 18.0667 149.6 18C149.467 17.9333 149.3 17.9 149.1 17.9C148.9 17.9 148.733 17.9333 148.6 18C148.467 18.0667 148.333 18.1667 148.2 18.3C148.133 18.4334 148.067 18.5666 148 18.7C147.933 18.8333 147.9 19 147.9 19.2Z" fill="#FFF5B6"/>
<path d="M153.5 21.1C153.433 21.1 153.4 21.1 153.4 21.1C153.267 21.1 153.133 21.1 153 21.1C152.867 21.1 152.766 21.0667 152.7 21C152.633 20.9333 152.567 20.8333 152.5 20.7C152.433 20.5666 152.4 20.4 152.4 20.2V17.9H151.9C151.833 17.9 151.8 17.9 151.8 17.9C151.733 17.8334 151.7 17.7666 151.7 17.7V17.5C151.7 17.4333 151.733 17.3667 151.8 17.3C151.8 17.3 151.833 17.3 151.9 17.3H152.4V16.2C152.4 16.1333 152.433 16.1 152.5 16.1L152.9 16C152.967 16 153 16.0333 153 16.1C153.067 16.1 153.1 16.1333 153.1 16.2V17.3H153.6C153.733 17.3 153.8 17.3667 153.8 17.5V17.7C153.8 17.8333 153.733 17.9 153.6 17.9H153.1V20C153.1 20.1333 153.1 20.2334 153.1 20.3C153.1 20.3667 153.133 20.4 153.2 20.4C153.2 20.4667 153.233 20.5 153.3 20.5C153.367 20.5 153.433 20.5 153.5 20.5C153.633 20.5 153.7 20.5666 153.7 20.7V20.9C153.7 21.0334 153.633 21.1 153.5 21.1Z" fill="#FFF5B6"/>
<path d="M156.2 20.5C156.333 20.5 156.467 20.4667 156.6 20.4C156.8 20.3334 156.967 20.2666 157.1 20.2C157.1 20.1333 157.133 20.1 157.2 20.1C157.266 20.1 157.3 20.1333 157.3 20.2L157.5 20.5C157.5 20.5 157.5 20.5333 157.5 20.6C157.5 20.6 157.5 20.6333 157.5 20.7C157.433 20.7 157.4 20.7 157.4 20.7C157.2 20.8333 157 20.9333 156.8 21C156.6 21.1333 156.4 21.2 156.2 21.2C155.933 21.2 155.667 21.1333 155.4 21C155.133 20.8667 154.933 20.7333 154.8 20.6C154.6 20.4 154.467 20.2 154.4 20C154.267 19.7333 154.2 19.4666 154.2 19.2C154.2 18.9333 154.267 18.6667 154.4 18.4C154.467 18.2 154.6 18 154.8 17.8C154.933 17.6 155.133 17.4667 155.4 17.4C155.667 17.2667 155.933 17.2 156.2 17.2C156.4 17.2 156.6 17.2334 156.8 17.3C157 17.3667 157.2 17.4666 157.4 17.6C157.467 17.6666 157.5 17.7334 157.5 17.8C157.5 17.8 157.5 17.8334 157.5 17.9L157.2 18.2C157.2 18.2 157.167 18.2 157.1 18.2C157.1 18.2 157.067 18.2 157 18.2C156.867 18.0666 156.733 17.9667 156.6 17.9C156.467 17.8334 156.333 17.8 156.2 17.8C156 17.8 155.8 17.8334 155.6 17.9C155.467 17.9667 155.333 18.0666 155.2 18.2C155.066 18.3333 154.967 18.5 154.9 18.7C154.833 18.8333 154.8 19 154.8 19.2C154.8 19.4 154.833 19.5666 154.9 19.7C154.967 19.9 155.066 20.0333 155.2 20.1C155.333 20.2333 155.467 20.3334 155.6 20.4C155.8 20.4667 156 20.5 156.2 20.5Z" fill="#FFF5B6"/>
<path d="M159.1 15.5V17.8C159.167 17.7334 159.267 17.6666 159.4 17.6C159.467 17.5333 159.566 17.4667 159.7 17.4C159.833 17.3334 159.933 17.3 160 17.3C160.133 17.2334 160.267 17.2 160.4 17.2C160.6 17.2 160.8 17.2667 161 17.4C161.2 17.4667 161.367 17.5666 161.5 17.7C161.633 17.8333 161.733 18 161.8 18.2C161.867 18.4 161.9 18.6 161.9 18.8V20.9C161.9 20.9667 161.867 21 161.8 21C161.733 21.0667 161.7 21.1 161.7 21.1H161.3C161.233 21.1 161.2 21.0667 161.2 21C161.2 21 161.2 20.9667 161.2 20.9V18.8C161.2 18.6667 161.167 18.5667 161.1 18.5C161.1 18.3667 161.067 18.2666 161 18.2C160.933 18.0666 160.833 18 160.7 18C160.566 17.9333 160.433 17.9 160.3 17.9C160.167 17.9 160.033 17.9 159.9 17.9C159.767 17.9667 159.633 18.0333 159.5 18.1C159.433 18.2333 159.333 18.3334 159.2 18.4C159.133 18.5334 159.1 18.6667 159.1 18.8V20.9C159.1 21.0334 159.033 21.1 158.9 21.1H158.6C158.533 21.1 158.5 21.0334 158.5 20.9V15.5C158.5 15.4333 158.533 15.4 158.6 15.4H158.9C158.967 15.4 159.033 15.4 159.1 15.4C159.1 15.4667 159.1 15.5 159.1 15.5Z" fill="#FFF5B6"/>
<path d="M95.7999 63.3C95.8666 63.5 95.9332 63.7 95.9999 63.9C96.0665 64.1667 96.1666 64.4 96.2999 64.6C96.3666 64.8666 96.4332 65.1 96.4999 65.3C96.6332 65.5 96.7333 65.7 96.7999 65.9C96.8666 65.6334 96.9665 65.3666 97.0999 65.1C97.2332 64.7666 97.3665 64.4666 97.4999 64.2L97.7999 63.3C97.8666 63.1667 97.9332 63.1 97.9999 63.1H98.2999C98.4333 63.1 98.4999 63.1667 98.4999 63.3C98.4999 63.3667 98.4999 63.4 98.4999 63.4C98.4332 63.5334 98.3666 63.6333 98.2999 63.7C98.2999 63.8333 98.2665 63.9666 98.1998 64.1C98.2665 64.3 98.3332 64.5 98.3999 64.7C98.4666 64.9 98.5332 65.0666 98.5999 65.2L98.8999 65.9C98.9666 65.7 99.0332 65.5 99.0999 65.3C99.2332 65.1 99.3332 64.8666 99.3999 64.6C99.4666 64.4 99.5665 64.1667 99.6998 63.9C99.7665 63.7 99.8332 63.5 99.8999 63.3C99.8999 63.2334 99.9332 63.2 99.9999 63.2C100.067 63.1333 100.1 63.1 100.1 63.1H100.4C100.533 63.1 100.6 63.1667 100.6 63.3C100.6 63.3667 100.6 63.4 100.6 63.4L99.1998 66.8C99.1998 66.7334 99.1998 66.7334 99.1998 66.8C99.1332 66.8667 99.0665 66.9 98.9999 66.9H98.7999C98.7333 66.9 98.6665 66.9 98.5999 66.9C98.5999 66.8334 98.5999 66.8 98.5999 66.8L97.7999 65L97.0999 66.8C97.0332 66.8667 96.9666 66.9 96.8999 66.9H96.6998C96.6332 66.9 96.5665 66.9 96.4999 66.9C96.4999 66.8334 96.4999 66.8 96.4999 66.8L95.0999 63.4C95.0999 63.4 95.0999 63.3667 95.0999 63.3C95.0999 63.1667 95.1332 63.1 95.1998 63.1H95.4999C95.5665 63.1 95.6332 63.1333 95.6998 63.2C95.6998 63.2 95.7333 63.2334 95.7999 63.3Z" fill="#FFF5B6"/>
<path fill-rule="evenodd" clip-rule="evenodd" d="M102.6 67C102.333 67 102.1 66.9334 101.9 66.8C101.633 66.7334 101.433 66.6 101.3 66.4C101.1 66.2667 100.967 66.0667 100.9 65.8C100.767 65.5334 100.7 65.2667 100.7 65C100.7 64.7333 100.767 64.5 100.9 64.3C100.967 64.0334 101.1 63.8 101.3 63.6C101.433 63.4666 101.633 63.3333 101.9 63.2C102.1 63.1333 102.333 63.1 102.6 63.1C102.8 63.1 103 63.1333 103.2 63.2C103.4 63.2666 103.6 63.4 103.8 63.6C103.933 63.7333 104.033 63.9333 104.1 64.2C104.233 64.4 104.3 64.6334 104.3 64.9V65C104.3 65.1333 104.233 65.2334 104.1 65.3C104.033 65.3 103.933 65.3 103.8 65.3H101.4C101.467 65.6334 101.6 65.9 101.8 66.1C102 66.2333 102.267 66.3 102.6 66.3C102.733 66.3 102.867 66.3 103 66.3C103.2 66.2334 103.333 66.1333 103.4 66C103.467 66 103.533 66 103.6 66C103.6 66 103.633 66 103.7 66L103.9 66.3C103.9 66.3667 103.9 66.4 103.9 66.4C103.9 66.4667 103.9 66.5 103.9 66.5C103.833 66.5 103.8 66.5333 103.8 66.6C103.6 66.6666 103.4 66.7667 103.2 66.9C103 66.9667 102.8 67 102.6 67ZM101.5 64.8H103.6C103.6 64.6 103.567 64.4334 103.5 64.3C103.433 64.2334 103.333 64.1333 103.2 64C103.133 63.9333 103.033 63.8667 102.9 63.8C102.767 63.7334 102.633 63.7 102.5 63.7C102.367 63.7 102.266 63.7334 102.2 63.8C102.066 63.8667 101.967 63.9333 101.9 64C101.767 64.1333 101.667 64.2334 101.6 64.3C101.533 64.4334 101.5 64.6 101.5 64.8Z" fill="#FFF5B6"/>
<path d="M108.2 63.3V63.7C108.266 63.5 108.4 63.3667 108.6 63.3C108.8 63.1667 109.033 63.1 109.3 63.1C109.567 63.1 109.8 63.1667 110 63.3C110.133 63.5 110.267 63.7 110.4 63.9C110.533 63.6334 110.7 63.4334 110.9 63.3C111.1 63.1667 111.366 63.1 111.7 63.1C111.9 63.1 112.1 63.1333 112.3 63.2C112.433 63.2666 112.566 63.3667 112.7 63.5C112.833 63.7 112.933 63.8667 113 64C113 64.2 113 64.4333 113 64.7V66.7C113 66.7666 113 66.8334 113 66.9C112.933 66.9 112.9 66.9 112.9 66.9H112.6C112.467 66.9 112.4 66.8333 112.4 66.7V64.6C112.4 64.4 112.333 64.2 112.2 64C112.066 63.8 111.867 63.7 111.6 63.7C111.467 63.7 111.333 63.7334 111.2 63.8C111.066 63.8667 110.967 63.9333 110.9 64C110.833 64.0667 110.766 64.1667 110.7 64.3C110.633 64.4334 110.6 64.5666 110.6 64.7V66.7C110.6 66.8333 110.533 66.9 110.4 66.9H110.1C110.033 66.9 110 66.9 110 66.9C110 66.8334 110 66.7666 110 66.7V64.6C110 64.4 109.933 64.2 109.8 64C109.667 63.8 109.433 63.7 109.1 63.7C109.033 63.7 108.933 63.7334 108.8 63.8C108.667 63.8667 108.567 63.9333 108.5 64C108.367 64.0667 108.3 64.1667 108.3 64.3C108.233 64.3667 108.2 64.4666 108.2 64.6V66.7C108.2 66.8333 108.133 66.9 108 66.9H107.7C107.566 66.9 107.5 66.8333 107.5 66.7V63.3C107.5 63.2334 107.566 63.2 107.7 63.2H108C108.067 63.2 108.133 63.2334 108.2 63.3Z" fill="#FFF5B6"/>
<path fill-rule="evenodd" clip-rule="evenodd" d="M116.9 66.7V66.4C116.767 66.5334 116.633 66.6667 116.5 66.8C116.3 66.9334 116.033 67 115.7 67C115.433 67 115.2 66.9334 115 66.8C114.8 66.7334 114.6 66.6 114.4 66.4C114.267 66.2667 114.133 66.0667 114 65.8C113.933 65.5334 113.9 65.2667 113.9 65C113.9 64.7333 113.933 64.5 114 64.3C114.133 64.0334 114.267 63.8 114.4 63.6C114.6 63.4666 114.8 63.3333 115 63.2C115.2 63.1333 115.433 63.1 115.7 63.1C115.9 63.1 116.066 63.1 116.2 63.1C116.266 63.1666 116.367 63.2334 116.5 63.3C116.567 63.3667 116.633 63.4333 116.7 63.5C116.766 63.5667 116.833 63.6333 116.9 63.7V63.3C116.9 63.2334 116.933 63.2 117 63.2C117 63.1333 117.033 63.1 117.1 63.1H117.3C117.367 63.1 117.433 63.1333 117.5 63.2C117.5 63.2 117.5 63.2334 117.5 63.3V66.7C117.5 66.7666 117.5 66.8334 117.5 66.9C117.433 66.9 117.367 66.9 117.3 66.9H117.1C116.967 66.9 116.9 66.8333 116.9 66.7ZM114.6 65C114.6 65.2 114.6 65.3667 114.6 65.5C114.667 65.7 114.767 65.8667 114.9 66C114.967 66.0667 115.1 66.1333 115.3 66.2C115.433 66.2666 115.566 66.3 115.7 66.3C115.9 66.3 116.066 66.2666 116.2 66.2C116.4 66.2 116.533 66.1333 116.6 66C116.733 65.8667 116.8 65.7333 116.8 65.6C116.867 65.4 116.9 65.2333 116.9 65.1C116.9 64.9 116.867 64.7 116.8 64.5C116.8 64.3667 116.733 64.2333 116.6 64.1C116.533 63.9666 116.4 63.8667 116.2 63.8C116.066 63.7334 115.9 63.7 115.7 63.7C115.566 63.7 115.4 63.7334 115.2 63.8C115.066 63.8667 114.967 63.9666 114.9 64.1C114.767 64.2333 114.667 64.3667 114.6 64.5C114.6 64.7 114.6 64.8667 114.6 65Z" fill="#FFF5B6"/>
<path d="M118.8 66.7V61.4C118.8 61.3334 118.8 61.3 118.8 61.3C118.867 61.2334 118.933 61.2 119 61.2H119.3C119.3 61.2 119.333 61.2334 119.4 61.3C119.467 61.3 119.5 61.3334 119.5 61.4V64.6L120.8 63.2C120.8 63.2 120.833 63.2 120.9 63.2C120.9 63.1333 120.933 63.1 121 63.1H121.5C121.567 63.1 121.6 63.1333 121.6 63.2C121.6 63.2666 121.6 63.3 121.6 63.3C121.6 63.3 121.6 63.3334 121.6 63.4L120.4 64.6L122.2 66.7C122.2 66.7666 122.2 66.8 122.2 66.8C122.2 66.8667 122.167 66.9 122.1 66.9H121.6C121.533 66.9 121.5 66.9 121.5 66.9C121.433 66.8334 121.4 66.8 121.4 66.8L119.9 65L119.5 65.5V66.7C119.5 66.8333 119.433 66.9 119.3 66.9H119C118.867 66.9 118.8 66.8333 118.8 66.7Z" fill="#FFF5B6"/>
<path fill-rule="evenodd" clip-rule="evenodd" d="M124.4 67C124.133 67 123.9 66.9334 123.7 66.8C123.5 66.7334 123.3 66.6 123.1 66.4C122.967 66.2667 122.833 66.0667 122.7 65.8C122.633 65.5334 122.6 65.2667 122.6 65C122.6 64.7333 122.633 64.5 122.7 64.3C122.833 64.0334 122.967 63.8 123.1 63.6C123.3 63.4666 123.5 63.3333 123.7 63.2C123.9 63.1333 124.133 63.1 124.4 63.1C124.6 63.1 124.833 63.1333 125.1 63.2C125.3 63.2666 125.467 63.4 125.6 63.6C125.733 63.7333 125.867 63.9333 126 64.2C126.067 64.4 126.1 64.6334 126.1 64.9V65C126.1 65.1333 126.067 65.2334 126 65.3C125.867 65.3 125.733 65.3 125.6 65.3H123.3C123.3 65.6334 123.4 65.9 123.6 66.1C123.867 66.2333 124.133 66.3 124.4 66.3C124.533 66.3 124.7 66.3 124.9 66.3C125.033 66.2334 125.167 66.1333 125.3 66C125.3 66 125.333 66 125.4 66C125.467 66 125.5 66 125.5 66L125.7 66.3C125.7 66.3667 125.7 66.4 125.7 66.4C125.7 66.4667 125.7 66.5 125.7 66.5C125.7 66.5 125.667 66.5333 125.6 66.6C125.467 66.6666 125.3 66.7667 125.1 66.9C124.9 66.9667 124.667 67 124.4 67ZM123.3 64.8H125.5C125.433 64.6 125.367 64.4334 125.3 64.3C125.233 64.2334 125.167 64.1333 125.1 64C124.967 63.9333 124.867 63.8667 124.8 63.8C124.667 63.7334 124.533 63.7 124.4 63.7C124.267 63.7 124.133 63.7334 124 63.8C123.867 63.8667 123.766 63.9333 123.7 64C123.566 64.1333 123.467 64.2334 123.4 64.3C123.333 64.4334 123.3 64.6 123.3 64.8Z" fill="#FFF5B6"/>
<path d="M129.2 62.1C129.2 61.9666 129.233 61.8333 129.3 61.7C129.433 61.6333 129.566 61.6 129.7 61.6C129.833 61.6 129.933 61.6333 130 61.7C130.133 61.8333 130.2 61.9666 130.2 62.1C130.2 62.2333 130.133 62.3334 130 62.4C129.933 62.5334 129.833 62.6 129.7 62.6C129.566 62.6 129.433 62.5334 129.3 62.4C129.233 62.3334 129.2 62.2333 129.2 62.1ZM130 63.3V66.7C130 66.8333 129.933 66.9 129.8 66.9H129.5C129.433 66.9 129.4 66.8333 129.4 66.7V63.3C129.4 63.1667 129.433 63.1 129.5 63.1H129.8C129.933 63.1 130 63.1667 130 63.3Z" fill="#FFF5B6"/>
<path d="M132.6 67C132.533 67 132.5 67 132.5 67C132.367 67 132.233 67 132.1 67C131.967 66.9333 131.867 66.8667 131.8 66.8C131.733 66.7334 131.667 66.6333 131.6 66.5C131.533 66.4333 131.5 66.3 131.5 66.1V63.8H131C130.933 63.8 130.9 63.7666 130.9 63.7C130.833 63.7 130.8 63.6666 130.8 63.6V63.3C130.8 63.2334 130.833 63.2 130.9 63.2C130.9 63.1333 130.933 63.1 131 63.1H131.5V62.1C131.5 61.9666 131.533 61.9 131.6 61.9L132 61.8C132.067 61.8 132.1 61.8334 132.1 61.9C132.167 61.9667 132.2 62 132.2 62V63.1H132.7C132.833 63.1 132.9 63.1667 132.9 63.3V63.6C132.9 63.7333 132.833 63.8 132.7 63.8H132.2V65.8C132.2 65.9334 132.2 66.0333 132.2 66.1C132.2 66.1666 132.233 66.2334 132.3 66.3C132.3 66.3 132.333 66.3 132.4 66.3C132.467 66.3 132.533 66.3 132.6 66.3C132.733 66.3 132.8 66.3667 132.8 66.5V66.8C132.8 66.9334 132.733 67 132.6 67Z" fill="#FFF5B6"/>
<path d="M136.8 61.4V63.7C136.867 63.6333 136.967 63.5334 137.1 63.4C137.167 63.3334 137.267 63.3 137.4 63.3C137.533 63.2334 137.667 63.1666 137.8 63.1C137.933 63.1 138.033 63.1 138.1 63.1C138.367 63.1 138.566 63.1333 138.7 63.2C138.9 63.2666 139.066 63.3667 139.2 63.5C139.333 63.7 139.433 63.8667 139.5 64C139.567 64.2 139.6 64.4333 139.6 64.7V66.7C139.6 66.7666 139.567 66.8334 139.5 66.9C139.5 66.9 139.467 66.9 139.4 66.9H139.1C139.033 66.9 138.967 66.9 138.9 66.9C138.9 66.8334 138.9 66.7666 138.9 66.7V64.7C138.9 64.5666 138.9 64.4334 138.9 64.3C138.833 64.1667 138.766 64.0667 138.7 64C138.633 63.9333 138.533 63.8667 138.4 63.8C138.333 63.7334 138.2 63.7 138 63.7C137.867 63.7 137.733 63.7334 137.6 63.8C137.467 63.8667 137.367 63.9333 137.3 64C137.167 64.0667 137.067 64.1667 137 64.3C136.933 64.3667 136.867 64.4666 136.8 64.6V66.7C136.8 66.8333 136.766 66.9 136.7 66.9H136.4C136.267 66.9 136.2 66.8333 136.2 66.7V61.4C136.2 61.2667 136.267 61.2 136.4 61.2H136.7C136.7 61.2 136.733 61.2334 136.8 61.3C136.8 61.3 136.8 61.3334 136.8 61.4Z" fill="#FFF5B6"/>
<path fill-rule="evenodd" clip-rule="evenodd" d="M143.4 66.7V66.4C143.267 66.5334 143.133 66.6667 143 66.8C142.8 66.9334 142.533 67 142.2 67C141.933 67 141.7 66.9334 141.5 66.8C141.3 66.7334 141.1 66.6 140.9 66.4C140.767 66.2667 140.633 66.0667 140.5 65.8C140.433 65.5334 140.4 65.2667 140.4 65C140.4 64.7333 140.433 64.5 140.5 64.3C140.633 64.0334 140.767 63.8 140.9 63.6C141.1 63.4666 141.3 63.3333 141.5 63.2C141.7 63.1333 141.933 63.1 142.2 63.1C142.4 63.1 142.566 63.1 142.7 63.1C142.766 63.1666 142.867 63.2334 143 63.3C143.067 63.3667 143.133 63.4333 143.2 63.5C143.266 63.5667 143.333 63.6333 143.4 63.7V63.3C143.4 63.2334 143.433 63.2 143.5 63.2C143.5 63.1333 143.533 63.1 143.6 63.1H143.8C143.867 63.1 143.933 63.1333 144 63.2C144 63.2 144 63.2334 144 63.3V66.7C144 66.7666 144 66.8334 144 66.9C143.933 66.9 143.867 66.9 143.8 66.9H143.6C143.467 66.9 143.4 66.8333 143.4 66.7ZM141 65C141 65.2 141.033 65.3667 141.1 65.5C141.167 65.7 141.267 65.8667 141.4 66C141.467 66.0667 141.6 66.1333 141.8 66.2C141.933 66.2666 142.066 66.3 142.2 66.3C142.4 66.3 142.566 66.2666 142.7 66.2C142.9 66.2 143.033 66.1333 143.1 66C143.233 65.8667 143.3 65.7333 143.3 65.6C143.367 65.4 143.4 65.2333 143.4 65.1C143.4 64.9 143.367 64.7 143.3 64.5C143.3 64.3667 143.233 64.2333 143.1 64.1C143.033 63.9666 142.9 63.8667 142.7 63.8C142.566 63.7334 142.4 63.7 142.2 63.7C142.066 63.7 141.9 63.7334 141.7 63.8C141.566 63.8667 141.467 63.9666 141.4 64.1C141.267 64.2333 141.167 64.3667 141.1 64.5C141.033 64.7 141 64.8667 141 65Z" fill="#FFF5B6"/>
<path fill-rule="evenodd" clip-rule="evenodd" d="M145.3 68.2V63.3C145.3 63.1667 145.367 63.1 145.5 63.1H145.7C145.833 63.1 145.9 63.1667 145.9 63.3L146 63.7C146.067 63.5 146.2 63.3333 146.4 63.2C146.6 63.1333 146.833 63.1 147.1 63.1C147.367 63.1 147.6 63.1333 147.8 63.2C148 63.3333 148.167 63.4666 148.3 63.6C148.5 63.8 148.633 64.0334 148.7 64.3C148.833 64.5 148.9 64.7333 148.9 65C148.9 65.2667 148.833 65.5334 148.7 65.8C148.633 66 148.5 66.2 148.3 66.4C148.167 66.6 148 66.7334 147.8 66.8C147.6 66.9334 147.367 67 147.1 67C146.833 67 146.6 66.9334 146.4 66.8C146.2 66.7334 146.067 66.6 146 66.4V68.2C146 68.3333 145.9 68.4 145.7 68.4H145.5C145.433 68.4 145.367 68.3667 145.3 68.3C145.3 68.3 145.3 68.2666 145.3 68.2ZM146 65C146 65.2 146 65.3667 146 65.5C146.067 65.7 146.167 65.8667 146.3 66C146.367 66.0667 146.467 66.1333 146.6 66.2C146.733 66.2666 146.9 66.3 147.1 66.3C147.233 66.3 147.367 66.2666 147.5 66.2C147.633 66.1333 147.733 66.0667 147.8 66C147.933 65.8667 148.033 65.7 148.1 65.5C148.167 65.3667 148.2 65.2 148.2 65C148.2 64.8667 148.167 64.7 148.1 64.5C148.033 64.3667 147.933 64.2333 147.8 64.1C147.733 63.9666 147.633 63.8667 147.5 63.8C147.367 63.7334 147.233 63.7 147.1 63.7C146.9 63.7 146.733 63.7334 146.6 63.8C146.467 63.8667 146.367 63.9666 146.3 64.1C146.167 64.2333 146.067 64.3667 146 64.5C146 64.7 146 64.8667 146 65Z" fill="#FFF5B6"/>
<path fill-rule="evenodd" clip-rule="evenodd" d="M149.8 68.2V63.3C149.8 63.1667 149.867 63.1 150 63.1H150.2C150.333 63.1 150.433 63.1667 150.5 63.3V63.7C150.633 63.5 150.8 63.3333 151 63.2C151.2 63.1333 151.4 63.1 151.6 63.1C151.867 63.1 152.1 63.1333 152.3 63.2C152.5 63.3333 152.7 63.4666 152.9 63.6C153.033 63.8 153.167 64.0334 153.3 64.3C153.367 64.5 153.4 64.7333 153.4 65C153.4 65.2667 153.367 65.5334 153.3 65.8C153.167 66 153.033 66.2 152.9 66.4C152.7 66.6 152.5 66.7334 152.3 66.8C152.1 66.9334 151.867 67 151.6 67C151.333 67 151.133 66.9334 151 66.8C150.8 66.7334 150.633 66.6 150.5 66.4V68.2C150.5 68.3333 150.433 68.4 150.3 68.4H150.1C150.033 68.4 149.967 68.3667 149.9 68.3C149.833 68.3 149.8 68.2666 149.8 68.2ZM150.5 65C150.5 65.2 150.533 65.3667 150.6 65.5C150.667 65.7 150.733 65.8667 150.8 66C150.933 66.0667 151.066 66.1333 151.2 66.2C151.333 66.2666 151.467 66.3 151.6 66.3C151.733 66.3 151.867 66.2666 152 66.2C152.133 66.1333 152.267 66.0667 152.4 66C152.467 65.8667 152.533 65.7 152.6 65.5C152.667 65.3667 152.7 65.2 152.7 65C152.7 64.8667 152.667 64.7 152.6 64.5C152.533 64.3667 152.467 64.2333 152.4 64.1C152.267 63.9666 152.133 63.8667 152 63.8C151.867 63.7334 151.733 63.7 151.6 63.7C151.467 63.7 151.333 63.7334 151.2 63.8C151.066 63.8667 150.933 63.9666 150.8 64.1C150.733 64.2333 150.667 64.3667 150.6 64.5C150.533 64.7 150.5 64.8667 150.5 65Z" fill="#FFF5B6"/>
<path fill-rule="evenodd" clip-rule="evenodd" d="M155.9 67C155.633 67 155.4 66.9334 155.2 66.8C155 66.7334 154.8 66.6 154.6 66.4C154.467 66.2667 154.333 66.0667 154.2 65.8C154.133 65.5334 154.1 65.2667 154.1 65C154.1 64.7333 154.133 64.5 154.2 64.3C154.333 64.0334 154.467 63.8 154.6 63.6C154.8 63.4666 155 63.3333 155.2 63.2C155.4 63.1333 155.633 63.1 155.9 63.1C156.1 63.1 156.333 63.1333 156.6 63.2C156.8 63.2666 156.967 63.4 157.1 63.6C157.233 63.7333 157.367 63.9333 157.5 64.2C157.567 64.4 157.6 64.6334 157.6 64.9V65C157.6 65.1333 157.567 65.2334 157.5 65.3C157.367 65.3 157.233 65.3 157.1 65.3H154.8C154.8 65.6334 154.9 65.9 155.1 66.1C155.367 66.2333 155.633 66.3 155.9 66.3C156.033 66.3 156.2 66.3 156.4 66.3C156.533 66.2334 156.667 66.1333 156.8 66C156.8 66 156.833 66 156.9 66C156.967 66 157 66 157 66L157.2 66.3C157.2 66.3667 157.2 66.4 157.2 66.4C157.2 66.4667 157.2 66.5 157.2 66.5C157.2 66.5 157.167 66.5333 157.1 66.6C156.967 66.6666 156.8 66.7667 156.6 66.9C156.4 66.9667 156.167 67 155.9 67ZM154.8 64.8H157C156.933 64.6 156.867 64.4334 156.8 64.3C156.733 64.2334 156.667 64.1333 156.6 64C156.467 63.9333 156.367 63.8667 156.3 63.8C156.167 63.7334 156.033 63.7 155.9 63.7C155.767 63.7 155.633 63.7334 155.5 63.8C155.367 63.8667 155.266 63.9333 155.2 64C155.066 64.1333 154.967 64.2334 154.9 64.3C154.833 64.4334 154.8 64.6 154.8 64.8Z" fill="#FFF5B6"/>
<path d="M159.1 63.3V63.7C159.167 63.6333 159.267 63.5334 159.4 63.4C159.467 63.3334 159.566 63.3 159.7 63.3C159.833 63.2334 159.933 63.1666 160 63.1C160.133 63.1 160.267 63.1 160.4 63.1C160.6 63.1 160.8 63.1333 161 63.2C161.2 63.2666 161.367 63.3667 161.5 63.5C161.633 63.7 161.733 63.8667 161.8 64C161.867 64.2 161.9 64.4333 161.9 64.7V66.7C161.9 66.7666 161.867 66.8334 161.8 66.9C161.733 66.9 161.7 66.9 161.7 66.9H161.3C161.233 66.9 161.2 66.9 161.2 66.9C161.2 66.8334 161.2 66.7666 161.2 66.7V64.7C161.2 64.5666 161.167 64.4334 161.1 64.3C161.033 64.1667 160.967 64.0667 160.9 64C160.833 63.9333 160.733 63.8667 160.6 63.8C160.533 63.7334 160.4 63.7 160.2 63.7C160.066 63.7 159.933 63.7334 159.8 63.8C159.667 63.8667 159.567 63.9333 159.5 64C159.367 64.0667 159.266 64.1333 159.2 64.2C159.133 64.3333 159.1 64.4333 159.1 64.5V66.7C159.1 66.8333 159.033 66.9 158.9 66.9H158.6C158.533 66.9 158.5 66.8333 158.5 66.7V63.3C158.5 63.2334 158.5 63.2 158.5 63.2C158.567 63.1333 158.6 63.1 158.6 63.1H158.9C159.033 63.1 159.1 63.1667 159.1 63.3Z" fill="#FFF5B6"/>
</svg>
