<svg width="102" height="99" viewBox="0 0 102 99" fill="none" xmlns="http://www.w3.org/2000/svg">
<path fill-rule="evenodd" clip-rule="evenodd" d="M85.8003 50.5646C85.5331 50.9383 85.533 51.8107 85.6666 52.1844L97.8253 77.4732C99.0278 80.0894 98.226 81.7087 97.6916 82.3316C97.0235 83.0791 95.5538 84.0756 92.6144 83.4527L63.8881 77.2238C63.4872 77.2238 62.6856 77.3488 62.2847 77.5979L52.1303 86.3183C52.1303 86.6505 51.9967 86.9408 51.7295 87.19L41.1742 96.2844C40.7289 96.6997 40.2835 97.0317 39.8381 97.2808C39.2146 97.613 38.6356 97.779 38.1012 97.779C37.0323 98.1527 36.097 98.0281 35.5626 97.779C34.6273 97.5298 33.1576 96.5333 32.8904 93.5435L30.3518 65.8879C30.3518 65.5141 29.8173 64.7667 29.4165 64.6421L3.89681 50.9387C1.62543 49.8175 1.09101 48.3222 0.957397 47.4501C0.957397 47.201 0.957397 46.9934 0.957397 46.8273C0.957397 45.8306 1.49184 44.2112 4.29767 43.09L31.4207 32.3762C31.8215 32.1271 32.3559 31.5042 32.4895 31.1305L38.1012 3.97301C38.6356 1.10775 40.3726 0.360168 41.3078 0.111014C42.1095 -0.138139 43.9801 -0.138139 46.1178 1.97966L65.625 22.9089C65.8922 23.2826 66.6939 23.5318 67.2283 23.5318L81.5247 22.0366C81.7029 21.8705 81.9256 21.7872 82.1928 21.7872L96.4892 20.2927C97.2017 20.2096 97.7807 20.168 98.2261 20.168C100.097 20.4171 101.032 21.289 101.433 21.9119C101.7 22.2857 101.967 22.9084 101.967 23.6559C102.101 24.5279 101.834 25.6494 101.032 27.0197L94.485 37.3593C94.3068 37.6085 94.1287 37.7751 93.9505 37.8581L85.8003 50.5646ZM83.3953 49.1941L98.4933 25.4004C98.8941 24.7776 99.1614 24.279 99.1614 23.9053C99.1614 23.7392 99.1168 23.6148 99.0277 23.5318C98.7605 23.2826 98.0925 22.9085 96.7564 23.1577L67.4956 26.1474C66.1595 26.272 64.4225 25.6495 63.4873 24.6529L43.9801 3.72362C43.0448 2.85158 42.3767 2.60267 41.9759 2.72725C41.5751 2.72725 41.0406 3.35001 40.7734 4.4712L35.1617 31.6293C34.8945 32.875 33.692 34.2454 32.4895 34.7437L17.5251 40.7231C17.4361 40.7231 17.347 40.7648 17.2579 40.8478L5.36654 45.5815C4.16404 46.0798 3.76319 46.7029 3.76319 47.0767C3.76319 47.4504 4.29764 47.9483 5.23292 48.5712L31.0198 62.2746C32.3559 62.8975 33.2912 64.3927 33.4248 65.6385L36.2307 93.17C36.3643 94.4158 36.7651 95.0388 37.1659 95.1634C37.255 95.1634 37.3441 95.1634 37.4331 95.1634C37.7894 95.0803 38.1903 94.831 38.6356 94.4158L60.4142 75.7293C61.3495 74.8573 63.22 74.3591 64.5561 74.6082L93.1489 80.8371C94.485 81.2108 95.1531 80.9615 95.4203 80.7124C95.6875 80.3386 95.6875 79.7155 95.153 78.5943L82.9944 53.3055C82.46 52.0597 82.5936 50.3153 83.3953 49.1941Z" fill="#FFF5B6"/>
</svg>
