<svg width="17" height="18" viewBox="0 0 17 18" fill="none" xmlns="http://www.w3.org/2000/svg">
<path fill-rule="evenodd" clip-rule="evenodd" d="M14.2141 9.16085C14.1782 9.23413 14.1782 9.38071 14.2141 9.45399L16.227 14.0341C16.4426 14.5104 16.2989 14.8035 16.191 14.9134C16.0832 15.06 15.8316 15.2433 15.3643 15.1333L10.6197 13.9974C10.5478 13.9608 10.404 13.9975 10.3321 14.0707L8.67869 15.6463C8.65473 15.6951 8.63076 15.744 8.6068 15.7928L6.84553 17.4417C6.77365 17.515 6.68978 17.576 6.59393 17.6249C6.49807 17.6737 6.4142 17.7104 6.34231 17.7348C6.12665 17.7715 5.98287 17.7348 5.91099 17.6982C5.76721 17.6615 5.5156 17.4783 5.44371 16.9654L5.04832 11.9455C5.04832 11.8723 4.97644 11.7257 4.90455 11.6891L0.663132 9.23411C0.30369 9.01427 0.195856 8.75781 0.195856 8.5746C0.171893 8.55018 0.159912 8.51352 0.159912 8.46466C0.195856 8.3181 0.267744 8.025 0.735019 7.80515L5.22804 5.86317C5.29993 5.82653 5.37182 5.71662 5.40777 5.64333L6.34231 0.733448C6.4142 0.220476 6.70176 0.0739033 6.84553 0.0372624C6.98931 -0.0360193 7.31281 -0.0360104 7.63631 0.367039L10.9072 4.1777C10.9432 4.21434 11.087 4.2876 11.1588 4.25096L13.5312 3.99449C13.5551 3.97007 13.5911 3.95786 13.639 3.95786L16.0113 3.66472C16.1072 3.66472 16.203 3.66472 16.2989 3.66472C16.5864 3.70136 16.7661 3.84794 16.8021 3.95786C16.874 4.03114 16.9099 4.14103 16.9099 4.28759C16.9099 4.43416 16.9099 4.65403 16.7661 4.91052L15.6519 6.77919C15.6279 6.82805 15.6039 6.85246 15.58 6.85246L14.2141 9.16085ZM13.8187 8.94101L16.3348 4.61737C16.3827 4.49523 16.4067 4.39755 16.4067 4.32427C16.4067 4.29984 16.4067 4.28759 16.4067 4.28759C16.3707 4.21431 16.2629 4.1777 16.0473 4.1777L11.1948 4.76394C10.9432 4.76394 10.6556 4.654 10.5118 4.4708L7.27687 0.696816C7.13309 0.513612 7.02526 0.47698 6.95337 0.47698C6.88148 0.513621 6.80959 0.623543 6.77365 0.843388L5.8391 5.75323C5.76721 5.97307 5.58749 6.22956 5.37182 6.30284L2.92762 7.36544C2.90365 7.38986 2.87969 7.40207 2.85573 7.40207L0.91474 8.28146C0.699075 8.35474 0.627187 8.46469 0.627187 8.53797C0.627187 8.61125 0.699075 8.68452 0.878796 8.79444L5.15616 11.286C5.33588 11.396 5.5156 11.6524 5.55154 11.9089L6.01882 16.8921C6.01882 17.1119 6.09071 17.2218 6.16259 17.2585C6.16259 17.2585 6.17458 17.2585 6.19854 17.2585C6.24647 17.234 6.31835 17.1852 6.41421 17.1119L10.0086 13.7043C10.1883 13.5578 10.4759 13.4845 10.6916 13.5211L15.4362 14.657C15.6519 14.6936 15.7597 14.657 15.7956 14.6203C15.8675 14.5837 15.8675 14.4372 15.7597 14.2173L13.7468 9.6372C13.6749 9.41735 13.6749 9.12422 13.8187 8.94101Z" fill="#FFF5B6"/>
</svg>
