<svg width="48" height="50" viewBox="0 0 48 50" fill="none" xmlns="http://www.w3.org/2000/svg">
<path fill-rule="evenodd" clip-rule="evenodd" d="M39.6 26C39.5 26.2 39.5 26.6001 39.6 26.8001L45.2 39.3001C45.8 40.6001 45.4 41.4 45.1 41.7C44.8 42.1 44.1 42.6001 42.8 42.3001L29.6 39.2C29.4 39.1 29 39.2 28.8 39.4L24.2 43.7C24.1333 43.8333 24.0667 43.9667 24 44.1L19.1 48.6C18.9 48.8 18.6667 48.9667 18.4 49.1C18.1333 49.2333 17.9 49.3334 17.7 49.4C17.1 49.5 16.7 49.4001 16.5 49.3001C16.1 49.2001 15.4 48.7001 15.2 47.3001L14.1 33.6C14.1 33.4 13.9 33 13.7 32.9L1.9 26.2C0.900002 25.6 0.599998 24.9 0.599998 24.4C0.533332 24.3334 0.5 24.2333 0.5 24.1C0.6 23.7 0.799999 22.9001 2.1 22.3001L14.6 17C14.8 16.9 15 16.6 15.1 16.4L17.7 3.00001C17.9 1.60001 18.7 1.19999 19.1 1.09999C19.5 0.899987 20.4 0.900012 21.3 2.00001L30.4 12.4C30.5 12.5 30.9 12.7 31.1 12.6L37.7 11.9C37.7667 11.8334 37.8667 11.8001 38 11.8001L44.6 11C44.8667 11 45.1333 11 45.4 11C46.2 11.1 46.7 11.5001 46.8 11.8001C47 12.0001 47.1 12.3 47.1 12.7C47.1 13.1 47.1 13.7 46.7 14.4L43.6 19.5C43.5333 19.6333 43.4667 19.7 43.4 19.7L39.6 26ZM38.5 25.4L45.5 13.6C45.6333 13.2667 45.7 13.0001 45.7 12.8001C45.7 12.7334 45.7 12.7 45.7 12.7C45.6 12.5 45.3 12.4 44.7 12.4L31.2 14C30.5 14 29.7 13.7 29.3 13.2L20.3 2.90004C19.9 2.40004 19.6 2.30006 19.4 2.30006C19.2 2.40006 19 2.70006 18.9 3.30006L16.3 16.7C16.1 17.3 15.6 18 15 18.2L8.2 21.1C8.13333 21.1667 8.06667 21.2 8 21.2L2.6 23.6C2 23.8 1.8 24.1001 1.8 24.3001C1.8 24.5001 2 24.7 2.5 25L14.4 31.8001C14.9 32.1001 15.4 32.8 15.5 33.5L16.8 47.1C16.8 47.7 17 48 17.2 48.1C17.2 48.1 17.2333 48.1 17.3 48.1C17.4333 48.0333 17.6333 47.9 17.9 47.7L27.9 38.4C28.4 38 29.2 37.8 29.8 37.9L43 41C43.6 41.1 43.9 41 44 40.9C44.2 40.8 44.2 40.4001 43.9 39.8001L38.3 27.3001C38.1 26.7001 38.1 25.9 38.5 25.4Z" fill="#FFF5B6"/>
</svg>
