<svg width="48" height="49" viewBox="0 0 48 49" fill="none" xmlns="http://www.w3.org/2000/svg">
<path fill-rule="evenodd" clip-rule="evenodd" d="M39.8998 25.1999C39.7998 25.3999 39.7998 25.7999 39.8998 26L45.4998 38.5C46.0998 39.7999 45.6998 40.5999 45.3998 40.8999C45.0998 41.1999 44.3998 41.7999 43.0998 41.3999L29.7998 38.3999C29.5998 38.2999 29.2998 38.4 29.0998 38.6L24.3998 42.8999C24.3998 43.0332 24.3332 43.1667 24.1998 43.3L19.3998 47.8C19.1332 48 18.8998 48.1667 18.6998 48.3C18.4332 48.4333 18.1998 48.5 17.9998 48.5C17.3998 48.7 16.9998 48.5999 16.7998 48.5C16.3998 48.4 15.6998 47.8999 15.4998 46.3999L14.3998 32.8C14.3998 32.6 14.1998 32.2 13.9998 32.1L2.19983 25.3999C1.19983 24.7999 0.899805 24.1 0.799805 23.6C0.799805 23.4667 0.799805 23.3667 0.799805 23.3C0.799805 22.9 1.09984 22 2.39984 21.5L14.8998 16.1999C14.9998 16.0999 15.2998 15.8 15.2998 15.6L17.8998 2.1999C18.1998 0.799901 18.9998 0.399901 19.3998 0.199901C19.7998 0.0999013 20.6998 0.0999013 21.5998 1.1999L30.5998 11.5C30.7998 11.7 31.0998 11.8 31.3998 11.8L37.9998 11.1C38.0665 11.0334 38.1665 11 38.2998 11L44.8998 10.1999C45.1665 10.1332 45.4332 10.1332 45.6998 10.1999C46.4998 10.2999 46.8998 10.7 47.0998 11C47.2998 11.2 47.3998 11.4999 47.3998 11.8999C47.3998 12.2999 47.2998 12.9 46.8998 13.5L43.8998 18.6999C43.8332 18.7666 43.7665 18.8332 43.6998 18.8999L39.8998 25.1999ZM38.7998 24.5L45.7998 12.8C45.9331 12.4667 45.9998 12.2 45.9998 12C45.9998 11.9333 45.9998 11.8999 45.9998 11.8999C45.8998 11.6999 45.5998 11.6 44.9998 11.6L31.4998 13.1C30.7998 13.2 29.9998 12.8999 29.5998 12.3999L20.5998 2.10005C20.1998 1.60005 19.8998 1.49995 19.6998 1.49995C19.4998 1.59995 19.2998 1.79985 19.1998 2.39985L16.5998 15.8C16.3998 16.5 15.8998 17.0999 15.2998 17.3999L8.49982 20.3C8.43315 20.3667 8.36647 20.3999 8.2998 20.3999L2.89984 22.6999C2.29984 22.9999 2.09979 23.2999 2.09979 23.3999C2.09979 23.4665 2.09979 23.5 2.09979 23.5C2.09979 23.7 2.2998 23.8999 2.7998 24.1999L14.6998 31C15.1998 31.2999 15.6998 32 15.6998 32.6L16.9998 46.3C17.0998 46.9 17.2998 47.1999 17.4998 47.1999C17.4998 47.2666 17.5331 47.3 17.5998 47.3C17.7331 47.2333 17.8998 47.0999 18.0998 46.8999L28.1998 37.6C28.5998 37.2 29.4998 37 30.0998 37.1L43.2998 40.1999C43.8998 40.2999 44.1998 40.2 44.2998 40.1C44.3998 39.9 44.4998 39.5999 44.1998 39L38.5998 26.5C38.3998 25.9 38.3998 25.1 38.7998 24.5Z" fill="#FFF5B6"/>
</svg>
