<svg width="79" height="68" viewBox="0 0 79 68" fill="none" xmlns="http://www.w3.org/2000/svg">
<path fill-rule="evenodd" clip-rule="evenodd" d="M33.5 24.2C33.3 24.3 33.3 24.5996 33.3 24.7996L36.7 36.0999C37 37.2999 36.6 37.9 36.3 38.2C36 38.5 35.4 38.7997 34.2 38.3997L23.3 34.2C23.2 34.2 22.8 34.1996 22.7 34.2996L18.2 37.4998C18.1333 37.6331 18.0666 37.7329 18 37.7996L13.3 41.0999C13.1 41.2332 12.9 41.333 12.7 41.3997C12.4333 41.533 12.2 41.5999 12 41.5999C11.5 41.5999 11.2 41.4997 11 41.3997C10.6 41.1997 10.1 40.6998 10.2 39.4998L10.8 27.7C10.8 27.5 10.6 27.1999 10.5 27.0999L1.19995 19.8997C0.399951 19.2997 0.199951 18.6996 0.199951 18.2996C0.199951 18.1663 0.233291 18.0664 0.299957 17.9998C0.299957 17.5998 0.599957 16.9999 1.79996 16.5999L13.1 13.4998C13.3 13.4998 13.5 13.1999 13.6 13.0999L17.3 1.89968C17.7 0.799683 18.4 0.499781 18.8 0.499781C19.2 0.399781 19.9 0.499781 20.6 1.49978L27.1 11.3997C27.2 11.5997 27.5 11.7 27.7 11.7L33.3999 11.8997C33.5333 11.833 33.6333 11.7996 33.7 11.7996L39.3999 11.8997C39.6666 11.8997 39.9 11.9331 40.1 11.9998C40.8 12.1998 41.1 12.5997 41.3 12.8997C41.3 12.9997 41.3999 13.3 41.3999 13.7C41.3999 14 41.2 14.4998 40.8 14.9998L37.6 18.9998C37.5333 19.1331 37.4666 19.2 37.3999 19.2L33.5 24.2ZM32.6 23.4998L39.8999 14.2996C40.0999 14.0329 40.2333 13.7999 40.3 13.5999C40.3 13.5999 40.3 13.5664 40.3 13.4998C40.2 13.3998 39.8999 13.2 39.3999 13.2L27.7 12.8997C27.1 12.8997 26.5 12.5999 26.2 12.0999L19.7 2.19998C19.4 1.79998 19.1 1.59988 19 1.59988C18.8 1.69988 18.5999 1.89968 18.3999 2.39968L14.6 13.4998C14.5 13.9998 13.8999 14.5 13.3999 14.7L7.19995 16.3997C7.19995 16.3997 7.16663 16.3997 7.09996 16.3997L2.09996 17.7996C1.59996 17.9996 1.39995 18.1996 1.39995 18.2996C1.39995 18.2996 1.39995 18.333 1.39995 18.3997C1.39995 18.4997 1.49995 18.7999 1.89995 19.0999L11.3 26.2C11.7 26.6 12 27.1996 12 27.7996L11.5 39.5999C11.5 40.0999 11.7 40.3997 11.8 40.3997C11.8 40.4663 11.8333 40.4998 11.8999 40.4998C12.0333 40.4331 12.1999 40.3333 12.3999 40.2L22.1 33.4998C22.5 33.0998 23.2 33 23.7 33.2L34.7 37.3997C35.2 37.5997 35.5 37.4997 35.6 37.3997C35.7 37.2997 35.8 36.9998 35.6 36.4998L32.3 25.2C32.1 24.7 32.3 23.8998 32.6 23.4998Z" fill="#FFF5B6"/>
<path fill-rule="evenodd" clip-rule="evenodd" d="M68 53.5C67.9 53.6 67.9 53.9 67.9 54L70.7 63.2998C70.9 64.2998 70.6 64.8 70.4 65C70.1 65.3 69.6 65.6002 68.7 65.2002L59.7 61.7998C59.5 61.6998 59.3 61.7998 59.1 61.7998L55.4 64.3999C55.4 64.5332 55.3666 64.6335 55.3 64.7002L51.4 67.3999C51.2 67.5332 51.0333 67.6335 50.9 67.7002C50.7 67.7669 50.5 67.7998 50.3 67.7998C49.9 67.8998 49.7 67.8002 49.5 67.7002C49.2 67.5002 48.8 67.1001 48.8 66.1001L49.3 56.3999C49.3 56.1999 49.2 55.9999 49.1 55.8999L41.4 50C40.8 49.5 40.6 49.0001 40.7 48.6001C40.7 48.5334 40.7 48.4666 40.7 48.3999C40.7 48.0999 41 47.4998 41.9 47.2998L51.2 44.7002C51.4 44.7002 51.6 44.4998 51.6 44.2998L54.7 35.2002C55.1 34.2002 55.6 33.9999 56 33.8999C56.3 33.8999 56.9 33.9998 57.4 34.7998L62.8 43C62.9 43.1 63.1 43.2002 63.3 43.2002L68 43.2998C68.0666 43.2998 68.1333 43.2998 68.2 43.2998L72.9 43.3999C73.1666 43.3999 73.3666 43.4333 73.5 43.5C74.1 43.6 74.3 43.9002 74.4 44.2002C74.5 44.3002 74.6 44.4998 74.5 44.7998C74.5 45.0998 74.4 45.4999 74.1 45.8999L71.5 49.2998C71.4333 49.3665 71.3333 49.3999 71.2 49.3999L68 53.5ZM67.3 52.8999L73.4 45.2998C73.5333 45.0998 73.6333 44.9331 73.7 44.7998C73.7 44.7331 73.6666 44.7002 73.6 44.7002C73.6 44.6002 73.4 44.3999 72.9 44.3999L63.3 44.2002C62.8 44.2002 62.3 43.9 62.1 43.5L56.7 35.3999C56.5 34.9999 56.2 34.8999 56.1 34.8999C56 34.8999 55.8 35.1 55.7 35.5L52.5 44.7002C52.4 45.1002 52 45.5002 51.5 45.7002L46.4 47.1001C46.4 47.1001 46.3666 47.1001 46.3 47.1001L42.2 48.2002C41.8 48.4002 41.6 48.5002 41.6 48.7002C41.6 48.8002 41.7 49.0002 42 49.2002L49.8 55.1001C50.1 55.4001 50.4 55.9999 50.4 56.3999L50 66.2002C50 66.6002 50.1 66.7999 50.2 66.8999C50.2 66.8999 50.2333 66.8999 50.3 66.8999C50.4333 66.8999 50.5666 66.8335 50.7 66.7002L58.6 61.1001C59 60.9001 59.6 60.7999 60 60.8999L69 64.3999C69.4 64.4999 69.7 64.4999 69.8 64.3999C69.9 64.2999 69.9 64.1001 69.8 63.6001L67.1 54.2998C66.9 53.8998 67 53.2999 67.3 52.8999Z" fill="#FFF5B6"/>
<path fill-rule="evenodd" clip-rule="evenodd" d="M73.3999 16.0001C73.3999 16.1001 73.2999 16.3 73.2999 16.4L75.2999 23.0001C75.4999 23.7001 75.2999 24.0999 75.0999 24.2999C74.8999 24.3999 74.5999 24.6 73.8999 24.4L67.4999 21.9C67.3999 21.9 67.1999 21.9001 67.0999 22.0001L64.3999 23.7999C64.3999 23.8666 64.3666 23.9334 64.2999 24.0001L61.5999 25.9C61.4666 26.0333 61.3332 26.1002 61.1999 26.1002C61.0666 26.1668 60.9332 26.2003 60.7999 26.2003C60.4999 26.3003 60.2999 26.2002 60.1999 26.1002C59.9999 26.0002 59.6999 25.7001 59.6999 25.0001L60.0999 18.1002C60.0999 18.0002 59.9999 17.8003 59.8999 17.7003L54.3999 13.5001C53.9999 13.2001 53.8999 12.8002 53.8999 12.6002C53.8999 12.5335 53.8999 12.4666 53.8999 12.4C53.8999 12.2 54.0999 11.8002 54.7999 11.6002L61.3999 9.79989C61.4999 9.69989 61.6999 9.60008 61.6999 9.50008L63.8999 2.89998C64.1999 2.19998 64.5999 2.10018 64.7999 2.10018C64.9999 2.00018 65.4999 2.10028 65.8999 2.70028L69.6999 8.50008C69.7999 8.60008 69.8999 8.70028 69.9999 8.70028L73.3999 8.79989C73.4666 8.73322 73.5332 8.70028 73.5999 8.70028L76.8999 8.79989C77.0999 8.79989 77.2332 8.79989 77.2999 8.79989C77.7999 8.99989 77.8999 9.19998 77.9999 9.39998C78.0999 9.49998 78.0999 9.59989 78.0999 9.79989C78.0999 9.99989 77.9999 10.3002 77.7999 10.6002L75.8999 13.0001C75.8332 13.0667 75.7666 13.1002 75.6999 13.1002L73.3999 16.0001ZM72.8999 15.6002L77.1999 10.1002C77.3332 9.96684 77.3999 9.86655 77.3999 9.79989C77.3999 9.73322 77.3999 9.70028 77.3999 9.70028C77.3999 9.60028 77.1999 9.50008 76.8999 9.50008L69.9999 9.39998C69.6999 9.29998 69.2999 9.09998 69.1999 8.89998L65.2999 3.00008C65.1999 2.80008 64.9999 2.70028 64.8999 2.70028C64.7999 2.70028 64.6999 2.80018 64.5999 3.10018L62.3999 9.70028C62.2999 10.0003 61.8999 10.3 61.5999 10.4L57.9999 11.4C57.9332 11.4 57.8999 11.4 57.8999 11.4L54.9999 12.2003C54.6999 12.3003 54.5999 12.4001 54.5999 12.5001C54.5999 12.5001 54.5999 12.5335 54.5999 12.6002C54.5999 12.6002 54.5999 12.8001 54.8999 13.0001L60.3999 17.2003C60.5999 17.4003 60.7999 17.8002 60.7999 18.1002L60.4999 25.0001C60.4999 25.3001 60.5999 25.5001 60.6999 25.5001C60.6999 25.5667 60.6999 25.6002 60.6999 25.6002C60.8332 25.5335 60.9332 25.4667 60.9999 25.4L66.6999 21.4C66.9999 21.2 67.3999 21.1999 67.6999 21.2999L74.0999 23.7999C74.3999 23.8999 74.5999 23.7999 74.6999 23.7999C74.6999 23.6999 74.7999 23.5003 74.6999 23.2003L72.6999 16.6002C72.5999 16.3002 72.6999 15.8002 72.8999 15.6002Z" fill="#FFF5B6"/>
</svg>
