<svg width="1169" height="859" viewBox="0 0 1169 859" fill="none" xmlns="http://www.w3.org/2000/svg">
<path d="M202.5 571.1H-98.9C-130.4 571.1 -156 545.5 -156 513.9V57.9C-156 26.3 -130.4 0.800049 -98.9 0.800049H202.5C234 0.800049 259.6 26.3 259.6 57.9V513.9C259.6 545.5 234 571.1 202.5 571.1Z" stroke="#FFF5B6" stroke-width="1.5"/>
<path d="M659.7 672.9H358.3C326.8 672.9 301.2 647.4 301.2 615.8V159.7C301.2 128.2 326.8 102.6 358.3 102.6H659.7C691.2 102.6 716.8 128.2 716.8 159.7V615.8C716.8 647.4 691.2 672.9 659.7 672.9Z" stroke="#FFF5B6" stroke-width="1.5"/>
<path d="M1110.3 857.4H808.9C777.4 857.4 751.8 831.8 751.8 800.3V344.2C751.8 312.6 777.4 287.1 808.9 287.1H1110.3C1141.8 287.1 1167.4 312.6 1167.4 344.2V800.3C1167.4 831.8 1141.8 857.4 1110.3 857.4Z" stroke="#FFF5B6" stroke-width="1.5"/>
</svg>
