<svg width="426" height="311" viewBox="0 0 426 311" fill="none" xmlns="http://www.w3.org/2000/svg">
<path d="M77.3912 206H-31.3912C-42.7603 206 -52 196.798 -52 185.439V21.5252C-52 10.1662 -42.7603 1 -31.3912 1H77.3912C88.7603 1 98 10.1662 98 21.5252V185.439C98 196.798 88.7603 206 77.3912 206Z" stroke="#FFF5B6" stroke-width="1.5"/>
<path d="M241.991 242H133.209C121.84 242 112.6 232.834 112.6 221.475V57.5252C112.6 46.2022 121.84 37 133.209 37H241.991C253.36 37 262.6 46.2022 262.6 57.5252V221.475C262.6 232.834 253.36 242 241.991 242Z" stroke="#FFF5B6" stroke-width="1.5"/>
<path d="M404.191 309.4H295.409C284.04 309.4 274.8 300.198 274.8 288.875V124.925C274.8 113.566 284.04 104.4 295.409 104.4H404.191C415.56 104.4 424.8 113.566 424.8 124.925V288.875C424.8 300.198 415.56 309.4 404.191 309.4Z" stroke="#FFF5B6" stroke-width="1.5"/>
</svg>
