<svg width="456" height="176" viewBox="0 0 456 176" fill="none" xmlns="http://www.w3.org/2000/svg">
<path d="M-15.2244 175H-100.74C-111.908 175 -121 165.933 -121 154.751V21.2492C-121 10.0674 -111.908 1 -100.74 1H-15.2244C-4.05625 1 5 10.0674 5 21.2492V154.751C5 165.933 -4.05625 175 -15.2244 175Z" stroke="#FFF5B6" stroke-width="1.5"/>
<path d="M134.77 175H49.2302C38.0588 175 29 165.933 29 154.751V21.2492C29 10.0674 38.0588 1 49.2302 1H134.77C145.941 1 155 10.0674 155 21.2492V154.751C155 165.933 145.941 175 134.77 175Z" stroke="#FFF5B6" stroke-width="1.5"/>
<path d="M284.776 175H199.26C188.056 175 179 165.934 179 154.719V21.2809C179 10.0655 188.056 1 199.26 1H284.776C295.944 1 305 10.0655 305 21.2809V154.719C305 165.934 295.944 175 284.776 175Z" stroke="#FFF5B6" stroke-width="1.5"/>
<path d="M434.776 175H349.26C338.056 175 329 165.934 329 154.719V21.2809C329 10.0655 338.056 1 349.26 1H434.776C445.944 1 455 10.0655 455 21.2809V154.719C455 165.934 445.944 175 434.776 175Z" stroke="#FFF5B6" stroke-width="1.5"/>
</svg>
