<svg width="1263" height="488" viewBox="0 0 1263 488" fill="none" xmlns="http://www.w3.org/2000/svg">
<path d="M-44.8 486.5H-283.7C-314.9 486.5 -340.3 461.2 -340.3 430V57.5C-340.3 26.3 -314.9 1 -283.7 1H-44.8C-13.6 1 11.7 26.3 11.7 57.5V430C11.7 461.2 -13.6 486.5 -44.8 486.5Z" stroke="#FFF5B6" stroke-width="1.5"/>
<path d="M375.2 486.5H136.3C105.1 486.5 79.7999 461.2 79.7999 430V57.5C79.7999 26.3 105.1 1 136.3 1H375.2C406.4 1 431.7 26.3 431.7 57.5V430C431.7 461.2 406.4 486.5 375.2 486.5Z" stroke="#FFF5B6" stroke-width="1.5"/>
<path d="M788.7 486.4H549.8C518.5 486.4 493.2 461.1 493.2 429.8V57.3999C493.2 26.0999 518.5 0.799805 549.8 0.799805H788.7C819.9 0.799805 845.2 26.0999 845.2 57.3999V429.8C845.2 461.1 819.9 486.4 788.7 486.4Z" stroke="#FFF5B6" stroke-width="1.5"/>
<path d="M1205.7 486.4H966.8C935.5 486.4 910.2 461.1 910.2 429.8V57.3999C910.2 26.0999 935.5 0.799805 966.8 0.799805H1205.7C1236.9 0.799805 1262.2 26.0999 1262.2 57.3999V429.8C1262.2 461.1 1236.9 486.4 1205.7 486.4Z" stroke="#FFF5B6" stroke-width="1.5"/>
</svg>
