<svg width="29" height="26" viewBox="0 0 29 26" fill="none" xmlns="http://www.w3.org/2000/svg">
<path fill-rule="evenodd" clip-rule="evenodd" d="M11.9298 8.51593C11.8582 8.55182 11.8582 8.65933 11.8582 8.73111L13.0762 12.7863C13.1837 13.2169 13.0404 13.4323 12.9329 13.5399C12.8254 13.6476 12.6105 13.7551 12.1806 13.6116L8.27563 12.1045C8.23981 12.1045 8.09651 12.1044 8.06068 12.1402L6.44854 13.2887C6.42466 13.3365 6.40078 13.3723 6.37689 13.3962L4.69311 14.5806C4.62146 14.6284 4.54981 14.6642 4.47816 14.6882C4.38262 14.736 4.29903 14.76 4.22738 14.76C4.04825 14.76 3.94078 14.724 3.86913 14.6882C3.72583 14.6164 3.5467 14.437 3.58252 14.0064L3.79748 9.77193C3.79748 9.70016 3.72583 9.59247 3.69 9.55658L0.358252 6.97274C0.0716505 6.75743 0 6.54208 0 6.39854C0 6.35069 0.0119439 6.31487 0.0358274 6.29095C0.0358274 6.14741 0.143303 5.93213 0.573206 5.78859L4.62146 4.6761C4.69311 4.6761 4.76476 4.56847 4.80059 4.53259L6.12612 0.513325C6.26942 0.118582 6.5202 0.0109603 6.6635 0.0109603C6.8068 -0.0249253 7.05758 0.0109603 7.30835 0.369817L9.63699 3.92246C9.67282 3.99423 9.78029 4.03022 9.85194 4.03022L11.894 4.10189C11.9417 4.07797 11.9776 4.06597 12.0015 4.06597L14.0435 4.10189C14.139 4.10189 14.2226 4.11389 14.2943 4.13781C14.5451 4.20958 14.6525 4.35309 14.7242 4.46075C14.7242 4.49663 14.76 4.60439 14.76 4.74794C14.76 4.85559 14.6884 5.03495 14.5451 5.21438L13.3986 6.64981C13.3748 6.69765 13.3509 6.72165 13.327 6.72165L11.9298 8.51593ZM11.6074 8.26466L14.2226 4.96311C14.2943 4.86742 14.342 4.78379 14.3659 4.71202C14.3659 4.71202 14.3659 4.70002 14.3659 4.6761C14.3301 4.64021 14.2226 4.56851 14.0435 4.56851L9.85194 4.46075C9.63699 4.46075 9.42204 4.35316 9.31456 4.17373L6.98592 0.621087C6.87845 0.477544 6.77097 0.405738 6.73515 0.405738C6.6635 0.441623 6.59184 0.513325 6.52019 0.692753L5.15884 4.6761C5.12301 4.85552 4.90806 5.03502 4.72893 5.10679L2.50777 5.71675C2.50777 5.71675 2.49583 5.71675 2.47195 5.71675L0.680683 6.21911C0.501557 6.29088 0.429902 6.36265 0.429902 6.39854C0.429902 6.39854 0.429902 6.41053 0.429902 6.43446C0.429902 6.47034 0.465727 6.57807 0.609028 6.68573L3.9766 9.23364C4.11991 9.37719 4.22738 9.59236 4.22738 9.80768L4.04825 14.0423C4.04825 14.2217 4.11991 14.3293 4.15573 14.3293C4.15573 14.3532 4.16767 14.3652 4.19155 14.3652C4.23932 14.3413 4.29903 14.3055 4.37068 14.2576L7.84573 11.8532C7.98903 11.7097 8.23981 11.6739 8.41893 11.7456L12.3597 13.2527C12.5388 13.3245 12.6463 13.2886 12.6821 13.2527C12.718 13.2168 12.7538 13.1092 12.6821 12.9298L11.4999 8.87479C11.4283 8.69536 11.4999 8.4082 11.6074 8.26466Z" fill="#FFF5B6"/>
<path fill-rule="evenodd" clip-rule="evenodd" d="M24.8435 20.0451C24.8075 20.0811 24.8075 20.1889 24.8075 20.2248L25.8162 23.5676C25.8882 23.927 25.7801 24.1068 25.7081 24.1787C25.6 24.2865 25.4199 24.3944 25.0957 24.2507L21.8535 23.0284C21.7814 22.9925 21.7094 23.0284 21.6373 23.0284L20.3044 23.963C20.3044 24.0109 20.2924 24.047 20.2684 24.0709L18.8635 25.0413C18.7914 25.0893 18.7314 25.1253 18.6833 25.1493C18.6113 25.1732 18.5392 25.1851 18.4672 25.1851C18.3231 25.221 18.251 25.1852 18.179 25.1493C18.0709 25.0774 17.9268 24.9336 17.9268 24.5741L18.1069 21.0875C18.1069 21.0156 18.0709 20.9437 18.0349 20.9077L15.261 18.7871C15.0449 18.6073 14.9728 18.4277 15.0088 18.2839C15.0088 18.2599 15.0088 18.2359 15.0088 18.2119C15.0088 18.1041 15.1169 17.8884 15.4411 17.8165L18.7914 16.8821C18.8635 16.8821 18.9355 16.8101 18.9355 16.7382L20.0523 13.4674C20.1964 13.1079 20.3765 13.0359 20.5206 13C20.6286 13 20.8448 13.0359 21.0249 13.3235L22.9702 16.271C23.0063 16.3069 23.0783 16.3429 23.1504 16.3429L24.8435 16.3787C24.8675 16.3787 24.8915 16.3787 24.9155 16.3787L26.6087 16.4147C26.7048 16.4147 26.7768 16.4267 26.8248 16.4507C27.041 16.4866 27.113 16.5945 27.1491 16.7024C27.1851 16.7383 27.2211 16.8101 27.1851 16.9179C27.1851 17.0257 27.1491 17.1695 27.041 17.3133L26.1043 18.5354C26.0803 18.5593 26.0443 18.5714 25.9963 18.5714L24.8435 20.0451ZM24.5913 19.8294L26.7888 17.0976C26.8368 17.0257 26.8729 16.9658 26.8969 16.9179C26.8969 16.8939 26.8849 16.8821 26.8609 16.8821C26.8609 16.8461 26.7888 16.7742 26.6087 16.7742L23.1504 16.7024C22.9702 16.7024 22.7901 16.5945 22.7181 16.4507L20.7727 13.5392C20.7007 13.3954 20.5926 13.3594 20.5566 13.3594C20.5206 13.3594 20.4485 13.4314 20.4125 13.5751L19.2597 16.8821C19.2237 17.0259 19.0796 17.1696 18.8995 17.2415L17.0622 17.7447C17.0622 17.7447 17.0502 17.7447 17.0262 17.7447L15.5492 18.1401C15.4051 18.212 15.3331 18.248 15.3331 18.3199C15.3331 18.3558 15.3691 18.4277 15.4772 18.4996L18.2871 20.6203C18.3951 20.7281 18.5032 20.9437 18.5032 21.0875L18.3591 24.6101C18.3591 24.7539 18.3951 24.8257 18.4312 24.8616C18.4312 24.8616 18.4432 24.8616 18.4672 24.8616C18.5152 24.8616 18.5632 24.8378 18.6113 24.7898L21.4572 22.7769C21.6013 22.705 21.8174 22.669 21.9615 22.705L25.2037 23.963C25.3478 23.999 25.4559 23.999 25.4919 23.963C25.528 23.9271 25.528 23.8552 25.4919 23.6755L24.5193 20.3326C24.4472 20.1888 24.4833 19.9732 24.5913 19.8294Z" fill="#FFF5B6"/>
<path fill-rule="evenodd" clip-rule="evenodd" d="M26.6619 6.57692C26.6619 6.61266 26.6262 6.68411 26.6262 6.71985L27.3403 9.07865C27.4117 9.32883 27.3403 9.47171 27.2689 9.54319C27.1975 9.57893 27.0904 9.65044 26.8404 9.57897L24.5555 8.68549C24.5198 8.68549 24.4484 8.68552 24.4127 8.72126L23.4487 9.3645C23.4487 9.38832 23.4368 9.41222 23.413 9.43604L22.449 10.1151C22.4014 10.1627 22.3538 10.1866 22.3062 10.1866C22.2586 10.2104 22.211 10.2224 22.1634 10.2224C22.0563 10.2581 21.9849 10.2223 21.9492 10.1866C21.8778 10.1509 21.7707 10.0436 21.7707 9.79343L21.9135 7.32748C21.9135 7.29174 21.8778 7.2203 21.8421 7.18456L19.8785 5.68345C19.7357 5.57623 19.7 5.43331 19.7 5.36183C19.7 5.33801 19.7 5.31411 19.7 5.29028C19.7 5.21881 19.7714 5.07592 20.0213 5.00444L22.3776 4.36104C22.4133 4.3253 22.4847 4.28963 22.4847 4.25389L23.2702 1.89508C23.3773 1.64491 23.5201 1.60924 23.5915 1.60924C23.6629 1.5735 23.8414 1.60927 23.9842 1.82371L25.3409 3.8965C25.3766 3.93224 25.4123 3.96805 25.4481 3.96805L26.6619 4.00365C26.6857 3.97982 26.7095 3.96805 26.7333 3.96805L27.9115 4.00365C27.9829 4.00365 28.0305 4.00365 28.0543 4.00365C28.2328 4.07512 28.2685 4.14664 28.3042 4.21812C28.3399 4.25385 28.34 4.28956 28.34 4.36104C28.34 4.43251 28.3042 4.53984 28.2328 4.64705L27.5545 5.50475C27.5307 5.52858 27.5069 5.54053 27.4831 5.54053L26.6619 6.57692ZM26.4834 6.434L28.0186 4.46836C28.0662 4.42071 28.09 4.38486 28.09 4.36104C28.09 4.33721 28.09 4.32544 28.09 4.32544C28.09 4.2897 28.0186 4.25389 27.9115 4.25389L25.4481 4.21812C25.3409 4.18238 25.1981 4.1109 25.1624 4.03942L23.77 1.93085C23.7343 1.85938 23.6629 1.82371 23.6272 1.82371C23.5915 1.82371 23.5558 1.85941 23.5201 1.96663L22.7347 4.32544C22.699 4.43265 22.5562 4.53977 22.449 4.5755L21.1638 4.93289C21.14 4.93289 21.128 4.93289 21.128 4.93289L20.0927 5.21891C19.9856 5.25465 19.9499 5.29032 19.9499 5.32606C19.9499 5.32606 19.9499 5.33801 19.9499 5.36183C19.9499 5.36183 19.9499 5.43328 20.057 5.50475L22.0206 7.00586C22.092 7.07734 22.1634 7.22026 22.1634 7.32748L22.0563 9.79343C22.0563 9.90065 22.092 9.97213 22.1277 9.97213C22.1277 9.99596 22.1277 10.0079 22.1277 10.0079C22.1753 9.98408 22.211 9.96018 22.2348 9.93636L24.2699 8.5068C24.377 8.43532 24.5198 8.43528 24.6269 8.47102L26.9119 9.3645C27.019 9.40024 27.0904 9.3645 27.1261 9.3645C27.1261 9.32876 27.1618 9.25742 27.1261 9.1502L26.412 6.79139C26.3763 6.68418 26.412 6.50548 26.4834 6.434Z" fill="#FFF5B6"/>
</svg>
