<svg width="373" height="302" viewBox="0 0 373 302" fill="none" xmlns="http://www.w3.org/2000/svg">
<path d="M57.7903 135.049C62.2556 158.268 47.0593 180.658 23.8327 185.122C0.642128 189.549 -21.7562 174.358 -26.2215 151.176C-30.6867 127.994 -15.4904 105.603 7.73614 101.139C30.9267 96.6757 53.325 111.867 57.7903 135.049Z" fill="#FFF5B6"/>
<path d="M154.262 173.026C158.727 196.209 143.531 218.599 120.34 223.063C97.1134 227.491 74.715 212.336 70.2498 189.117C65.8205 165.935 81.0168 143.544 104.207 139.081C127.398 134.617 149.796 149.808 154.262 173.026Z" fill="#FFF5B6"/>
<path d="M253.326 211.868C257.791 235.086 242.595 257.477 219.404 261.94C196.214 266.368 173.779 251.177 169.314 227.995C164.885 204.812 180.081 182.422 203.272 177.958C226.462 173.494 248.897 188.685 253.326 211.868Z" fill="#FFF5B6"/>
<path d="M351.309 250.385C355.739 273.568 340.542 295.994 317.352 300.422C294.161 304.885 271.727 289.695 267.298 266.512C262.832 243.33 278.029 220.903 301.219 216.476C324.41 212.012 346.844 227.203 351.309 250.385Z" fill="#FFF5B6"/>
<path d="M78.7122 34.688C83.1775 57.8704 67.9812 80.2968 44.7906 84.7245C21.6001 89.1882 -0.834295 73.9973 -5.29956 50.8149C-9.72881 27.6325 5.46749 5.206 28.6581 0.778303C51.8486 -3.68539 74.283 11.5055 78.7122 34.688Z" fill="#FFF5B6"/>
<path d="M175.184 72.6294C179.649 95.8118 164.453 118.238 141.262 122.702C118.071 127.13 95.637 111.939 91.2078 88.7563C86.7425 65.5739 101.939 43.1474 125.129 38.7197C148.32 34.256 170.754 49.447 175.184 72.6294Z" fill="#FFF5B6"/>
<path d="M274.284 111.507C278.713 134.689 263.516 157.115 240.326 161.543C217.135 166.007 194.701 150.816 190.272 127.633C185.806 104.451 201.003 82.0246 224.193 77.5969C247.384 73.1332 269.818 88.3242 274.284 111.507Z" fill="#FFF5B6"/>
<path d="M372.231 150.024C376.661 173.206 361.5 195.597 338.274 200.061C315.083 204.524 292.685 189.333 288.219 166.151C283.754 142.933 298.95 120.542 322.177 116.078C345.368 111.651 367.766 126.842 372.231 150.024Z" fill="#FFF5B6"/>
</svg>
