<svg width="1036" height="838" viewBox="0 0 1036 838" fill="none" xmlns="http://www.w3.org/2000/svg">
<path d="M160.2 375.6C172.6 440.1 130.4 502.3 65.9 514.7C1.49998 527 -60.7 484.8 -73.1 420.4C-85.5 356 -43.3 293.8 21.2 281.4C85.6 269 147.8 311.2 160.2 375.6Z" fill="#FFF5B6"/>
<path d="M428.1 481.1C440.5 545.5 398.3 607.7 333.9 620.1C269.4 632.4 207.2 590.3 194.8 525.8C182.5 461.4 224.7 399.2 289.1 386.8C353.5 374.4 415.7 416.6 428.1 481.1Z" fill="#FFF5B6"/>
<path d="M703.2 589C715.6 653.5 673.4 715.7 609 728.1C544.6 740.4 482.3 698.2 469.9 633.8C457.6 569.4 499.8 507.2 564.2 494.8C628.6 482.4 690.9 524.6 703.2 589Z" fill="#FFF5B6"/>
<path d="M975.3 696C987.6 760.4 945.4 822.7 881 835C816.6 847.4 754.3 805.2 742 740.8C729.6 676.4 771.8 614.1 836.2 601.8C900.6 589.4 962.9 631.6 975.3 696Z" fill="#FFF5B6"/>
<path d="M218.3 96.8C230.7 161.2 188.5 223.5 124.1 235.8C59.6999 248.2 -2.6001 206 -15.0001 141.6C-27.3001 77.2001 14.8999 14.9001 79.2999 2.60009C143.7 -9.79991 206 32.4 218.3 96.8Z" fill="#FFF5B6"/>
<path d="M486.2 202.2C498.6 266.6 456.4 328.9 392 341.3C327.6 353.6 265.3 311.4 253 247C240.6 182.6 282.8 120.3 347.2 108C411.6 95.6 473.9 137.8 486.2 202.2Z" fill="#FFF5B6"/>
<path d="M761.4 310.2C773.7 374.6 731.5 436.9 667.1 449.2C602.7 461.6 540.4 419.4 528.1 355C515.7 290.6 557.9 228.3 622.3 216C686.7 203.6 749 245.8 761.4 310.2Z" fill="#FFF5B6"/>
<path d="M1033.4 417.2C1045.7 481.6 1003.6 543.8 939.1 556.2C874.7 568.6 812.5 526.4 800.1 462C787.7 397.5 829.9 335.3 894.4 322.9C958.8 310.6 1021 352.8 1033.4 417.2Z" fill="#FFF5B6"/>
</svg>
